<svg width="160" height="138" viewBox="0 0 160 138" fill="none" xmlns="http://www.w3.org/2000/svg">
<g opacity="0.3">
<g filter="url(#filter0_i_1164_33804)">
<path d="M153.843 68.9037C153.843 86.6114 147.206 102.659 136.241 114.734C136.171 114.812 136.043 115.072 136.043 115.176C136.043 115.204 136.033 115.299 136.016 115.32C120.224 133.786 90.6846 144.523 59.4681 133.438C49.8976 129.607 40.3271 122.656 36.5569 118.936C35.3557 117.75 34.3277 116.34 33.2019 115.083C-5.82115 71.5115 24.409 0 84.6572 0C122.945 0 153.843 30.9226 153.843 68.9037Z" fill="url(#paint0_linear_1164_33804)" fill-opacity="0.6"/>
</g>
<path d="M135.871 114.398L136.241 114.734L135.871 114.398C135.783 114.496 135.707 114.638 135.662 114.735C135.636 114.792 135.609 114.856 135.589 114.92C135.576 114.959 135.557 115.023 135.548 115.097C119.868 133.345 90.6014 143.959 59.6448 132.97C50.1415 129.164 40.6316 122.254 36.9081 118.58C36.3258 118.005 35.7814 117.372 35.2353 116.716C35.1115 116.568 34.9874 116.417 34.8626 116.266C34.4419 115.758 34.0147 115.241 33.5743 114.749C-5.16853 71.4907 24.8537 0.5 84.6572 0.5C122.67 0.5 153.343 31.2 153.343 68.9037C153.343 86.4838 146.755 102.412 135.871 114.398Z" stroke="#3482FC" stroke-opacity="0.6"/>
</g>
<path d="M113.874 73.6095H110.516V54.4498H113.874C116.561 54.4498 118.912 56.8028 118.912 59.4918V68.5674C118.912 71.5927 116.897 73.6095 113.874 73.6095Z" fill="#F5F5F5"/>
<path d="M64.6947 21.2573C64.6876 21.2251 64.6808 21.1934 64.6741 21.1622C67.1766 21.4828 70.5973 21.8801 74.0526 22.1278C78.1247 22.4197 82.357 22.5135 85.1844 21.983L85.1943 21.9811L85.2041 21.9791C92.8165 20.3919 100.42 24.1176 103.583 31.3986L103.748 31.7797L104.135 31.9313C107.823 33.3755 110.031 35.3672 111.304 37.5724C112.585 39.7905 112.978 42.324 112.856 44.9398C112.734 47.5597 112.097 50.209 111.371 52.6107C111.012 53.796 110.636 54.9091 110.291 55.9265L110.28 55.9612C109.965 56.8924 109.672 57.7585 109.457 58.5037C109.226 58.8334 109.132 59.1916 109.089 59.4068C109.058 59.5603 109.043 59.696 109.035 59.794C109.032 59.8436 109.03 59.8853 109.029 59.9169C109.028 59.925 109.028 59.9324 109.028 59.9391C109.028 59.9457 109.028 59.9516 109.028 59.9569L109.027 59.971L109.027 59.9765L109.027 59.9788V59.9799V59.9804C109.027 59.9806 109.027 59.9809 109.898 59.9809C109.027 59.9809 109.027 59.9814 109.027 59.9818V59.9828L109.027 59.9849L109.027 59.989L109.027 59.9979L109.028 60.0179C109.028 60.0322 109.029 60.0484 109.03 60.0665C109.033 60.1022 109.038 60.1468 109.046 60.1977C109.062 60.2946 109.096 60.4392 109.175 60.5959C109.255 60.7564 109.391 60.9476 109.614 61.0963C109.786 61.2114 109.977 61.2782 110.171 61.3043C110.345 61.3554 110.55 61.4054 110.71 61.4442C110.794 61.4647 110.866 61.4821 110.912 61.4948C111.152 61.5598 111.278 61.617 111.355 61.6743C111.356 61.675 111.357 61.6757 111.358 61.6766C111.407 61.7121 111.684 61.9115 111.539 63.0666L111.537 63.0833L111.536 63.1C111.474 63.7799 111.418 64.4279 111.365 65.0459C111.272 66.1289 111.187 67.1195 111.091 68.0269C110.94 69.4524 110.768 70.5864 110.521 71.4421C110.268 72.3178 109.982 72.7352 109.726 72.9206C109.523 73.067 109.175 73.1853 108.429 72.9815L107.691 72.7801L107.303 73.4395L103.945 79.1535L103.807 79.3881V79.6602C103.807 80.3215 103.746 81.6019 103.668 83.2202C103.59 84.8668 103.494 86.8633 103.43 88.9138C103.366 90.9166 103.334 92.9457 103.382 94.6714C103.429 96.337 103.551 97.8577 103.851 98.7773C104.61 101.41 106.499 103.332 108.806 104.12C115.994 107.363 121.234 109.543 125.157 111.175C125.904 111.486 126.603 111.777 127.259 112.051C130.722 113.501 132.912 114.473 134.551 115.492C118.871 133.452 90.1849 143.278 59.8199 132.503C54.0435 130.188 48.2442 126.708 43.7585 123.508C41.5152 121.907 39.615 120.387 38.2216 119.131C37.5242 118.502 36.964 117.949 36.5544 117.492C36.4269 117.349 36.3198 117.223 36.2307 117.112C36.8518 116.57 37.6921 116.019 38.8085 115.426C40.282 114.643 42.1729 113.818 44.5597 112.855C46.2471 112.173 48.1863 111.421 50.3862 110.567C54.3517 109.029 59.1646 107.161 64.8779 104.788C66.5526 104.134 67.7793 103.171 68.6312 101.843C69.47 100.535 69.8965 98.9489 70.1152 97.1317C70.3339 95.3156 70.3532 93.1874 70.3217 90.7548C70.3111 89.9361 70.2948 89.0831 70.2777 88.1916C70.2435 86.4094 70.2064 84.4734 70.2064 82.3491V81.9985L69.9875 81.7247C68.7478 80.1739 67.4901 77.6596 67.1776 74.8442L67.1176 74.3037L66.6312 74.0603L65.2878 73.388L64.9458 73.2169L64.577 73.3176C63.7988 73.53 63.4795 73.4119 63.3195 73.2985C63.1084 73.1488 62.8504 72.7844 62.6145 71.9187C62.385 71.0765 62.2237 69.9493 62.0553 68.4953C62.0027 68.0413 61.9494 67.5564 61.8932 67.0438C61.7731 65.9498 61.6392 64.7294 61.4677 63.4124C61.3858 62.5893 61.3493 61.9909 61.3585 61.5408C61.3678 61.0841 61.4238 60.8522 61.4774 60.7272C61.5466 60.5656 61.6472 60.4369 62.5251 60.0855L63.3697 59.7474L63.1127 58.8747L62.9594 58.354L62.9416 58.2936L62.9164 58.2359C60.6049 52.9483 58.926 46.4484 59.0821 40.7027C59.2383 34.9568 61.2054 30.1909 65.9358 27.9001L66.8471 27.4589L66.3946 26.5532C66.1009 25.9654 65.6212 24.624 65.2074 23.2178C65.0039 22.5262 64.8234 21.8426 64.6947 21.2573Z" stroke="#3482FC" stroke-width="2"/>
<path d="M89.357 84.3644H85.3267C84.3192 84.3644 83.6475 83.6921 83.6475 82.6837V81.0031C83.6475 79.9947 84.3192 79.3224 85.3267 79.3224H89.357C90.3645 79.3224 91.0363 79.9947 91.0363 81.0031V82.6837C91.3721 83.6921 90.3645 84.3644 89.357 84.3644Z" fill="#F5F5F5"/>
<path d="M108.164 83.3568C88.013 83.3568 85.3262 84.3652 85.3262 81.6761C85.3262 80.6677 85.9979 79.9955 86.6696 79.9955H108.164C110.179 79.9955 111.859 78.3148 111.859 76.298V73.6089C111.859 71.5921 114.881 71.5921 114.881 73.6089V76.298C114.881 80.3316 111.859 83.3568 108.164 83.3568Z" fill="#F5F5F5"/>
<path d="M127.189 112.098C130.714 113.509 132.913 114.475 134.551 115.491C118.87 133.451 90.1848 143.277 59.8199 132.502C54.0435 130.187 48.2442 126.707 43.7585 123.506C41.5152 121.906 39.615 120.385 38.2216 119.129C37.5242 118.501 36.964 117.947 36.5544 117.491C36.4335 117.356 36.3308 117.235 36.2445 117.128C36.7112 116.744 37.3194 116.333 38.0646 115.899C39.1487 115.268 40.4695 114.617 41.9584 113.953C44.9384 112.623 48.5195 111.268 52.0945 109.921C52.1927 109.884 52.2909 109.847 52.3891 109.81C55.8492 108.506 59.2896 107.21 62.0863 105.971C63.5249 105.334 64.8166 104.701 65.8658 104.079C66.4423 103.737 66.9748 103.382 67.4265 103.012C77.2076 115.085 96.0343 115.111 105.853 103.088C106.541 103.733 107.348 104.187 108.149 104.46C114.563 107.124 119.46 109.05 123.259 110.544C124.724 111.121 126.027 111.633 127.189 112.098Z" stroke="#3482FC" stroke-width="2"/>
<path d="M63.8486 20.9376C64.1788 20.9913 64.5603 21.0521 64.9845 21.1179C66.5282 21.357 68.6423 21.6617 70.9212 21.9231C73.1975 22.1842 75.6519 22.4037 77.8724 22.4697C80.0481 22.5344 82.0988 22.4562 83.5412 22.0771C86.8297 21.4225 90.9397 21.5115 94.6586 22.8239C98.3684 24.1332 101.654 26.6424 103.42 30.8311L103.59 31.2344L104.001 31.3831C108.135 32.8766 110.554 34.992 111.911 37.3283C113.275 39.6777 113.632 42.3655 113.426 45.1131C113.22 47.8648 112.454 50.6152 111.634 53.0341C111.395 53.7409 111.153 54.4141 110.92 55.0489C110.691 54.3893 110.437 53.756 110.217 53.2056C110.194 53.1479 110.171 53.0911 110.148 53.0352C110.093 52.6756 109.926 52.3931 109.827 52.2449C109.762 52.1469 109.699 52.0657 109.648 52.0062C106.288 45.7593 99.3529 43.2883 93.0219 42.9353L93.0219 42.9353L93.0089 42.9347C86.981 42.6773 82.9324 42.9447 80.0552 43.1347C79.0466 43.2014 78.1819 43.2585 77.4264 43.2801C75.9635 43.3221 74.9478 43.2326 74.0133 42.8958C73.0812 42.5597 72.1407 41.9444 70.9001 40.7825L69.3963 42.0844C70.3734 43.4852 70.832 46.4152 69.7492 49.4337C68.757 52.1996 66.4757 54.9923 62.1583 56.5349C58.8872 48.7298 58.088 42.3818 58.8802 37.6115C59.6969 32.6937 62.1962 29.4536 65.4773 27.8856L66.3701 27.4589L65.9529 26.5617C64.7675 24.0126 64.1869 22.254 63.9031 21.1551C63.8835 21.0795 63.8654 21.007 63.8486 20.9376Z" stroke="#3482FC" stroke-width="2"/>
<path d="M156.486 26.3182C157.907 24.692 157.741 22.2218 156.115 20.8009C154.488 19.38 152.018 19.5465 150.597 21.1727C149.176 22.799 149.343 25.2692 150.969 26.6901C152.595 28.111 155.065 27.9445 156.486 26.3182Z" fill="#F5F5F5"/>
<path d="M148.76 11.9694C149.731 10.8588 149.617 9.1718 148.506 8.20144C147.396 7.23107 145.709 7.34477 144.738 8.45537C143.768 9.56598 143.882 11.2529 144.992 12.2233C146.103 13.1937 147.79 13.08 148.76 11.9694Z" fill="#F5F5F5"/>
<path d="M21.6694 17.424C23.1442 17.424 24.3398 16.2284 24.3398 14.7536C24.3398 13.2788 23.1442 12.0833 21.6694 12.0833C20.1946 12.0833 18.999 13.2788 18.999 14.7536C18.999 16.2284 20.1946 17.424 21.6694 17.424Z" fill="#F5F5F5"/>
<path d="M5.36064 68.9242C8.09957 68.9242 10.3199 66.7038 10.3199 63.9649C10.3199 61.226 8.09957 59.0056 5.36064 59.0056C2.62171 59.0056 0.401367 61.226 0.401367 63.9649C0.401367 66.7038 2.62171 68.9242 5.36064 68.9242Z" fill="#F5F5F5"/>
<defs>
<filter id="filter0_i_1164_33804" x="15.707" y="0" width="138.137" height="137.926" filterUnits="userSpaceOnUse" color-interpolation-filters="sRGB">
<feFlood flood-opacity="0" result="BackgroundImageFix"/>
<feBlend mode="normal" in="SourceGraphic" in2="BackgroundImageFix" result="shape"/>
<feColorMatrix in="SourceAlpha" type="matrix" values="0 0 0 0 0 0 0 0 0 0 0 0 0 0 0 0 0 0 127 0" result="hardAlpha"/>
<feOffset/>
<feGaussianBlur stdDeviation="7"/>
<feComposite in2="hardAlpha" operator="arithmetic" k2="-1" k3="1"/>
<feColorMatrix type="matrix" values="0 0 0 0 0.203922 0 0 0 0 0.509804 0 0 0 0 0.988235 0 0 0 1 0"/>
<feBlend mode="normal" in2="shape" result="effect1_innerShadow_1164_33804"/>
</filter>
<linearGradient id="paint0_linear_1164_33804" x1="24.619" y1="2.41603e-06" x2="149.174" y2="141.451" gradientUnits="userSpaceOnUse">
<stop stop-color="#F5F5F5" stop-opacity="0"/>
<stop offset="1" stop-color="#3482FC" stop-opacity="0.42"/>
</linearGradient>
</defs>
</svg>
