<svg width="165" height="165" viewBox="0 0 165 165" fill="none" xmlns="http://www.w3.org/2000/svg">
<path fill-rule="evenodd" clip-rule="evenodd" d="M2.31676 139.567C1.85093 140.636 1.8651 142.294 2.34934 143.368C2.85541 144.491 4.04258 145.578 5.1408 145.923C6.58625 146.378 7.88698 146.229 9.18157 145.459C12.2075 143.661 12.2175 139.18 9.19967 137.388C8.34117 136.878 7.00868 136.558 6.23342 136.676C5.05301 136.856 4.42484 137.161 3.5259 137.994C2.81402 138.653 2.58552 138.95 2.31676 139.567ZM79.2237 64.1109C77.86 66.2429 77.4081 68.5234 77.9251 70.663C78.311 72.26 78.9564 73.2919 80.5926 74.9281C82.1988 76.5343 82.8425 76.9761 84.4404 77.5695C86.4308 78.3085 88.7555 78.0362 90.6809 76.8386C91.237 76.4926 91.966 75.8702 92.8153 75.0163C94.2135 73.6104 94.9219 72.7106 95.9474 71.0384L96.609 69.9595L93.4509 66.8014L90.2928 63.6433L87.7036 66.2325L85.1144 68.8217L86.2073 69.8581L87.3002 70.8945L88.5463 69.704L89.7925 68.5135L91.0213 69.7424L92.2501 70.9711L91.8681 71.4872C91.6581 71.7711 91.032 72.4226 90.4767 72.9351C89.5837 73.7595 89.3693 73.8949 88.619 74.108C86.8361 74.6147 85.1587 73.9198 83.2554 71.8858C82.2832 70.8467 82.1047 70.5885 81.8093 69.793C81.3161 68.4642 81.4085 66.9249 82.054 65.7196C82.7196 64.4768 84.1049 63.2082 85.6088 62.4641C86.1855 62.1787 86.6575 61.8979 86.6576 61.8404C86.6577 61.7826 86.4147 61.1088 86.1176 60.3428L85.5774 58.9501L85.1256 59.1336C84.8771 59.2345 84.2482 59.5629 83.7282 59.8634C82.4763 60.5867 79.9602 62.9592 79.2237 64.1109ZM119.689 23.7447C118.176 26.3263 118.169 28.8849 119.665 31.4976C120.326 32.6514 122.777 35.1007 123.918 35.7483C126.458 37.1902 129.172 37.2317 131.542 35.8651C133.047 34.9968 135.158 32.8242 135.901 31.3784C137.29 28.6762 137.05 25.9118 135.198 23.2935C134.304 22.0292 132.71 20.5257 131.453 19.7609C128.897 18.2062 126.062 18.2338 123.526 19.838C122.296 20.6165 120.378 22.5689 119.689 23.7447ZM28.7855 114.582C28.7854 114.657 31.4964 117.43 34.81 120.744L40.8348 126.768L42.0911 125.512L43.3474 124.256L38.6762 119.675C36.1072 117.155 34.0931 115.136 34.2006 115.188C34.308 115.239 37.0557 116.633 40.3065 118.284L46.2169 121.287L47.4906 120.014L48.7642 118.74L45.8346 112.657C44.2233 109.312 42.8782 106.512 42.8456 106.436C42.8129 106.359 44.8466 108.404 47.365 110.978L51.9438 115.659L53.2517 114.351L54.5596 113.044L48.4666 106.951L42.3737 100.858L40.5431 102.742L38.7124 104.627L41.6467 110.705C43.2605 114.048 44.6091 116.844 44.6436 116.918C44.6781 116.993 41.9447 115.671 38.5693 113.98L32.4323 110.907L30.609 112.676C29.6063 113.649 28.7857 114.507 28.7855 114.582ZM47.4831 95.8836C47.4829 95.9594 50.1939 98.7325 53.5076 102.046L59.5323 108.071L60.9255 106.678L62.3186 105.285L56.227 99.2442L50.1353 93.2038L48.8093 94.4748C48.0801 95.1738 47.4832 95.8078 47.4831 95.8836ZM53.9885 89.5115C54.0329 89.6118 54.5248 90.1236 55.0814 90.6486L56.0934 91.6033L57.8362 89.9149L59.5788 88.2263L64.5284 93.1759L69.4778 98.1254L70.8702 96.733L72.2626 95.3406L67.3131 90.3911L62.3635 85.4416L64.0521 83.6989L65.7406 81.9562L64.6512 80.8668L63.5618 79.7774L58.7345 84.5531C54.7906 88.455 53.9222 89.3623 53.9885 89.5115ZM67.3741 75.9925C67.3739 76.0684 70.085 78.8414 73.3986 82.1551L79.4234 88.1798L80.8165 86.7867L82.2096 85.3936L76.118 79.3531L70.0263 73.3128L68.7003 74.5837C67.9712 75.2828 67.3743 75.9167 67.3741 75.9925ZM96.3803 58.7892C98.442 63.2936 100.165 67.0549 100.208 67.1473C100.269 67.2771 100.628 66.9757 101.774 65.8295L103.26 64.3434L102.292 62.4388L101.325 60.5342L103.641 58.2185L105.956 55.9027L107.815 56.8664L109.674 57.8301L111.16 56.3986C112.313 55.2879 112.618 54.9389 112.519 54.8417C112.449 54.7728 108.717 53.0427 104.226 50.9973L96.0608 47.2783L94.3462 48.9388L92.6315 50.5994L96.3803 58.7892ZM103.787 41.7312L104.926 42.8701L106.666 41.1296L108.407 39.3892L113.361 44.3438L118.316 49.2984L119.656 47.9034L120.996 46.5083L116.094 41.5555L111.193 36.6025L112.883 34.9128L114.573 33.223L113.434 32.084L112.295 30.9451L107.471 35.7687L102.648 40.5922L103.787 41.7312ZM132.215 11.1327C132.217 11.2168 134.93 13.9967 138.243 17.3104L144.268 23.3351L145.66 21.9427L147.053 20.5503L144.725 18.223L142.398 15.8956L143.085 15.2092L143.771 14.5226L147.622 15.3208L151.473 16.1189L152.992 14.605C153.828 13.7724 154.494 13.0729 154.471 13.0505C154.449 13.0282 152.452 12.6851 150.034 12.288C147.616 11.891 145.615 11.545 145.586 11.5192C145.557 11.4933 145.631 11.1557 145.751 10.7688C146.036 9.84268 146.029 8.53919 145.732 7.66298C145.528 7.05731 145.346 6.80929 144.453 5.91776C143.518 4.98423 143.335 4.85501 142.653 4.64734C141.227 4.21288 139.789 4.50173 138.169 5.54822C137.207 6.16963 132.208 10.8583 132.215 11.1327ZM101.693 53.679L103.097 54.4049L101.454 56.0473C100.029 57.4727 99.7996 57.6623 99.7196 57.4821C99.6361 57.2939 97.1602 52.4751 96.6003 51.4108C96.3732 50.9791 96.4175 50.9932 98.3285 51.9604C99.4073 52.5063 100.921 53.2797 101.693 53.679ZM125.639 22.4485C126.087 22.3166 126.768 22.2559 127.152 22.3138C129.756 22.7053 133.123 26.3193 133.118 28.7178C133.115 29.9268 132.636 30.8631 131.474 31.9321C130.66 32.6798 130.425 32.8249 129.692 33.0299C128.698 33.3083 127.587 33.1537 126.523 32.5887C125.504 32.0477 123.376 29.9121 122.839 28.8915C121.767 26.8544 122.069 25.2771 123.85 23.6039C124.699 22.8065 124.93 22.6577 125.639 22.4485ZM139.519 8.48493C139.812 8.327 140.291 8.20233 140.584 8.20807C141.56 8.22674 142.595 9.30845 142.593 10.3067C142.592 11.0147 142.271 11.596 141.191 12.8487L140.339 13.8368L138.68 12.1776L137.021 10.5185L138.004 9.64543C138.545 9.16513 139.227 8.64304 139.519 8.48493ZM13.8809 136.214C12.9452 138.21 13.3853 140.441 14.9973 141.871C16.3286 143.052 18.0574 143.385 19.7802 142.791C20.5176 142.536 20.7737 142.368 21.4486 141.695C22.1152 141.031 22.2985 140.757 22.5653 140.026C23.386 137.778 22.553 135.382 20.5526 134.237C19.7655 133.787 18.6229 133.52 17.7265 133.579C16.3322 133.67 14.4779 134.94 13.8809 136.214ZM10.8856 147.485C10.2166 148.802 10.1262 149.919 10.5718 151.365C10.7818 152.047 10.9215 152.25 11.7505 153.08C12.6344 153.965 12.7489 154.038 13.6597 154.307C14.728 154.622 15.7515 154.58 16.8398 154.176C17.8185 153.813 19.1076 152.521 19.4903 151.52C20.4271 149.069 19.1812 146.249 16.7625 145.347C15.703 144.952 14.3103 144.952 13.3187 145.348C12.4548 145.693 11.2647 146.738 10.8856 147.485ZM25.3486 133.103C24.7335 134.4 24.6714 135.459 25.1237 136.933C25.2988 137.504 25.4787 137.762 26.2226 138.509C26.9805 139.269 27.234 139.445 27.935 139.698C28.9826 140.074 30.2013 140.072 31.2506 139.691C31.9451 139.438 32.2066 139.258 32.9153 138.541C33.624 137.825 33.8022 137.559 34.0498 136.853C34.4731 135.646 34.3772 134.156 33.8064 133.072C33.2435 132.003 32.8274 131.587 31.7585 131.024C30.6995 130.466 29.1854 130.359 28.0248 130.759C26.9469 131.131 25.8129 132.124 25.3486 133.103ZM22.4141 144.205C21.7086 145.381 21.5523 146.843 21.983 148.238C22.203 148.951 22.3325 149.14 23.1717 149.978C23.9524 150.756 24.2314 150.957 24.8007 151.149C25.9091 151.522 26.8995 151.523 27.9792 151.153C28.8651 150.85 29.0613 150.723 29.8178 149.967C30.5436 149.241 30.706 149 30.9538 148.278C31.3283 147.186 31.2665 145.598 30.8136 144.665C29.7346 142.444 27.1228 141.386 24.8577 142.252C23.8823 142.625 22.8824 143.424 22.4141 144.205ZM19.2915 155.748C18.6001 156.971 18.4702 158.301 18.907 159.689C19.0871 160.262 19.3239 160.643 19.8939 161.277C20.9276 162.428 21.8689 162.85 23.3908 162.847C24.9124 162.844 25.8555 162.417 26.8945 161.263C27.6592 160.413 27.9817 159.73 28.1539 158.597C28.2717 157.821 27.9519 156.489 27.4421 155.63C25.6336 152.585 21.0432 152.652 19.2915 155.748ZM64.3514 111C63.7803 111.746 63.61 112.163 63.5577 112.944C63.4874 113.993 63.9284 114.937 64.9811 115.992C66.8634 117.879 68.6903 117.922 70.4945 116.122C71.538 115.081 71.8974 114.098 71.6682 112.911C71.314 111.076 69.2933 109.249 67.5556 109.192C66.498 109.157 65.2029 109.888 64.3514 111ZM101.737 73.6101C100.919 74.6647 100.727 75.8852 101.19 77.0943C101.465 77.8106 103.176 79.5071 103.896 79.7766C105.358 80.3239 106.622 79.9917 107.89 78.7267C108.581 78.0369 108.737 77.8019 108.951 77.1223C109.445 75.5574 108.689 73.7616 107.055 72.6187C105.215 71.3323 103.215 71.7051 101.737 73.6101ZM146.376 28.9674C145.539 30.0608 145.425 31.4514 146.07 32.697C146.229 33.0045 146.699 33.5379 147.276 34.0655C148.072 34.7934 148.348 34.967 149.021 35.163C150.343 35.5489 151.402 35.2166 152.57 34.0483C153.485 33.1334 153.782 32.497 153.786 31.4396C153.791 30.1924 153.382 29.3905 152.191 28.3148C151.144 27.3692 150.465 27.0948 149.322 27.1552C148.222 27.2133 147.271 27.7985 146.376 28.9674ZM44.8674 130.711C44.9098 130.807 46.1589 132.076 47.6435 133.531L50.3425 136.177L51.6327 134.869C52.791 133.694 52.9528 133.48 53.2149 132.771C53.8076 131.17 53.5161 130.012 52.1865 128.688C51.4434 127.948 51.2432 127.818 50.5047 127.596C48.9381 127.127 47.6622 127.666 45.7054 129.623C45.0594 130.269 44.8131 130.589 44.8674 130.711ZM53.7189 121.86C53.7613 121.955 55.0104 123.224 56.495 124.679L59.194 127.325L60.4769 126.022C61.9928 124.483 62.3713 123.745 62.3205 122.427C62.2803 121.386 61.965 120.762 60.986 119.788C60.2979 119.102 60.0789 118.963 59.3545 118.745C57.7904 118.275 56.5134 118.815 54.5569 120.771C53.9109 121.417 53.6646 121.737 53.7189 121.86ZM72.3714 103.341C71.9784 104.382 72.3763 105.296 73.4271 105.765C74.1511 106.087 74.6835 106.021 75.938 105.45C76.449 105.218 77.0623 104.977 77.3009 104.915C78.239 104.672 79.0545 105.581 78.6906 106.464C78.4427 107.064 77.4977 108.01 76.7334 108.422C76.0768 108.776 76.035 108.86 76.3565 109.181C76.747 109.572 77.0975 109.413 78.2589 108.321C79.2328 107.405 79.369 107.227 79.5639 106.622C79.9688 105.363 79.3856 104.166 78.2316 103.888C77.6834 103.757 77.2149 103.877 75.4934 104.592C74.3173 105.081 74.0369 105.071 73.4889 104.523C73.1951 104.23 73.156 104.08 73.2613 103.649C73.4126 103.03 74.0444 102.354 74.9049 101.89C75.4647 101.589 75.5028 101.544 75.4246 101.284C75.3783 101.13 75.2776 100.941 75.2009 100.865C74.8231 100.487 72.7704 102.283 72.3714 103.341ZM86.8904 94.0556L89.7266 96.8918L90.0746 96.5437L90.4227 96.1956L89.348 95.1208L88.2732 94.0461L88.9966 93.2024C89.3945 92.7384 89.8311 92.1006 89.9669 91.785C90.4311 90.7055 90.0497 89.4685 89.0593 88.843C87.9808 88.1615 87.0327 88.4756 85.2718 90.0979L84.0542 91.2194L86.8904 94.0556ZM92.001 83.5511C92.0478 83.6566 93.3007 84.9338 94.7852 86.3891L97.4843 89.035L97.8324 88.6869L98.1805 88.3388L97.04 87.1422L95.8995 85.9456L96.4954 85.409L97.0912 84.8724L98.9395 85.3019C100.778 85.7292 100.79 85.7295 101.23 85.35C101.474 85.1402 101.646 84.9424 101.615 84.9105C101.583 84.8786 100.67 84.6562 99.5861 84.4163C98.1542 84.0992 97.6412 83.9288 97.7094 83.7929C97.761 83.6899 97.8159 83.2625 97.8314 82.8429C97.857 82.1506 97.8093 82.0222 97.3172 81.4556C96.8618 80.9313 96.6816 80.813 96.1942 80.7185C95.2512 80.5352 94.6481 80.8287 93.1879 82.181C92.16 83.1331 91.9321 83.396 92.001 83.5511ZM108.695 67.3262L109.042 67.6728L109.935 66.7794L110.828 65.8861L113.306 68.3107L115.784 70.7353L116.188 70.393L116.591 70.0508L114.109 67.5689L111.628 65.087L112.523 64.1919L113.418 63.2968L113.071 62.9502L112.725 62.6036L110.537 64.7916L108.349 66.9796L108.695 67.3262ZM119.326 61.6468L122.149 64.4694L123.79 62.8284L125.431 61.1874L125.084 60.8407L124.738 60.4941L123.445 61.787L122.152 63.0799L121.161 62.0896L120.171 61.0992L121.365 59.9057L122.558 58.7123L122.261 58.4151L121.964 58.118L120.77 59.3115L119.577 60.505L118.735 59.6631L117.893 58.8213L119.186 57.5284L120.479 56.2355L120.132 55.8889L119.786 55.5422L118.145 57.1833L116.504 58.8243L119.326 61.6468ZM125.547 49.9664C124.598 51.7393 125.229 53.7788 127.147 55.1415C128.22 55.9036 129.228 56.0983 130.313 55.7532C131.036 55.5234 131.219 55.397 132.021 54.5772C133.247 53.3247 133.353 53.1128 132.982 52.6614C132.723 52.3469 132.668 52.3319 132.573 52.551C132.513 52.6901 132.149 53.1667 131.765 53.6097C130.924 54.5795 130.107 54.9667 129.165 54.842C127.657 54.6422 126.019 52.7911 126.094 51.3713C126.144 50.4032 127.064 49.1897 128.133 48.6804C128.427 48.5405 128.665 48.4102 128.662 48.3906C128.635 48.2057 128.43 47.6767 128.356 47.6028C128.105 47.3519 125.996 49.1261 125.547 49.9664ZM131.568 44.4497L131.916 44.7982L132.861 43.8533L133.806 42.9085L136.282 45.3844L138.758 47.8604L139.106 47.5123L139.454 47.1642L136.982 44.692L134.51 42.2197L135.401 41.2714L136.293 40.3229L135.996 40.0258L135.698 39.7287L133.459 41.9149L131.219 44.1011L131.568 44.4497ZM142.201 38.7721L145.024 41.5947L145.372 41.2466L145.72 40.8985L142.897 38.0759L140.075 35.2534L139.727 35.6015L139.379 35.9496L142.201 38.7721ZM156.628 24.3574L159.457 27.1863L159.749 26.8319L160.042 26.4777L157.781 24.2317C156.538 22.9963 155.529 21.9782 155.538 21.9692C155.547 21.9603 157.287 22.2702 159.405 22.6581L163.255 23.3633L163.637 22.981L164.02 22.5988L161.191 19.77L158.362 16.9411L158.07 17.2954L157.778 17.6496L160.031 19.9027C161.27 21.1419 162.278 22.1617 162.271 22.1689C162.263 22.1762 160.525 21.8641 158.408 21.4757L154.559 20.7693L154.179 21.149L153.8 21.5286L156.628 24.3574ZM48.5259 128.573C49.1971 128.312 49.8671 128.383 50.5944 128.794C52.1345 129.664 52.8538 131.289 52.2845 132.613C52.1598 132.903 51.7226 133.539 51.3134 134.026L50.5693 134.912L48.3146 132.657L46.0598 130.402L47 129.602C47.5171 129.162 48.2036 128.699 48.5259 128.573ZM57.3774 119.722C58.0486 119.46 58.7186 119.532 59.4459 119.943C60.986 120.813 61.7053 122.438 61.136 123.761C61.0113 124.051 60.5741 124.687 60.1649 125.174L59.4208 126.06L57.1661 123.806L54.9113 121.551L55.8515 120.75C56.3686 120.31 57.0552 119.847 57.3774 119.722ZM66.3505 110.377C67.6439 109.79 69.5015 110.762 70.4532 112.522C71.0362 113.601 70.8576 114.576 69.904 115.522C68.639 116.776 67.149 116.68 65.7211 115.252C64.6907 114.222 64.3439 113.163 64.7148 112.179C64.9631 111.521 65.7575 110.645 66.3505 110.377ZM87.454 89.5882C88.4915 89.2551 89.5968 90.5506 89.118 91.5384C89.0036 91.7747 88.6327 92.3017 88.294 92.7095L87.6781 93.451L86.5134 92.2862L85.3486 91.1214L86.1911 90.4223C86.6545 90.0378 87.2228 89.6625 87.454 89.5882ZM104.307 72.8439C105.282 72.7107 105.906 72.9914 106.944 74.0291C107.98 75.065 108.263 75.6913 108.13 76.6593C108.066 77.1305 107.915 77.4182 107.462 77.9323C106.725 78.7697 106.112 79.0815 105.303 79.0306C104.532 78.9822 103.905 78.6454 103.116 77.8569C101.565 76.3055 101.514 74.9348 102.958 73.6045C103.567 73.0428 103.797 72.9137 104.307 72.8439ZM148.696 28.2309C149.043 28.1098 149.564 28.0662 149.854 28.134C150.938 28.3878 152.584 30.0305 152.837 31.1113C153.109 32.2726 152.083 33.8024 150.757 34.2136C149.762 34.5224 148.891 34.2038 147.83 33.143C146.769 32.0822 146.451 31.2114 146.76 30.2161C147.029 29.3482 147.82 28.537 148.696 28.2309ZM95.2558 81.7486C95.7642 81.5858 95.9867 81.6696 96.5551 82.2379C96.9123 82.5952 96.9755 82.7606 96.9342 83.2291C96.89 83.7306 96.7992 83.8769 96.0966 84.5795L95.3086 85.3675L94.3182 84.3771L93.3278 83.3868L94.0787 82.6359C94.5432 82.1714 94.9921 81.833 95.2558 81.7486Z" fill="#226582"/>
<path fill-rule="evenodd" clip-rule="evenodd" d="M10.8861 147.484C10.2171 148.802 10.1267 149.919 10.5723 151.365C10.7823 152.047 10.922 152.25 11.751 153.08C12.6349 153.964 12.7495 154.038 13.6602 154.307C14.7285 154.622 15.752 154.58 16.8403 154.176C17.819 153.813 19.1081 152.521 19.4908 151.52C20.4276 149.069 19.1817 146.249 16.763 145.347C15.7035 144.952 14.3108 144.952 13.3192 145.348C12.4553 145.693 11.2652 146.738 10.8861 147.484ZM25.3491 133.103C24.734 134.4 24.6719 135.459 25.1242 136.933C25.2993 137.504 25.4792 137.762 26.2231 138.508C26.981 139.269 27.2345 139.445 27.9355 139.697C28.9831 140.074 30.2018 140.072 31.2511 139.69C31.9456 139.438 32.2071 139.258 32.9158 138.541C33.6245 137.824 33.8027 137.559 34.0503 136.853C34.4736 135.646 34.3777 134.156 33.8069 133.072C33.244 132.003 32.8279 131.586 31.759 131.024C30.7 130.466 29.1859 130.359 28.0253 130.759C26.9474 131.131 25.8134 132.124 25.3491 133.103ZM22.4146 144.204C21.7091 145.381 21.5528 146.843 21.9835 148.238C22.2035 148.951 22.333 149.14 23.1723 149.977C23.9529 150.756 24.2319 150.957 24.8012 151.148C25.9096 151.522 26.9 151.523 27.9797 151.153C28.8656 150.85 29.0618 150.723 29.8183 149.967C30.5441 149.241 30.7065 148.999 30.9543 148.277C31.3288 147.186 31.267 145.598 30.8141 144.665C29.7351 142.444 27.1233 141.386 24.8582 142.252C23.8828 142.624 22.8829 143.424 22.4146 144.204ZM64.3519 111C63.7808 111.746 63.6106 112.163 63.5582 112.944C63.4879 113.992 63.9289 114.937 64.9816 115.992C66.8639 117.879 68.6908 117.922 70.495 116.122C71.5385 115.081 71.898 114.097 71.6687 112.91C71.3145 111.076 69.2938 109.248 67.5561 109.192C66.4985 109.157 65.2034 109.888 64.3519 111ZM101.737 73.61C100.919 74.6646 100.728 75.8851 101.191 77.0942C101.465 77.8105 103.177 79.507 103.897 79.7765C105.358 80.3238 106.622 79.9915 107.89 78.7266C108.582 78.0367 108.737 77.8018 108.952 77.1222C109.446 75.5572 108.689 73.7615 107.055 72.6186C105.216 71.3321 103.215 71.7049 101.737 73.61ZM146.376 28.9673C145.54 30.0606 145.426 31.4513 146.071 32.6969C146.23 33.0044 146.7 33.5378 147.277 34.0654C148.073 34.7933 148.349 34.9669 149.021 35.1629C150.344 35.5488 151.402 35.2165 152.57 34.0482C153.485 33.1333 153.782 32.4969 153.787 31.4395C153.792 30.1923 153.383 29.3904 152.191 28.3147C151.144 27.3691 150.466 27.0947 149.323 27.1551C148.222 27.2132 147.271 27.7984 146.376 28.9673ZM44.8679 130.711C44.9103 130.807 46.1594 132.075 47.644 133.531L50.343 136.177L51.6332 134.868C52.7915 133.694 52.9533 133.479 53.2154 132.771C53.8081 131.17 53.5166 130.012 52.187 128.688C51.4439 127.947 51.2437 127.817 50.5052 127.596C48.9386 127.127 47.6627 127.666 45.7059 129.623C45.0599 130.269 44.8136 130.589 44.8679 130.711ZM53.7195 121.86C53.7618 121.955 55.0109 123.224 56.4955 124.679L59.1945 127.325L60.4774 126.022C61.9933 124.483 62.3718 123.745 62.321 122.427C62.2808 121.386 61.9655 120.762 60.9865 119.787C60.2984 119.102 60.0794 118.962 59.355 118.745C57.7909 118.275 56.5139 118.815 54.5574 120.771C53.9114 121.417 53.6651 121.737 53.7195 121.86ZM72.3719 103.34C71.9789 104.382 72.3768 105.296 73.4276 105.764C74.1516 106.087 74.684 106.02 75.9385 105.45C76.4495 105.218 77.0628 104.977 77.3014 104.915C78.2395 104.672 79.055 105.581 78.6911 106.463C78.4432 107.064 77.4982 108.01 76.7339 108.422C76.0773 108.776 76.0355 108.86 76.357 109.181C76.7475 109.572 77.098 109.413 78.2594 108.321C79.2333 107.404 79.3695 107.227 79.5644 106.622C79.9693 105.362 79.3861 104.166 78.2321 103.888C77.6839 103.757 77.2154 103.877 75.4939 104.592C74.3178 105.081 74.0374 105.071 73.4894 104.523C73.1956 104.229 73.1566 104.08 73.2618 103.649C73.4131 103.03 74.0449 102.354 74.9054 101.89C75.4652 101.589 75.5033 101.544 75.4251 101.284C75.3788 101.13 75.2781 100.941 75.2014 100.865C74.8236 100.487 72.7709 102.283 72.3719 103.34ZM86.8909 94.0555L89.7271 96.8916L90.0751 96.5435L90.4232 96.1955L89.3485 95.1207L88.2737 94.046L88.9971 93.2023C89.395 92.7383 89.8316 92.1004 89.9674 91.7848C90.4316 90.7054 90.0502 89.4684 89.0598 88.8428C87.9814 88.1614 87.0332 88.4755 85.2723 90.0977L84.0547 91.2193L86.8909 94.0555ZM92.0015 83.551C92.0483 83.6565 93.3012 84.9336 94.7857 86.3889L97.4848 89.0349L97.8329 88.6868L98.181 88.3387L97.0405 87.1421L95.9 85.9455L96.4959 85.4089L97.0917 84.8723L98.94 85.3018C100.778 85.7291 100.791 85.7294 101.231 85.3499C101.474 85.1401 101.647 84.9423 101.615 84.9104C101.583 84.8785 100.67 84.6561 99.5866 84.4161C98.1547 84.0991 97.6417 83.9287 97.7099 83.7928C97.7615 83.6898 97.8164 83.2624 97.8319 82.8428C97.8574 82.1505 97.8098 82.0221 97.3177 81.4555C96.8623 80.9312 96.6821 80.8129 96.1947 80.7183C95.2517 80.5351 94.6486 80.8286 93.1884 82.1809C92.1605 83.133 91.9326 83.3958 92.0015 83.551ZM108.696 67.3261L109.042 67.6727L109.936 66.7793L110.829 65.886L113.307 68.3105L115.785 70.7351L116.188 70.3929L116.592 70.0507L114.11 67.5688L111.628 65.0869L112.523 64.1918L113.418 63.2967L113.072 62.9501L112.725 62.6034L110.537 64.7915L108.349 66.9795L108.696 67.3261ZM119.327 61.6467L122.149 64.4693L123.79 62.8282L125.431 61.1872L125.085 60.8406L124.738 60.494L123.445 61.7869L122.152 63.0798L121.162 62.0894L120.172 61.0991L121.365 59.9056L122.559 58.7122L122.261 58.415L121.964 58.1179L120.771 59.3114L119.577 60.5048L118.736 59.663L117.894 58.8212L119.187 57.5283L120.48 56.2354L120.133 55.8888L119.786 55.5421L118.145 57.1831L116.504 58.8241L119.327 61.6467ZM125.547 49.9663C124.599 51.7392 125.229 53.7787 127.148 55.1413C128.221 55.9035 129.229 56.0982 130.314 55.7531C131.036 55.5233 131.22 55.3969 132.022 54.5771C133.247 53.3246 133.354 53.1127 132.982 52.6613C132.723 52.3468 132.668 52.3318 132.573 52.5509C132.513 52.69 132.149 53.1665 131.765 53.6096C130.924 54.5794 130.107 54.9666 129.165 54.8418C127.658 54.6421 126.02 52.791 126.094 51.3712C126.145 50.4031 127.065 49.1896 128.134 48.6803C128.427 48.5404 128.665 48.4101 128.662 48.3905C128.636 48.2056 128.43 47.6766 128.356 47.6027C128.106 47.3518 125.997 49.126 125.547 49.9663ZM131.568 44.4495L131.917 44.798L132.862 43.8532L133.807 42.9084L136.283 45.3843L138.758 47.8603L139.107 47.5121L139.455 47.1641L136.982 44.6919L134.51 42.2196L135.402 41.2713L136.293 40.3228L135.996 40.0257L135.699 39.7285L133.459 41.9148L131.22 44.101L131.568 44.4495ZM142.202 38.772L145.024 41.5946L145.372 41.2465L145.72 40.8984L142.898 38.0758L140.075 35.2533L139.727 35.6014L139.379 35.9495L142.202 38.772ZM156.629 24.3573L159.458 27.1861L159.75 26.8318L160.042 26.4776L157.782 24.2316C156.539 22.9962 155.529 21.9781 155.538 21.9691C155.547 21.9602 157.287 22.2701 159.405 22.658L163.256 23.3632L163.638 22.9808L164.02 22.5986L161.191 19.7698L158.362 16.9409L158.07 17.2953L157.778 17.6495L160.031 19.9026C161.27 21.1418 162.278 22.1615 162.271 22.1688C162.264 22.1761 160.526 21.864 158.409 21.4756L154.559 20.7692L154.18 21.1488L153.8 21.5285L156.629 24.3573ZM48.5264 128.573C49.1976 128.312 49.8676 128.383 50.5949 128.794C52.135 129.664 52.8543 131.289 52.285 132.613C52.1603 132.903 51.7231 133.539 51.3139 134.026L50.5698 134.912L48.3151 132.657L46.0603 130.402L47.0005 129.602C47.5176 129.162 48.2042 128.699 48.5264 128.573ZM57.3779 119.722C58.0491 119.46 58.7191 119.532 59.4464 119.943C60.9865 120.812 61.7058 122.438 61.1365 123.761C61.0118 124.051 60.5746 124.687 60.1654 125.174L59.4213 126.06L57.1666 123.805L54.9118 121.551L55.852 120.75C56.3691 120.31 57.0557 119.847 57.3779 119.722ZM66.351 110.377C67.6444 109.79 69.502 110.762 70.4537 112.522C71.0367 113.601 70.8581 114.576 69.9045 115.521C68.6395 116.776 67.1495 116.68 65.7216 115.252C64.6912 114.221 64.3444 113.162 64.7153 112.179C64.9636 111.521 65.758 110.645 66.351 110.377ZM87.4545 89.5881C88.492 89.255 89.5973 90.5505 89.1185 91.5383C89.0041 91.7746 88.6332 92.3016 88.2945 92.7094L87.6786 93.4508L86.5139 92.2861L85.3491 91.1213L86.1916 90.4222C86.655 90.0377 87.2233 89.6624 87.4545 89.5881ZM104.308 72.8438C105.283 72.7106 105.907 72.9913 106.945 74.029C107.981 75.0649 108.263 75.6911 108.131 76.6592C108.066 77.1304 107.915 77.418 107.462 77.9322C106.725 78.7696 106.112 79.0813 105.304 79.0304C104.533 78.982 103.905 78.6453 103.117 77.8568C101.565 76.3054 101.514 74.9347 102.958 73.6044C103.568 73.0427 103.797 72.9136 104.308 72.8438ZM148.696 28.2308C149.043 28.1096 149.564 28.0661 149.855 28.1339C150.939 28.3877 152.585 30.0304 152.838 31.1112C153.11 32.2725 152.084 33.8023 150.758 34.2135C149.762 34.5223 148.892 34.2036 147.831 33.1428C146.77 32.0821 146.451 31.2113 146.76 30.216C147.029 29.3481 147.82 28.5369 148.696 28.2308ZM95.2563 81.7485C95.7648 81.5857 95.9872 81.6695 96.5556 82.2378C96.9128 82.5951 96.976 82.7605 96.9347 83.229C96.8905 83.7305 96.7997 83.8768 96.0971 84.5794L95.3091 85.3674L94.3187 84.377L93.3284 83.3866L94.0792 82.6358C94.5437 82.1713 94.9926 81.8329 95.2563 81.7485Z" fill="#42C7FF"/>
</svg>
