<svg width="26" height="26" viewBox="0 0 26 26" fill="none" xmlns="http://www.w3.org/2000/svg">
<path d="M12.999 26C5.81896 26 -0.000976562 20.1801 -0.000976562 13C-0.000976562 5.81994 5.81896 0 12.999 0C20.1791 0 25.999 5.81994 25.999 13C25.999 20.1801 20.1791 26 12.999 26ZM9.84327 11.7032L12.999 8.5475L16.1564 11.7049L17.9926 9.86862L12.999 4.875L8.00702 9.867L9.84327 11.7032ZM4.87402 13L6.71027 14.8363L8.54652 13L6.71027 11.1637L4.87402 13ZM9.84327 14.2968L8.00459 16.1306L8.00702 16.133L12.999 21.125L17.9926 16.1314V16.1306L16.1564 14.2943L12.999 17.4525L9.84327 14.2968ZM17.4515 13L19.2878 14.8363L21.124 13L19.2878 11.1637L17.4515 13ZM14.8613 12.9984H14.8621L12.999 11.1361L11.6218 12.5125L11.4634 12.6709L11.1376 12.9976L11.1343 13L11.1376 13.0024L12.9982 14.8639L14.8621 13.0008L14.8629 13L14.8613 12.9992V12.9984Z" fill="#6F6F6F"/>
</svg>
