<svg width="26" height="26" viewBox="0 0 26 26" fill="none" xmlns="http://www.w3.org/2000/svg">
<path d="M12.999 0C20.1791 0 25.999 5.81994 25.999 13C25.999 20.1801 20.1791 26 12.999 26C5.81896 26 -0.000976562 20.1801 -0.000976562 13C-0.000976562 5.81994 5.81896 0 12.999 0ZM20.0726 15.8576H8.40027C8.27408 15.8574 8.15292 15.9071 8.06309 15.9957L5.75721 18.2829C5.72374 18.3159 5.70089 18.3583 5.6916 18.4044C5.68231 18.4505 5.68699 18.4984 5.70505 18.5418C5.72312 18.5853 5.75373 18.6223 5.79299 18.6483C5.83224 18.6743 5.87834 18.6879 5.9254 18.6875H17.5978C17.724 18.6876 17.8451 18.638 17.935 18.5494L20.2408 16.2614C20.274 16.2283 20.2966 16.186 20.3058 16.14C20.3149 16.094 20.3101 16.0464 20.2921 16.0031C20.2741 15.9598 20.2436 15.9229 20.2045 15.8969C20.1654 15.871 20.1195 15.8573 20.0726 15.8576ZM17.5978 11.5578H5.9254L5.87015 11.5635C5.82894 11.573 5.79102 11.5933 5.76034 11.6224C5.72967 11.6515 5.70736 11.6883 5.69574 11.729C5.68412 11.7696 5.68362 11.8127 5.69429 11.8536C5.70496 11.8945 5.72641 11.9318 5.7564 11.9616L8.0639 14.2496L8.12077 14.2984C8.20202 14.3552 8.29952 14.3878 8.40027 14.3878H20.0726L20.1279 14.3821C20.1691 14.3726 20.207 14.3522 20.2377 14.3231C20.2684 14.294 20.2907 14.2572 20.3023 14.2166C20.3139 14.1759 20.3144 14.1329 20.3038 14.092C20.2931 14.0511 20.2716 14.0137 20.2416 13.9839L17.9341 11.6959L17.8773 11.6472C17.7957 11.5889 17.698 11.5577 17.5978 11.5578ZM20.0726 7.3125H8.40027C8.27408 7.31236 8.15292 7.362 8.06309 7.45062L5.75721 9.73862C5.72402 9.77174 5.70142 9.81398 5.69229 9.85997C5.68316 9.90596 5.68792 9.95363 5.70594 9.99691C5.72397 10.0402 5.75446 10.0771 5.79354 10.1031C5.83261 10.129 5.87851 10.1427 5.9254 10.1424H17.5978C17.724 10.1426 17.8451 10.0929 17.935 10.0043L20.2408 7.71712C20.2743 7.68405 20.2972 7.64174 20.3064 7.59561C20.3157 7.54948 20.3111 7.50163 20.293 7.45818C20.2749 7.41473 20.2443 7.37765 20.2051 7.3517C20.1658 7.32575 20.1197 7.3121 20.0726 7.3125Z" fill="#6F6F6F"/>
</svg>
