<svg width="26" height="26" viewBox="0 0 26 26" fill="none" xmlns="http://www.w3.org/2000/svg">
<path d="M25.9548 10.5863C25.819 9.71868 25.0721 9.13936 24.0527 9.13936H23.1012C22.4901 9.06728 22.3543 9.28441 22.3543 9.79076V17.3165C22.3543 18.6193 21.1312 19.9942 19.7044 20.2834C15.2194 21.369 10.7353 22.3817 6.25126 23.4674C5.77508 23.6124 5.23187 23.6124 4.68866 23.6124C4.48409 23.6124 4.14458 23.4674 4.07668 23.2503C4.00878 23.1052 4.21248 22.816 4.34828 22.6718C4.55286 22.5268 4.82446 22.3817 5.09607 22.2376C5.91175 21.9475 6.79446 21.6591 7.61015 21.369C10.939 20.2113 14.2688 19.0536 17.5977 17.8229C19.0924 17.3165 19.9081 16.2309 19.9081 14.856C19.976 10.5142 19.9081 6.09952 19.9081 1.75866C19.9081 1.0343 19.5686 0.455871 18.8208 0.165768C17.9372 -0.195525 17.1224 0.0945775 16.3746 0.455871C11.6189 2.84254 6.93114 5.23188 2.17458 7.61944C0.815684 8.34381 0 9.35649 0 10.8034V23.1782C0 23.3953 5.83734e-08 23.6124 0.0679012 23.7566C0.544079 25.1315 1.7663 26 3.39767 26H23.3058C24.0527 26 24.6638 25.8558 25.2079 25.3486C25.8869 24.7702 25.8869 23.9737 25.8869 23.2503V11.1656C26.0235 11.0935 26.0235 10.8034 25.9548 10.5872V10.5863ZM12.0942 9.2853C12.4337 8.34469 13.1815 7.76538 14.2688 7.62122C15.0157 7.54825 15.6268 7.98251 15.7635 8.70688C15.8993 9.79165 14.6762 11.0944 13.3852 11.0944C12.3667 11.0944 11.7547 10.298 12.0942 9.2853Z" fill="#6F6F6F"/>
</svg>
