<svg width="25" height="26" viewBox="0 0 25 26" fill="none" xmlns="http://www.w3.org/2000/svg">
<path d="M19.8359 16.3621C20.349 16.509 20.5696 16.9977 20.5696 17.242C20.6431 17.6333 20.496 17.8281 20.2754 17.8281C20.0557 17.8281 19.7624 17.682 19.4691 17.3403C19.1749 16.9977 19.0279 16.6551 19.1749 16.4603C19.3955 16.3621 19.6161 16.3134 19.8359 16.3621ZM16.8833 18.5718C17.1472 18.5718 17.4764 18.6651 17.8057 18.8508C18.3326 19.1752 18.5303 19.5467 18.2664 19.8248C18.1349 19.9652 17.8057 20.0576 17.5418 20.0576C17.2125 20.0576 16.8833 19.9652 16.6856 19.8257C16.1586 19.5004 16.0271 19.0365 16.3563 18.7575C16.4217 18.6651 16.6202 18.5718 16.8833 18.5718Z" fill="#6F6F6F"/>
<path d="M11.3987 23.1347C5.09316 23.1347 0 17.9526 0 11.5975C0 5.24322 5.09316 0 11.3987 0C17.7043 0 22.7975 5.18049 22.7975 11.5967C22.7975 13.756 22.1913 15.7924 21.2207 17.5201C21.1602 17.5811 21.0998 17.5811 21.0998 17.4581C20.6749 14.6203 18.978 13.0775 16.5524 12.5839C16.3097 12.5228 16.3097 12.399 16.6128 12.399C17.4012 12.3371 18.4323 12.3371 19.0385 12.4609C19.0989 12.1522 19.0989 11.8435 19.0989 11.5967C19.0989 7.40176 15.7035 3.94728 11.5809 3.94728C7.45755 3.94728 4.06211 7.40176 4.06211 11.5967C4.06211 15.7924 7.45755 19.2469 11.5809 19.2469H11.9445C11.8228 18.5684 11.7623 17.8899 11.8228 17.1503C11.8228 16.6558 11.9445 16.5939 12.1267 16.9645C13.1569 18.8152 14.6724 20.4198 17.5834 21.0984C19.9478 21.6531 22.3122 22.2705 24.92 25.5401C25.1627 25.8488 24.7983 26.1567 24.5557 25.9107C21.9494 23.5664 19.5842 22.7641 17.4012 22.7641C14.6724 22.8252 13.036 23.1339 11.3987 23.1339V23.1347Z" fill="#6F6F6F"/>
</svg>
