<svg width="23" height="23" viewBox="0 0 23 23" fill="none" xmlns="http://www.w3.org/2000/svg">
<path d="M7.15209 8.10931C7.93766 9.7455 9.00856 11.279 10.3648 12.6352C11.721 13.9914 13.2545 15.0623 14.8907 15.8479C15.0314 15.9155 15.1018 15.9493 15.1908 15.9752C15.5073 16.0675 15.8958 16.0012 16.1638 15.8093C16.2392 15.7553 16.3038 15.6908 16.4328 15.5618C16.8274 15.1672 17.0247 14.9699 17.2231 14.8409C17.9713 14.3544 18.9359 14.3544 19.6841 14.8409C19.8825 14.9699 20.0798 15.1672 20.4744 15.5618L20.6943 15.7817C21.2941 16.3816 21.5941 16.6815 21.757 17.0036C22.081 17.6442 22.081 18.4007 21.757 19.0413C21.5941 19.3635 21.2941 19.6634 20.6943 20.2632L20.5164 20.4411C19.9186 21.0389 19.6197 21.3378 19.2133 21.5661C18.7624 21.8194 18.0621 22.0015 17.5449 22C17.0788 21.9986 16.7602 21.9082 16.1231 21.7274C12.6993 20.7556 9.46859 18.922 6.77328 16.2267C4.07796 13.5314 2.24441 10.3007 1.27264 6.87686C1.09181 6.23977 1.0014 5.92122 1.00001 5.45513C0.99847 4.93794 1.1806 4.23759 1.4339 3.78666C1.66218 3.3803 1.96107 3.0814 2.55886 2.48362L2.73678 2.30569C3.33662 1.70585 3.63654 1.40593 3.95865 1.24301C4.59926 0.918996 5.35579 0.918996 5.99639 1.24301C6.3185 1.40593 6.61842 1.70585 7.21826 2.30569L7.43821 2.52564C7.83281 2.92024 8.03011 3.11754 8.15911 3.31594C8.64557 4.06415 8.64557 5.02872 8.15911 5.77692C8.03011 5.97532 7.83281 6.17262 7.43821 6.56722C7.30919 6.69625 7.24468 6.76076 7.19068 6.83617C6.99879 7.10416 6.93253 7.49272 7.02477 7.80916C7.05073 7.8982 7.08451 7.96857 7.15209 8.10931Z" stroke="#F5F5F5" stroke-width="2" stroke-linecap="round" stroke-linejoin="round"/>
</svg>
