<svg width="33" height="26" viewBox="0 0 33 26" fill="none" xmlns="http://www.w3.org/2000/svg">
<path d="M26.9333 11.5668C26.9333 11.5668 27.3685 13.726 27.4665 14.1783H25.5536L26.4703 11.6535C26.459 11.6713 26.659 11.1249 26.7735 10.7886L26.9333 11.5668ZM33 2.78594V23.2141C32.9997 23.9529 32.7099 24.6613 32.1942 25.1837C31.6785 25.7061 30.9791 25.9997 30.2497 26H2.75026C2.02093 25.9997 1.32155 25.7061 0.805834 25.1837C0.290119 24.6613 0.000273311 23.9529 0 23.2141V2.78594C0.000273311 2.04715 0.290119 1.33869 0.805834 0.816288C1.32155 0.293884 2.02093 0.000276857 2.75026 0H30.2497C30.9791 0.000276857 31.6785 0.293884 32.1942 0.816288C32.7099 1.33869 32.9997 2.04715 33 2.78594ZM8.73751 17.3643L12.3581 8.35781H9.92341L7.67226 14.5094L7.4258 13.2622L6.62351 9.11828C6.49152 8.54375 6.08522 8.38079 5.58095 8.35781H1.87475L1.83454 8.53748C2.68331 8.74841 3.49747 9.08266 4.25171 9.52985L6.3028 17.3643H8.73751ZM14.1462 17.3758L15.59 8.35781H13.2872L11.8497 17.3758H14.1462ZM22.1609 14.428C22.1722 13.4011 21.5535 12.6177 20.2304 11.9732C19.423 11.5605 18.9301 11.2827 18.9301 10.8586C18.9414 10.4752 19.3487 10.0804 20.2531 10.0804C20.8422 10.0635 21.4275 10.1806 21.966 10.423L22.1722 10.5212L22.4878 8.57091C21.8294 8.31562 21.1302 8.18565 20.4253 8.18754C18.1505 8.18754 16.5521 9.41808 16.5407 11.1699C16.5232 12.4641 17.6864 13.1838 18.5578 13.6184C19.4457 14.0592 19.7499 14.3496 19.7499 14.7382C19.7385 15.342 19.028 15.6198 18.3691 15.6198C17.4523 15.6198 16.9594 15.4746 16.2087 15.1383L15.9055 14.9931L15.5848 17.0186C16.1231 17.2682 17.1203 17.4886 18.1515 17.5001C20.5687 17.5053 22.1444 16.2926 22.1619 14.4248L22.1609 14.428ZM30.2497 17.3758L28.3936 8.35781H26.6116C26.062 8.35781 25.6433 8.52077 25.4082 9.10679L21.9876 17.3769H24.4048C24.4048 17.3769 24.7998 16.2623 24.8864 16.0252H27.8429C27.912 16.3448 28.1182 17.3769 28.1182 17.3769L30.2497 17.3758Z" fill="#6F6F6F"/>
</svg>
