<svg width="36" height="36" viewBox="0 0 36 36" fill="none" xmlns="http://www.w3.org/2000/svg">
<path fill-rule="evenodd" clip-rule="evenodd" d="M6 0C2.68629 0 0 2.68629 0 6V30C0 33.3137 2.68629 36 6 36H30C33.3137 36 36 33.3137 36 30V6C36 2.68629 33.3137 0 30 0H6ZM5.97525 12H8.81907C9.54595 12 9.81902 12.2682 10.0921 12.9316C11.4834 16.3428 13.8292 19.3249 14.7928 19.3249C15.1556 19.3249 15.3207 19.1848 15.3207 18.4108V14.8846C15.2556 13.8808 14.839 13.4466 14.5305 13.125C14.34 12.9265 14.1907 12.7709 14.1907 12.5507C14.1907 12.2824 14.4625 12 14.9137 12H19.3843C19.9876 12 20.197 12.2715 20.197 12.8802V17.6248C20.197 18.1316 20.4583 18.3101 20.6391 18.3101C21.0006 18.3101 21.3022 18.1316 21.9654 17.5733C24.0147 15.6455 25.4607 12.6776 25.4607 12.6776C25.6414 12.3219 25.9756 12 26.6986 12H29.5424C30.4033 12 30.5853 12.3733 30.4033 12.8802C30.0418 14.276 26.5764 18.3856 26.5764 18.3856C26.2747 18.7917 26.1538 18.9943 26.5764 19.4508C26.7255 19.6267 27.0437 19.8892 27.4075 20.1894C27.7796 20.4964 28.1993 20.8428 28.5347 21.1761C29.757 22.3332 30.6776 23.3097 30.9338 23.9819C31.1691 24.6573 30.7621 25 29.9494 25H27.1043C26.3426 25 25.9594 24.6409 25.1306 23.8642C24.7794 23.5351 24.3481 23.131 23.7742 22.6474C22.085 21.2779 21.3634 21.1005 20.9408 21.1005C20.3686 21.1005 20.197 21.2374 20.197 21.9216V24.0695C20.197 24.6573 19.9733 25 18.1645 25C15.1517 25 11.8397 23.4597 9.49004 20.6178C5.96354 16.4578 5 13.3115 5 12.6776C5 12.3219 5.16254 12 5.97525 12Z" fill="#F5F5F5"/>
</svg>
