<svg width="126" height="21" viewBox="0 0 126 21" fill="none" xmlns="http://www.w3.org/2000/svg">
<path fill-rule="evenodd" clip-rule="evenodd" d="M1.85734 0.655022C1.1738 0.913326 0.441438 1.63001 0.178621 2.29788C-0.096159 2.99597 -0.0514109 3.97044 0.283889 4.58917C0.725167 5.40355 1.37113 5.89698 2.29064 6.12201C4.43988 6.64796 6.44025 4.7322 5.89423 2.67086C5.7389 2.08448 5.28779 1.37637 4.88993 1.09464C4.28419 0.665633 3.86817 0.527441 3.0969 0.49892C2.48603 0.476425 2.25183 0.50588 1.85734 0.655022ZM69.7316 1.27672C68.1744 1.60598 66.9572 2.38964 66.2344 3.52811C65.6948 4.37789 65.5227 5.09669 65.5227 6.49907C65.5227 7.87573 65.6126 8.34098 66.0601 9.28006C66.6175 10.4497 67.7744 11.3293 69.1657 11.6411C69.5675 11.7312 70.1696 11.7769 70.9283 11.7749C72.1775 11.7716 72.8939 11.6896 74.0957 11.4124L74.871 11.2336V8.52679V5.81999H72.5642H70.2573L70.2824 6.7325L70.3076 7.64501L71.3931 7.66886L72.4786 7.69272V8.74597V9.79913L72.0785 9.8566C71.8585 9.88826 71.2893 9.89912 70.8137 9.88079C70.0486 9.85142 69.8927 9.81755 69.4636 9.58734C68.4436 9.04043 68.006 8.02377 68.0642 6.33643C68.094 5.47451 68.1295 5.28734 68.3522 4.81988C68.7245 4.03903 69.4514 3.41895 70.2759 3.17907C71.126 2.93171 72.3083 2.98171 73.3097 3.30733C73.6938 3.43219 74.0291 3.5141 74.0547 3.48949C74.0805 3.46479 74.2725 3.07186 74.4813 2.61628L74.8611 1.78798L74.5781 1.67296C74.4225 1.60972 73.996 1.48095 73.6305 1.3869C72.7506 1.16034 70.5728 1.0988 69.7316 1.27672ZM105.74 1.31933C103.916 1.77737 102.773 2.87051 102.276 4.63161C102.056 5.40924 102.057 7.50894 102.277 8.27554C102.766 9.98214 103.957 11.1631 105.621 11.5928C106.678 11.8659 108.587 11.8395 109.562 11.5384C111.384 10.9756 112.509 9.68793 112.85 7.77234C113.015 6.84735 112.975 5.51976 112.755 4.65326C112.309 2.89156 111.034 1.68858 109.19 1.28936C108.295 1.09574 106.571 1.11068 105.74 1.31933ZM24.7787 1.29098C24.7452 1.32315 24.7178 3.67309 24.7178 6.51325V11.677H25.8371H26.9564L26.9163 7.71199C26.8943 5.53122 26.8966 3.80271 26.9214 3.87096C26.9463 3.93912 27.5495 5.71389 28.2619 7.81478L29.5571 11.6346H30.6919H31.8267L33.2313 7.77234C34.0038 5.6481 34.6518 3.87189 34.6713 3.82521C34.6907 3.77852 34.6861 5.52604 34.661 7.70868L34.6154 11.677H35.7807H36.9459V6.45476V1.23249L35.291 1.25558L33.6359 1.27867L32.2354 5.14092C31.4651 7.26515 30.8203 9.04136 30.8025 9.08805C30.7847 9.13474 30.156 7.39673 29.4054 5.2258L28.0406 1.27867L26.4402 1.25558C25.56 1.24293 24.8123 1.25881 24.7787 1.29098ZM41.4379 1.29047C41.4041 1.32289 41.3764 3.67309 41.3764 6.51325V11.677H42.6177H43.8588L43.8361 6.47785L43.8132 1.27867L42.6563 1.25507C42.0201 1.24217 41.4718 1.25804 41.4379 1.29047ZM47.1745 1.3476C47.1496 1.40965 47.1408 1.83976 47.1549 2.30331L47.1804 3.14613L48.7089 3.16939L50.2374 3.19256V7.43484V11.677H51.478H52.7185V7.43484V3.19256L54.247 3.16939L55.7756 3.14613V2.2124V1.27867L51.4977 1.2566C48.0025 1.2386 47.2115 1.25524 47.1745 1.3476ZM59.1599 1.29047C59.1261 1.32289 59.0984 3.67309 59.0984 6.51325V11.677H60.3397H61.5809L61.5581 6.47785L61.5352 1.27867L60.3783 1.25507C59.7421 1.24217 59.1938 1.25804 59.1599 1.29047ZM79.7452 6.34857C78.6571 9.16249 77.7489 11.5126 77.7272 11.5709C77.6966 11.6528 77.9904 11.677 79.0116 11.677H80.3356L80.7531 10.4462L81.1706 9.21538H83.2338H85.2971L85.6958 10.425L86.0946 11.6346L87.3944 11.6581C88.4028 11.6763 88.694 11.6573 88.6933 11.5732C88.6928 11.5136 87.801 9.17293 86.7115 6.37174L84.7308 1.27867L83.2272 1.2555L81.7236 1.23232L79.7452 6.34857ZM90.6436 2.2124V3.18857H92.1943H93.745V7.43518V11.6818L94.9634 11.6582L96.1817 11.6346L96.2047 7.41158L96.2277 3.18857H97.7332H99.2388V2.2124V1.23623H94.9412H90.6436V2.2124ZM116.939 1.28232C116.902 1.31924 116.872 3.67309 116.872 6.51325V11.677H118.113H119.353V9.68224V7.68745H119.965H120.577L121.936 9.67978L123.296 11.6722L124.648 11.6746C125.391 11.6759 125.999 11.6613 125.999 11.6421C125.999 11.623 125.262 10.6203 124.362 9.41392C123.462 8.20763 122.724 7.20141 122.723 7.17798C122.722 7.15455 122.905 7.04165 123.131 6.92706C123.67 6.65263 124.248 6.09078 124.506 5.58826C124.685 5.24091 124.714 5.05671 124.714 4.29207C124.713 3.49144 124.689 3.35758 124.478 2.97636C124.036 2.17896 123.266 1.68629 122.079 1.4408C121.374 1.29488 117.058 1.16195 116.939 1.28232ZM84.3885 6.43541L84.6903 7.34792H83.227C81.957 7.34792 81.7705 7.33094 81.8151 7.21949C81.8617 7.10302 82.9055 3.9769 83.1302 3.28084C83.2213 2.99852 83.2347 3.02356 83.6552 4.25701C83.8926 4.95324 84.2226 5.93357 84.3885 6.43541ZM108.968 3.31361C109.227 3.449 109.557 3.71486 109.702 3.90432C110.688 5.1882 110.578 8.1797 109.507 9.20536C108.967 9.72239 108.337 9.91839 107.343 9.87816C106.647 9.84997 106.478 9.81127 106.06 9.5853C105.493 9.27853 105.067 8.73629 104.845 8.03811C104.632 7.36956 104.635 5.54234 104.851 4.8748C105.281 3.54237 106.118 2.99571 107.657 3.04215C108.39 3.06422 108.559 3.09919 108.968 3.31361ZM121.372 3.27796C121.573 3.33559 121.842 3.48754 121.97 3.61571C122.396 4.04183 122.375 4.94899 121.93 5.37588C121.614 5.67866 121.212 5.79037 120.173 5.86447L119.353 5.92287V4.5008V3.07873L120.18 3.12601C120.635 3.15199 121.171 3.2204 121.372 3.27796ZM8.50256 4.17391C7.19645 4.62838 6.39896 5.7728 6.47995 7.07654C6.54676 8.1533 7.1688 9.0367 8.20093 9.52037C8.64274 9.7274 8.83166 9.76517 9.43208 9.76602C10.025 9.76696 10.2287 9.72808 10.6731 9.52928C12.04 8.91769 12.7363 7.5339 12.3554 6.18576C12.2055 5.6554 11.8151 5.05162 11.3897 4.69256C10.7281 4.13402 9.33594 3.88395 8.50256 4.17391ZM2.14754 7.72022C1.26241 7.9983 0.724636 8.43817 0.279016 9.24874C0.0689215 9.63089 0.0406549 9.77782 0.0403005 10.4886C0.0398574 11.2467 0.0581111 11.3273 0.344144 11.8327C0.67971 12.4255 1.15439 12.8461 1.81915 13.1394C2.41691 13.4032 3.56671 13.4021 4.18317 13.137C5.69238 12.4881 6.39329 10.7459 5.71763 9.32284C5.42168 8.69945 4.80114 8.10271 4.18317 7.84729C3.64478 7.62481 2.64907 7.56267 2.14754 7.72022ZM14.9972 7.75502C14.1453 8.04737 13.6459 8.4745 13.1906 9.30026C13.0145 9.61968 12.9798 9.80736 12.9784 10.4462C12.9772 11.097 13.0117 11.2811 13.2116 11.6896C13.5104 12.3001 14.0544 12.8213 14.6917 13.1075C15.1136 13.297 15.3105 13.3317 15.9454 13.3283C16.5802 13.325 16.7778 13.2877 17.2027 13.0911C17.9292 12.7551 18.5501 12.0755 18.7788 11.3663C19.0043 10.667 19.0043 10.3103 18.7788 9.61102C18.5555 8.91828 17.9288 8.22333 17.2335 7.89746C16.5877 7.59485 15.6401 7.53449 14.9972 7.75502ZM8.74438 11.2551C7.90613 11.4568 7.18502 12.0166 6.75552 12.7989C6.53604 13.1986 6.50936 13.3352 6.51016 14.0538C6.51096 14.7221 6.54596 14.9276 6.71414 15.2537C7.04165 15.8887 7.48221 16.3138 8.12792 16.618C8.65771 16.8676 8.80153 16.8974 9.4755 16.8974C10.1222 16.8974 10.3021 16.8635 10.7342 16.6603C11.3871 16.3531 12.0673 15.6459 12.2809 15.0522C12.7896 13.6379 12.0976 12.065 10.7029 11.4654C10.1022 11.2072 9.30085 11.1211 8.74438 11.2551ZM2.2108 14.864C1.3582 15.0916 0.707623 15.6062 0.283889 16.3881C0.109062 16.7107 0.0448196 16.9754 0.0161099 17.4916C-0.0359042 18.4276 0.195191 19.0122 0.874564 19.663C1.55385 20.3137 2.16402 20.5351 3.14121 20.4855C3.86054 20.4489 4.30838 20.2945 4.88993 19.8827C5.28779 19.6009 5.7389 18.8928 5.89423 18.3064C6.44521 16.2263 4.37067 14.2876 2.2108 14.864ZM42.2182 14.9976C41.6315 15.0726 41.3699 15.1783 40.9987 15.4906C40.5004 15.9097 40.2761 16.5035 40.275 17.4067C40.2731 19.0219 41.0678 19.8232 42.6733 19.8251C43.6019 19.8262 44.2001 19.5588 44.6267 18.9519C45.2864 18.0137 45.2001 16.3648 44.4513 15.5957C43.9956 15.1277 43.093 14.8859 42.2182 14.9976ZM75.5291 14.9957C74.6948 15.0969 74.0658 15.5379 73.7335 16.2546C73.5367 16.6792 73.5433 18.1396 73.744 18.5636C74.1513 19.4246 74.8623 19.8238 75.9907 19.8251C76.6061 19.8259 76.78 19.7917 77.1783 19.5924C78.0955 19.1335 78.5585 18.0398 78.3398 16.8497C78.0934 15.5102 77.0362 14.8127 75.5291 14.9957ZM115.302 14.9941C114.442 15.1041 113.772 15.6512 113.504 16.4613C113.438 16.6613 113.41 17.0914 113.432 17.5648C113.462 18.2178 113.508 18.4104 113.72 18.7825C114.138 19.5148 114.757 19.8259 115.798 19.8259C116.613 19.8259 117.029 19.6804 117.502 19.2291C118.06 18.697 118.235 18.1778 118.183 17.2064C118.138 16.3525 117.958 15.944 117.422 15.48C116.906 15.0334 116.221 14.8765 115.302 14.9941ZM24.7578 15.0949C24.7341 15.154 24.7254 16.233 24.7384 17.4929L24.7621 19.7835L25.9196 19.7758C26.9588 19.7688 27.1264 19.7462 27.5589 19.5549C28.5362 19.1227 28.9219 18.5017 28.9197 17.3643C28.9184 16.7287 28.8871 16.5872 28.6566 16.1759C28.1678 15.3035 27.3594 14.9875 25.616 14.9875C25.0405 14.9875 24.7882 15.0191 24.7578 15.0949ZM32.6441 15.0949C32.6204 15.154 32.6117 16.233 32.6247 17.4929L32.6483 19.7835L33.8003 19.7749C35.1613 19.7648 35.6588 19.6107 36.2233 19.024C36.6691 18.5607 36.8065 18.1584 36.8045 17.3212C36.8032 16.7327 36.7679 16.5789 36.5421 16.1752C36.0546 15.3036 35.2454 14.9875 33.5023 14.9875C32.9268 14.9875 32.6745 15.0191 32.6441 15.0949ZM49.2032 15.152C48.5639 15.4301 48.3341 15.9923 48.5936 16.6433C48.7724 17.0918 49.0393 17.2914 49.8523 17.5845C50.1835 17.7039 50.5639 17.8636 50.6978 17.9393C51.224 18.2371 51.1825 18.9761 50.6271 19.1985C50.249 19.3497 49.4067 19.35 48.8828 19.199C48.4326 19.0692 48.3766 19.0873 48.3766 19.3628C48.3766 19.6975 48.6034 19.7798 49.6074 19.8093C50.4494 19.8341 50.5891 19.8164 50.9456 19.6405C51.6869 19.2745 51.9602 18.5117 51.5697 17.8982C51.3842 17.6068 51.1219 17.4577 50.0364 17.0264C49.2947 16.7318 49.1741 16.6075 49.1741 16.1378C49.1741 15.886 49.2235 15.8051 49.4621 15.6657C49.8054 15.4652 50.388 15.4462 50.9779 15.6163C51.3616 15.7269 51.3984 15.7242 51.4793 15.5793C51.5273 15.4934 51.5666 15.3693 51.5666 15.3036C51.5666 14.9798 49.852 14.8699 49.2032 15.152ZM59.8073 17.3951V19.8259H60.1175H60.4276V18.9048V17.9836L61.1257 17.9321C61.5096 17.9037 61.9883 17.8175 62.1893 17.7404C62.877 17.4768 63.2581 16.7832 63.0956 16.0907C62.9188 15.3365 62.3565 15.0648 60.8494 15.0054L59.8073 14.9642V17.3951ZM66.7635 15.0835C66.7373 15.1488 66.7265 16.233 66.7395 17.4929L66.7632 19.7835H67.0733H67.3835L67.4085 18.782L67.4335 17.7804L67.938 17.8058L68.4425 17.8312L69.0745 18.8073C69.7031 19.7783 69.7084 19.7837 70.0735 19.8096C70.2754 19.824 70.4405 19.8133 70.4405 19.786C70.4405 19.7586 70.133 19.2722 69.7571 18.7049C69.2604 17.9553 69.1078 17.6625 69.1987 17.6335C69.2676 17.6115 69.4825 17.4518 69.6763 17.2786C69.9961 16.9929 70.032 16.9175 70.0653 16.4638C70.0959 16.0439 70.0684 15.916 69.8934 15.6666C69.5549 15.184 69.1555 15.0513 67.9026 15.005C67.0205 14.9725 66.8019 14.9875 66.7635 15.0835ZM81.4282 15.2846V15.5817H82.2242H83.0201L83.0438 17.6826L83.0675 19.7835L83.3997 19.8098L83.732 19.8362V17.7089V15.5817H84.5295H85.327V15.2846V14.9875H83.3776H81.4282V15.2846ZM88.6942 17.4067V19.8259H90.1563H91.6183V19.5289V19.2318H90.4664H89.3145V18.3829V17.5341H90.3778H91.4411V17.2794V17.0248H90.3778H89.3145V16.3032V15.5817H90.4664H91.6183V15.2846V14.9875H90.1563H88.6942V17.4067ZM96.6686 15.0668C95.4562 15.4201 94.8287 16.5644 95.0762 17.9705C95.2147 18.7569 95.577 19.2723 96.214 19.5894C96.6383 19.8006 96.7763 19.825 97.4988 19.8175C98.6027 19.8059 98.7445 19.7607 98.7801 19.408C98.8049 19.1622 98.787 19.1322 98.6471 19.1855C98.5583 19.2193 98.1841 19.2677 97.8155 19.2929C97.0088 19.348 96.4725 19.1639 96.1085 18.7068C95.5258 17.9751 95.6208 16.4799 96.2863 15.9033C96.7402 15.5101 97.6905 15.3842 98.3936 15.6241C98.5867 15.6899 98.7507 15.736 98.7582 15.7264C98.8287 15.6358 98.973 15.3211 98.973 15.2578C98.973 15.0428 97.2432 14.8994 96.6686 15.0668ZM101.808 15.283V15.5817H102.65H103.492V17.7038V19.8259H103.802H104.112V17.7071V15.5881L104.932 15.5637L105.752 15.5393V15.2846V15.03L103.78 15.0071L101.808 14.9843V15.283ZM109.075 17.4067V19.8259H109.385H109.695V17.4067V14.9875H109.385H109.075V17.4067ZM121.923 17.4121V19.8367L122.211 19.8101L122.499 19.7835L122.493 17.8524C122.489 16.7903 122.493 15.9213 122.501 15.9213C122.509 15.9213 123.146 16.7998 123.917 17.8736L125.318 19.8259H125.658H125.999V17.4014V14.9767L125.711 15.0034L125.423 15.03V16.9611C125.423 18.0233 125.418 18.8922 125.411 18.8922C125.405 18.8922 124.77 18.0137 124 16.9399L122.599 14.9875H122.261H121.923V17.4121ZM27.3399 15.7466C27.7554 15.9222 28.022 16.2399 28.163 16.7277C28.4616 17.7605 28.0581 18.7651 27.2149 19.0884C27.03 19.1593 26.552 19.2445 26.1527 19.2778L25.4266 19.3385V17.4061V15.4735L26.202 15.5334C26.6284 15.5664 27.1404 15.6623 27.3399 15.7466ZM35.2262 15.7466C35.6417 15.9222 35.9083 16.2399 36.0493 16.7277C36.3479 17.7605 35.9444 18.7651 35.1012 19.0884C34.9163 19.1593 34.4383 19.2445 34.039 19.2778L33.3129 19.3385V17.4061V15.4735L34.0883 15.5334C34.5147 15.5664 35.0267 15.6623 35.2262 15.7466ZM43.3866 15.5872C44.2239 15.8902 44.6187 17.1026 44.2584 18.2648C44.0376 18.9769 43.5238 19.3182 42.6777 19.3148C41.5554 19.3102 40.9344 18.6305 40.9344 17.4067C40.9344 16.5235 41.2517 15.9211 41.855 15.6585C42.2588 15.4829 43.0027 15.4482 43.3866 15.5872ZM62.0485 15.7221C62.6591 16.024 62.5744 17.0529 61.921 17.271C61.7648 17.3232 61.3648 17.3901 61.0323 17.4197L60.4276 17.4735V16.4752V15.4769L61.1143 15.5383C61.4921 15.5721 61.9124 15.6549 62.0485 15.7221ZM77.0156 15.7689C77.509 16.1295 77.6622 16.5173 77.6622 17.4067C77.6622 18.2946 77.509 18.6841 77.0188 19.0422C76.7802 19.2166 76.5848 19.2751 76.154 19.3014C75.4525 19.3442 75.0406 19.2152 74.7031 18.8469C74.3812 18.4957 74.2517 18.0826 74.2517 17.4067C74.2517 16.077 74.8396 15.4677 76.0755 15.5164C76.5972 15.537 76.7569 15.5799 77.0156 15.7689ZM116.664 15.6726C116.872 15.7693 117.124 15.9741 117.223 16.1275C117.593 16.7009 117.594 18.1103 117.225 18.6819C116.829 19.296 115.691 19.512 114.917 19.1199C114.336 18.8257 114.09 18.3159 114.09 17.4067C114.09 16.4975 114.336 15.9878 114.917 15.6936C115.423 15.437 116.137 15.4284 116.664 15.6726ZM69.0164 15.7059C69.3154 15.854 69.3772 15.9853 69.3772 16.4724C69.3772 16.7786 69.3317 16.8765 69.1046 17.0596C68.8615 17.2556 68.7559 17.2794 68.1298 17.2794H67.4278V16.4306V15.5817H68.0968C68.5106 15.5817 68.8613 15.6291 69.0164 15.7059Z" fill="#226582"/>
</svg>
