<svg width="161" height="141" viewBox="0 0 161 141" fill="none" xmlns="http://www.w3.org/2000/svg">
<g opacity="0.3">
<g filter="url(#filter0_i_1164_30732)">
<path d="M149.86 70.8233C149.86 86.6998 144.681 101.509 136.005 113.25C131.214 119.654 125.516 125.257 118.912 129.66C108.294 136.864 95.4744 141 81.7485 141C44.1964 141 13.6367 109.647 13.6367 70.8233C13.6367 32.1327 44.0669 0.646484 81.7485 0.646484C95.4744 0.646484 108.164 4.78238 118.912 11.9868C125.516 16.3896 131.214 21.993 136.005 28.397C144.681 40.271 149.86 54.9468 149.86 70.8233Z" fill="url(#paint0_linear_1164_30732)" fill-opacity="0.6"/>
</g>
<path d="M118.635 129.244L118.631 129.246C108.095 136.395 95.3728 140.5 81.7485 140.5C44.4859 140.5 14.1367 109.385 14.1367 70.8233C14.1367 32.394 44.3576 1.14648 81.7485 1.14648C95.3713 1.14648 107.965 5.25066 118.634 12.4022L118.635 12.4029C125.185 16.7699 130.842 22.3312 135.603 28.6941C144.218 40.4857 149.36 55.0581 149.36 70.8233C149.36 86.5906 144.216 101.296 135.603 112.952C130.842 119.315 125.185 124.877 118.635 129.244Z" stroke="#3482FC" stroke-opacity="0.6"/>
</g>
<path d="M39.6367 56.0001V47.0001H122.637V56.0001H39.6367Z" stroke="#3482FC" stroke-width="2"/>
<path d="M124.632 46.0001H38.5302C37.1363 46.0001 35.6367 44.4844 35.6367 42.3032V20.6971C35.6367 18.5158 37.1363 17.0001 38.5302 17.0001H124.743C126.137 17.0001 127.637 18.5158 127.637 20.6971V42.2816C127.532 44.6203 126.135 46.0001 124.632 46.0001Z" stroke="#3482FC" stroke-width="2"/>
<mask id="path-5-inside-1_1164_30732" fill="white">
<path d="M47.4562 16.0001H125.28C127.093 16.0001 128.517 17.4677 128.517 19.3355V43.6172C128.517 45.4851 127.093 46.9526 125.28 46.9526H37.874C36.0611 46.9526 34.6367 45.4851 34.6367 43.6172V19.3355C34.6367 17.4677 36.0611 16.0001 37.874 16.0001H40.0753"/>
</mask>
<path d="M47.4562 18.0001H125.28V14.0001H47.4562V18.0001ZM125.28 18.0001C125.932 18.0001 126.517 18.5155 126.517 19.3355H130.517C130.517 16.4199 128.253 14.0001 125.28 14.0001V18.0001ZM126.517 19.3355V43.6172H130.517V19.3355H126.517ZM126.517 43.6172C126.517 44.4372 125.932 44.9526 125.28 44.9526V48.9526C128.253 48.9526 130.517 46.5329 130.517 43.6172H126.517ZM125.28 44.9526H37.874V48.9526H125.28V44.9526ZM37.874 44.9526C37.2216 44.9526 36.6367 44.4372 36.6367 43.6172H32.6367C32.6367 46.5329 34.9007 48.9526 37.874 48.9526V44.9526ZM36.6367 43.6172V19.3355H32.6367V43.6172H36.6367ZM36.6367 19.3355C36.6367 18.5155 37.2216 18.0001 37.874 18.0001V14.0001C34.9007 14.0001 32.6367 16.4199 32.6367 19.3355H36.6367ZM37.874 18.0001H40.0753V14.0001H37.874V18.0001Z" fill="#3482FC" mask="url(#path-5-inside-1_1164_30732)"/>
<path d="M72.522 23.8134C73.099 24.4079 73.099 25.3717 72.522 25.9661C71.945 26.5606 71.0096 26.5606 70.4326 25.9661C69.8556 25.3717 69.8556 24.4079 70.4326 23.8134C71.0096 23.2189 71.945 23.2189 72.522 23.8134Z" stroke="#F5F5F5"/>
<path d="M72.5405 29.6757C73.1175 30.2702 73.1175 31.234 72.5405 31.8285C71.9635 32.4229 71.0281 32.4229 70.4511 31.8285C69.8741 31.234 69.8741 30.2702 70.4511 29.6757C71.0281 29.0812 71.9635 29.0812 72.5405 29.6757Z" stroke="#F5F5F5"/>
<path d="M72.4673 35.4437C73.0442 36.0382 73.0442 37.0021 72.4673 37.5965C71.8903 38.191 70.9548 38.191 70.3779 37.5965C69.8009 37.0021 69.8009 36.0382 70.3779 35.4437C70.9548 34.8493 71.8903 34.8493 72.4673 35.4437Z" stroke="#F5F5F5"/>
<path d="M78.2221 26.9921C78.7991 27.5866 78.7991 28.5504 78.2221 29.1449C77.6452 29.7394 76.7097 29.7394 76.1327 29.1449C75.5558 28.5504 75.5558 27.5866 76.1327 26.9921C76.7097 26.3976 77.6452 26.3976 78.2221 26.9921Z" stroke="#F5F5F5"/>
<path d="M78.1489 32.76C78.7259 33.3545 78.7259 34.3183 78.1489 34.9128C77.5719 35.5073 76.6365 35.5073 76.0595 34.9128C75.4825 34.3183 75.4825 33.3545 76.0595 32.76C76.6365 32.1656 77.5719 32.1656 78.1489 32.76Z" stroke="#F5F5F5"/>
<path d="M83.8101 23.8695C84.3871 24.464 84.3871 25.4278 83.8101 26.0223C83.2331 26.6168 82.2977 26.6168 81.7207 26.0223C81.1437 25.4278 81.1437 24.464 81.7207 23.8695C82.2977 23.2751 83.2331 23.2751 83.8101 23.8695Z" stroke="#F5F5F5"/>
<path d="M83.8287 29.7321C84.4056 30.3266 84.4056 31.2904 83.8287 31.8848C83.2517 32.4793 82.3162 32.4793 81.7392 31.8848C81.1623 31.2904 81.1623 30.3266 81.7392 29.7321C82.3162 29.1376 83.2517 29.1376 83.8287 29.7321Z" stroke="#F5F5F5"/>
<path d="M83.8657 37.1915C83.8657 38.0341 83.2065 38.6915 82.4245 38.6915C81.6426 38.6915 80.9834 38.0341 80.9834 37.1915C80.9834 36.3489 81.6426 35.6915 82.4245 35.6915C83.2065 35.6915 83.8657 36.3489 83.8657 37.1915Z" stroke="#3482FC"/>
<path d="M89.5103 27.0485C90.0873 27.643 90.0873 28.6068 89.5103 29.2013C88.9333 29.7957 87.9979 29.7957 87.4209 29.2013C86.8439 28.6068 86.8439 27.643 87.4209 27.0485C87.9979 26.454 88.9333 26.454 89.5103 27.0485Z" stroke="#F5F5F5"/>
<path d="M89.437 32.8164C90.0139 33.4109 90.0139 34.3747 89.437 34.9692C88.86 35.5637 87.9246 35.5637 87.3476 34.9692C86.7706 34.3747 86.7706 33.4109 87.3476 32.8164C87.9246 32.2219 88.86 32.2219 89.437 32.8164Z" stroke="#F5F5F5"/>
<path d="M95.1899 23.8319C95.7669 24.4264 95.7669 25.3902 95.1899 25.9847C94.6129 26.5792 93.6775 26.5792 93.1005 25.9847C92.5236 25.3902 92.5236 24.4264 93.1005 23.8319C93.6775 23.2375 94.6129 23.2375 95.1899 23.8319Z" stroke="#F5F5F5"/>
<path d="M95.2085 29.6943C95.7855 30.2887 95.7855 31.2525 95.2085 31.847C94.6316 32.4415 93.6961 32.4415 93.1191 31.847C92.5421 31.2525 92.5421 30.2887 93.1191 29.6943C93.6961 29.0998 94.6316 29.0998 95.2085 29.6943Z" stroke="#F5F5F5"/>
<path d="M95.1352 35.4623C95.7122 36.0568 95.7122 37.0206 95.1352 37.6151C94.5583 38.2096 93.6228 38.2096 93.0458 37.6151C92.4689 37.0206 92.4689 36.0568 93.0458 35.4623C93.6228 34.8678 94.5583 34.8678 95.1352 35.4623Z" stroke="#F5F5F5"/>
<path d="M100.89 27.0106C101.467 27.6051 101.467 28.569 100.89 29.1634C100.313 29.7579 99.3777 29.7579 98.8007 29.1634C98.2237 28.569 98.2237 27.6051 98.8007 27.0106C99.3777 26.4162 100.313 26.4162 100.89 27.0106Z" stroke="#F5F5F5"/>
<path d="M100.817 32.7786C101.394 33.3731 101.394 34.3369 100.817 34.9314C100.24 35.5259 99.3044 35.5259 98.7275 34.9314C98.1505 34.3369 98.1505 33.3731 98.7275 32.7786C99.3044 32.1841 100.24 32.1841 100.817 32.7786Z" stroke="#F5F5F5"/>
<path d="M106.57 23.7941C107.147 24.3886 107.147 25.3524 106.57 25.9469C105.993 26.5413 105.057 26.5413 104.48 25.9469C103.903 25.3524 103.903 24.3886 104.48 23.7941C105.057 23.1996 105.993 23.1996 106.57 23.7941Z" stroke="#F5F5F5"/>
<path d="M106.588 29.6564C107.165 30.2509 107.165 31.2147 106.588 31.8092C106.011 32.4037 105.076 32.4037 104.499 31.8092C103.922 31.2147 103.922 30.2509 104.499 29.6564C105.076 29.0619 106.011 29.0619 106.588 29.6564Z" stroke="#F5F5F5"/>
<path d="M106.515 35.4245C107.092 36.0189 107.092 36.9828 106.515 37.5773C105.938 38.1717 105.003 38.1717 104.426 37.5773C103.849 36.9828 103.849 36.0189 104.426 35.4245C105.003 34.83 105.938 34.83 106.515 35.4245Z" stroke="#F5F5F5"/>
<path d="M112.178 27.0672C112.755 27.6616 112.755 28.6255 112.178 29.2199C111.601 29.8144 110.666 29.8144 110.089 29.2199C109.512 28.6255 109.512 27.6616 110.089 27.0672C110.666 26.4727 111.601 26.4727 112.178 27.0672Z" stroke="#F5F5F5"/>
<path d="M112.105 32.835C112.682 33.4295 112.682 34.3933 112.105 34.9878C111.528 35.5823 110.593 35.5823 110.016 34.9878C109.439 34.3933 109.439 33.4295 110.016 32.835C110.593 32.2405 111.528 32.2405 112.105 32.835Z" stroke="#F5F5F5"/>
<path d="M117.858 23.8505C118.435 24.445 118.435 25.4088 117.858 26.0033C117.281 26.5977 116.346 26.5977 115.769 26.0033C115.192 25.4088 115.192 24.445 115.769 23.8505C116.346 23.256 117.281 23.256 117.858 23.8505Z" stroke="#F5F5F5"/>
<path d="M117.877 29.7128C118.453 30.3073 118.453 31.2711 117.877 31.8656C117.3 32.46 116.364 32.46 115.787 31.8656C115.21 31.2711 115.21 30.3073 115.787 29.7128C116.364 29.1183 117.3 29.1183 117.877 29.7128Z" stroke="#F5F5F5"/>
<path d="M117.803 35.481C118.38 36.0755 118.38 37.0393 117.803 37.6338C117.226 38.2282 116.291 38.2282 115.714 37.6338C115.137 37.0393 115.137 36.0755 115.714 35.481C116.291 34.8865 117.226 34.8865 117.803 35.481Z" stroke="#F5F5F5"/>
<path d="M51.6825 38.0967L51.6068 38.1103L51.534 38.1352C51.3152 38.2104 51.2016 38.2144 50.8229 38.2144C48.023 38.2144 45.6074 35.8751 45.6074 32.8105C45.6074 29.8518 47.9202 27.4065 50.8229 27.4065C51.2016 27.4065 51.3152 27.4105 51.534 27.4857L51.6276 27.5178L51.7257 27.531C54.1586 27.858 56.0385 30.0582 56.0385 32.8105C56.0385 35.5267 54.1856 37.6482 51.6825 38.0967Z" stroke="#3482FC" stroke-width="2"/>
<path d="M39.6367 95.0001V86.0001H122.637V95.0001H39.6367Z" stroke="#3482FC" stroke-width="2"/>
<path d="M124.632 85.0001H38.5302C37.1363 85.0001 35.6367 83.4844 35.6367 81.3032V59.6971C35.6367 57.5158 37.1363 56.0001 38.5302 56.0001H124.743C126.137 56.0001 127.637 57.5158 127.637 59.6971V81.2805C127.531 83.5083 126.118 85.0001 124.632 85.0001Z" stroke="#3482FC" stroke-width="2"/>
<mask id="path-33-inside-2_1164_30732" fill="white">
<path d="M47.4562 55.3578H125.28C127.093 55.3578 128.517 56.8254 128.517 58.6932V82.9749C128.517 84.8427 127.093 86.3103 125.28 86.3103H37.874C36.0611 86.3103 34.6367 84.8427 34.6367 82.9749V58.5598C34.6367 56.6919 36.0611 55.2244 37.874 55.2244H40.0753"/>
</mask>
<path d="M47.4562 57.3578H125.28V53.3578H47.4562V57.3578ZM125.28 57.3578C125.932 57.3578 126.517 57.8732 126.517 58.6932H130.517C130.517 55.7775 128.253 53.3578 125.28 53.3578V57.3578ZM126.517 58.6932V82.9749H130.517V58.6932H126.517ZM126.517 82.9749C126.517 83.7949 125.932 84.3103 125.28 84.3103V88.3103C128.253 88.3103 130.517 85.8906 130.517 82.9749H126.517ZM125.28 84.3103H37.874V88.3103H125.28V84.3103ZM37.874 84.3103C37.2216 84.3103 36.6367 83.7949 36.6367 82.9749H32.6367C32.6367 85.8906 34.9007 88.3103 37.874 88.3103V84.3103ZM36.6367 82.9749V58.5598H32.6367V82.9749H36.6367ZM36.6367 58.5598C36.6367 57.7398 37.2216 57.2244 37.874 57.2244V53.2244C34.9007 53.2244 32.6367 55.6441 32.6367 58.5598H36.6367ZM37.874 57.2244H40.0753V53.2244H37.874V57.2244Z" fill="#3482FC" mask="url(#path-33-inside-2_1164_30732)"/>
<path d="M71.4673 63.7941C72.0442 64.3886 72.0442 65.3524 71.4673 65.9469C70.8903 66.5414 69.9548 66.5414 69.3779 65.9469C68.8009 65.3524 68.8009 64.3886 69.3779 63.7941C69.9548 63.1996 70.8903 63.1996 71.4673 63.7941Z" stroke="#F5F5F5"/>
<path d="M71.4858 69.6565C72.0628 70.251 72.0628 71.2148 71.4858 71.8093C70.9088 72.4038 69.9734 72.4038 69.3964 71.8093C68.8195 71.2148 68.8195 70.251 69.3964 69.6565C69.9734 69.062 70.9088 69.062 71.4858 69.6565Z" stroke="#F5F5F5"/>
<path d="M71.604 77.2809C71.604 78.1235 70.9448 78.7809 70.1628 78.7809C69.3809 78.7809 68.7217 78.1235 68.7217 77.2809C68.7217 76.4383 69.3809 75.7809 70.1628 75.7809C70.9448 75.7809 71.604 76.4383 71.604 77.2809Z" stroke="#3482FC"/>
<path d="M77.1666 66.9731C77.7435 67.5675 77.7435 68.5313 77.1666 69.1258C76.5896 69.7203 75.6541 69.7203 75.0771 69.1258C74.5001 68.5313 74.5001 67.5675 75.0771 66.9731C75.6541 66.3786 76.5896 66.3786 77.1666 66.9731Z" stroke="#F5F5F5"/>
<path d="M77.1851 72.8354C77.7621 73.4298 77.7621 74.3937 77.1851 74.9881C76.6081 75.5826 75.6727 75.5826 75.0957 74.9881C74.5187 74.3937 74.5187 73.4298 75.0957 72.8354C75.6727 72.2409 76.6081 72.2409 77.1851 72.8354Z" stroke="#3482FC"/>
<path d="M82.7553 63.8507C83.3323 64.4452 83.3323 65.409 82.7553 66.0035C82.1784 66.598 81.2429 66.598 80.666 66.0035C80.089 65.409 80.089 64.4452 80.666 63.8507C81.2429 63.2562 82.1784 63.2562 82.7553 63.8507Z" stroke="#F5F5F5"/>
<path d="M82.774 69.7131C83.351 70.3075 83.351 71.2713 82.774 71.8658C82.197 72.4603 81.2615 72.4603 80.6845 71.8658C80.1076 71.2713 80.1076 70.3075 80.6845 69.7131C81.2615 69.1186 82.197 69.1186 82.774 69.7131Z" stroke="#F5F5F5"/>
<path d="M82.7924 75.5756C83.3694 76.1701 83.3694 77.1339 82.7924 77.7284C82.2155 78.3229 81.28 78.3229 80.7031 77.7284C80.1261 77.1339 80.1261 76.1701 80.7031 75.5756C81.28 74.9811 82.2155 74.9811 82.7924 75.5756Z" stroke="#F5F5F5"/>
<path d="M88.4556 67.0297C89.0326 67.6242 89.0326 68.588 88.4556 69.1825C87.8786 69.7769 86.9432 69.7769 86.3662 69.1825C85.7892 68.588 85.7892 67.6242 86.3662 67.0297C86.9432 66.4352 87.8786 66.4352 88.4556 67.0297Z" stroke="#F5F5F5"/>
<path d="M88.4741 72.8917C89.0511 73.4862 89.0511 74.4501 88.4741 75.0445C87.8971 75.639 86.9617 75.639 86.3847 75.0445C85.8077 74.4501 85.8077 73.4862 86.3847 72.8917C86.9617 72.2973 87.8971 72.2973 88.4741 72.8917Z" stroke="#F5F5F5"/>
<path d="M94.1352 63.8128C94.7122 64.4072 94.7122 65.3711 94.1352 65.9656C93.5583 66.56 92.6228 66.56 92.0458 65.9656C91.4689 65.3711 91.4689 64.4072 92.0458 63.8128C92.6228 63.2183 93.5583 63.2183 94.1352 63.8128Z" stroke="#F5F5F5"/>
<path d="M94.1539 69.6752C94.7308 70.2697 94.7308 71.2335 94.1539 71.828C93.5769 72.4224 92.6414 72.4224 92.0644 71.828C91.4874 71.2335 91.4874 70.2697 92.0644 69.6752C92.6414 69.0807 93.5769 69.0807 94.1539 69.6752Z" stroke="#F5F5F5"/>
<path d="M94.1724 75.5375C94.7494 76.132 94.7494 77.0958 94.1724 77.6903C93.5954 78.2847 92.66 78.2847 92.083 77.6903C91.506 77.0958 91.506 76.132 92.083 75.5375C92.66 74.9431 93.5954 74.9431 94.1724 75.5375Z" stroke="#F5F5F5"/>
<path d="M99.8355 66.9915C100.412 67.586 100.412 68.5498 99.8355 69.1442C99.2585 69.7387 98.323 69.7387 97.7461 69.1442C97.1691 68.5498 97.1691 67.586 97.7461 66.9915C98.323 66.397 99.2585 66.397 99.8355 66.9915Z" stroke="#F5F5F5"/>
<path d="M99.8541 72.8539C100.431 73.4484 100.431 74.4122 99.8541 75.0067C99.2771 75.6011 98.3416 75.6011 97.7646 75.0067C97.1876 74.4122 97.1876 73.4484 97.7646 72.8539C98.3416 72.2595 99.2771 72.2595 99.8541 72.8539Z" stroke="#F5F5F5"/>
<path d="M105.661 65.5403C105.661 66.3829 105.001 67.0403 104.219 67.0403C103.438 67.0403 102.778 66.3829 102.778 65.5403C102.778 64.6977 103.438 64.0403 104.219 64.0403C105.001 64.0403 105.661 64.6977 105.661 65.5403Z" stroke="#3482FC"/>
<path d="M105.534 69.6371C106.111 70.2316 106.111 71.1954 105.534 71.7899C104.957 72.3844 104.021 72.3844 103.444 71.7899C102.867 71.1954 102.867 70.2316 103.444 69.6371C104.021 69.0426 104.957 69.0426 105.534 69.6371Z" stroke="#F5F5F5"/>
<path d="M105.551 75.4999C106.128 76.0944 106.128 77.0582 105.551 77.6527C104.974 78.2471 104.039 78.2471 103.462 77.6527C102.885 77.0582 102.885 76.0944 103.462 75.4999C104.039 74.9055 104.974 74.9055 105.551 75.4999Z" stroke="#F5F5F5"/>
<path d="M111.124 67.048C111.7 67.6425 111.7 68.6063 111.124 69.2008C110.547 69.7953 109.611 69.7953 109.034 69.2008C108.457 68.6063 108.457 67.6425 109.034 67.048C109.611 66.4535 110.547 66.4535 111.124 67.048Z" stroke="#F5F5F5"/>
<path d="M111.142 72.9105C111.719 73.505 111.719 74.4689 111.142 75.0633C110.565 75.6578 109.63 75.6578 109.053 75.0633C108.476 74.4689 108.476 73.505 109.053 72.9105C109.63 72.3161 110.565 72.3161 111.142 72.9105Z" stroke="#F5F5F5"/>
<path d="M116.803 63.8314C117.38 64.4259 117.38 65.3898 116.803 65.9842C116.226 66.5787 115.291 66.5787 114.714 65.9842C114.137 65.3898 114.137 64.4259 114.714 63.8314C115.291 63.237 116.226 63.237 116.803 63.8314Z" stroke="#F5F5F5"/>
<path d="M116.822 69.6938C117.399 70.2882 117.399 71.2521 116.822 71.8465C116.245 72.441 115.309 72.441 114.732 71.8465C114.155 71.2521 114.155 70.2882 114.732 69.6938C115.309 69.0993 116.245 69.0993 116.822 69.6938Z" stroke="#F5F5F5"/>
<path d="M116.84 75.556C117.417 76.1505 117.417 77.1144 116.84 77.7088C116.263 78.3033 115.328 78.3033 114.751 77.7088C114.174 77.1144 114.174 76.1505 114.751 75.556C115.328 74.9616 116.263 74.9616 116.84 75.556Z" stroke="#F5F5F5"/>
<path d="M51.6825 77.3209L51.6068 77.3345L51.534 77.3595C51.3152 77.4346 51.2016 77.4387 50.8229 77.4387C48.023 77.4387 45.6074 75.0993 45.6074 72.0347C45.6074 69.076 47.9202 66.6307 50.8229 66.6307C51.2016 66.6307 51.3152 66.6348 51.534 66.7099L51.6068 66.7349L51.6825 66.7485C54.173 67.1947 56.0385 69.439 56.0385 72.0347C56.0385 74.7509 54.1856 76.8724 51.6825 77.3209Z" stroke="#3482FC" stroke-width="2"/>
<path d="M124.632 124H38.5302C37.1085 124 35.6367 122.521 35.6367 120.455V99.5456C35.6367 97.4795 37.1085 96.0001 38.5302 96.0001H124.743C126.165 96.0001 127.637 97.4795 127.637 99.5456V120.432C127.534 122.653 126.16 124 124.632 124Z" stroke="#3482FC" stroke-width="2"/>
<mask id="path-60-inside-3_1164_30732" fill="white">
<path d="M47.4562 94.582H125.28C127.093 94.582 128.517 96.0496 128.517 97.9174V122.199C128.517 124.067 127.093 125.535 125.28 125.535H37.874C36.0611 125.535 34.6367 124.067 34.6367 122.199V97.9174C34.6367 96.0496 36.0611 94.582 37.874 94.582H40.0753"/>
</mask>
<path d="M47.4562 96.582H125.28V92.582H47.4562V96.582ZM125.28 96.582C125.932 96.582 126.517 97.0974 126.517 97.9174H130.517C130.517 95.0018 128.253 92.582 125.28 92.582V96.582ZM126.517 97.9174V122.199H130.517V97.9174H126.517ZM126.517 122.199C126.517 123.019 125.932 123.535 125.28 123.535V127.535C128.253 127.535 130.517 125.115 130.517 122.199H126.517ZM125.28 123.535H37.874V127.535H125.28V123.535ZM37.874 123.535C37.2216 123.535 36.6367 123.019 36.6367 122.199H32.6367C32.6367 125.115 34.9007 127.535 37.874 127.535V123.535ZM36.6367 122.199V97.9174H32.6367V122.199H36.6367ZM36.6367 97.9174C36.6367 97.0974 37.2216 96.582 37.874 96.582V92.582C34.9007 92.582 32.6367 95.0018 32.6367 97.9174H36.6367ZM37.874 96.582H40.0753V92.582H37.874V96.582Z" fill="#3482FC" mask="url(#path-60-inside-3_1164_30732)"/>
<path d="M71.4673 102.813C72.0442 103.408 72.0442 104.372 71.4673 104.966C70.8903 105.561 69.9548 105.561 69.3779 104.966C68.8009 104.372 68.8009 103.408 69.3779 102.813C69.9548 102.219 70.8903 102.219 71.4673 102.813Z" stroke="#F5F5F5"/>
<path d="M71.4858 108.676C72.0628 109.27 72.0628 110.234 71.4858 110.828C70.9088 111.423 69.9734 111.423 69.3964 110.828C68.8195 110.234 68.8195 109.27 69.3964 108.676C69.9734 108.081 70.9088 108.081 71.4858 108.676Z" stroke="#F5F5F5"/>
<path d="M71.5044 114.538C72.0814 115.132 72.0814 116.096 71.5044 116.691C70.9275 117.285 69.992 117.285 69.415 116.691C68.838 116.096 68.838 115.132 69.415 114.538C69.992 113.944 70.9275 113.944 71.5044 114.538Z" stroke="#F5F5F5"/>
<path d="M77.27 107.775C77.27 108.618 76.6108 109.275 75.8288 109.275C75.0469 109.275 74.3877 108.618 74.3877 107.775C74.3877 106.933 75.0469 106.275 75.8288 106.275C76.6108 106.275 77.27 106.933 77.27 107.775Z" stroke="#3482FC"/>
<path d="M77.1851 111.854C77.7621 112.449 77.7621 113.413 77.1851 114.007C76.6081 114.602 75.6727 114.602 75.0957 114.007C74.5187 113.413 74.5187 112.449 75.0957 111.854C75.6727 111.26 76.6081 111.26 77.1851 111.854Z" stroke="#F5F5F5"/>
<path d="M82.7553 102.87C83.3323 103.464 83.3323 104.428 82.7553 105.023C82.1784 105.617 81.2429 105.617 80.666 105.023C80.089 104.428 80.089 103.464 80.666 102.87C81.2429 102.275 82.1784 102.275 82.7553 102.87Z" stroke="#F5F5F5"/>
<path d="M82.774 108.732C83.351 109.327 83.351 110.29 82.774 110.885C82.197 111.479 81.2615 111.479 80.6845 110.885C80.1076 110.29 80.1076 109.327 80.6845 108.732C81.2615 108.138 82.197 108.138 82.774 108.732Z" stroke="#F5F5F5"/>
<path d="M82.7924 114.595C83.3694 115.189 83.3694 116.153 82.7924 116.747C82.2155 117.342 81.28 117.342 80.7031 116.747C80.1261 116.153 80.1261 115.189 80.7031 114.595C81.28 114 82.2155 114 82.7924 114.595Z" stroke="#F5F5F5"/>
<path d="M88.4555 106.049C89.0325 106.643 89.0325 107.607 88.4555 108.202C87.8786 108.796 86.9431 108.796 86.3661 108.202C85.7892 107.607 85.7892 106.643 86.3661 106.049C86.9431 105.454 87.8786 105.454 88.4555 106.049Z" stroke="#F5F5F5"/>
<path d="M88.4741 111.911C89.0511 112.505 89.0511 113.469 88.4741 114.064C87.8971 114.658 86.9617 114.658 86.3847 114.064C85.8077 113.469 85.8077 112.505 86.3847 111.911C86.9617 111.316 87.8971 111.316 88.4741 111.911Z" stroke="#F5F5F5"/>
<path d="M94.1353 102.832C94.7123 103.427 94.7123 104.39 94.1353 104.985C93.5583 105.579 92.6229 105.579 92.0459 104.985C91.4689 104.39 91.4689 103.427 92.0459 102.832C92.6229 102.238 93.5583 102.238 94.1353 102.832Z" stroke="#F5F5F5"/>
<path d="M94.1538 108.694C94.7307 109.289 94.7307 110.253 94.1538 110.847C93.5768 111.442 92.6414 111.442 92.0644 110.847C91.4874 110.253 91.4874 109.289 92.0644 108.694C92.6414 108.1 93.5768 108.1 94.1538 108.694Z" stroke="#F5F5F5"/>
<path d="M94.1724 114.557C94.7494 115.151 94.7494 116.115 94.1724 116.709C93.5954 117.304 92.66 117.304 92.083 116.709C91.506 116.115 91.506 115.151 92.083 114.557C92.66 113.962 93.5954 113.962 94.1724 114.557Z" stroke="#F5F5F5"/>
<path d="M99.8355 106.011C100.412 106.605 100.412 107.569 99.8355 108.163C99.2585 108.758 98.323 108.758 97.7461 108.163C97.1691 107.569 97.1691 106.605 97.7461 106.011C98.323 105.416 99.2585 105.416 99.8355 106.011Z" stroke="#F5F5F5"/>
<path d="M99.8541 111.873C100.431 112.467 100.431 113.431 99.8541 114.026C99.2771 114.62 98.3416 114.62 97.7646 114.026C97.1876 113.431 97.1876 112.467 97.7646 111.873C98.3416 111.279 99.2771 111.279 99.8541 111.873Z" stroke="#F5F5F5"/>
<path d="M105.515 102.794C106.092 103.389 106.092 104.352 105.515 104.947C104.938 105.541 104.003 105.541 103.426 104.947C102.849 104.352 102.849 103.389 103.426 102.794C104.003 102.2 104.938 102.2 105.515 102.794Z" stroke="#F5F5F5"/>
<path d="M105.534 108.656C106.111 109.251 106.111 110.214 105.534 110.809C104.957 111.403 104.021 111.403 103.444 110.809C102.867 110.214 102.867 109.251 103.444 108.656C104.021 108.062 104.957 108.062 105.534 108.656Z" stroke="#F5F5F5"/>
<path d="M105.628 116.314C105.628 117.157 104.969 117.814 104.187 117.814C103.405 117.814 102.746 117.157 102.746 116.314C102.746 115.471 103.405 114.814 104.187 114.814C104.969 114.814 105.628 115.471 105.628 116.314Z" stroke="#3482FC"/>
<path d="M111.124 106.067C111.701 106.662 111.701 107.625 111.124 108.22C110.547 108.814 109.611 108.814 109.034 108.22C108.457 107.625 108.457 106.662 109.034 106.067C109.611 105.473 110.547 105.473 111.124 106.067Z" stroke="#F5F5F5"/>
<path d="M111.142 111.93C111.719 112.524 111.719 113.488 111.142 114.082C110.565 114.677 109.63 114.677 109.053 114.082C108.476 113.488 108.476 112.524 109.053 111.93C109.63 111.335 110.565 111.335 111.142 111.93Z" stroke="#F5F5F5"/>
<path d="M116.803 102.85C117.38 103.445 117.38 104.409 116.803 105.003C116.226 105.598 115.291 105.598 114.714 105.003C114.137 104.409 114.137 103.445 114.714 102.85C115.291 102.256 116.226 102.256 116.803 102.85Z" stroke="#F5F5F5"/>
<path d="M116.822 108.713C117.399 109.307 117.399 110.271 116.822 110.866C116.245 111.46 115.309 111.46 114.732 110.866C114.155 110.271 114.155 109.307 114.732 108.713C115.309 108.118 116.245 108.118 116.822 108.713Z" stroke="#F5F5F5"/>
<path d="M116.84 114.576C117.417 115.17 117.417 116.134 116.84 116.728C116.263 117.323 115.328 117.323 114.751 116.728C114.174 116.134 114.174 115.17 114.751 114.576C115.328 113.981 116.263 113.981 116.84 114.576Z" stroke="#F5F5F5"/>
<path d="M51.6825 116.679L51.6068 116.692L51.534 116.717C51.3152 116.792 51.2016 116.796 50.8229 116.796C48.023 116.796 45.6074 114.457 45.6074 111.392C45.6074 108.434 47.9202 105.989 50.8229 105.989C51.2016 105.989 51.3152 105.993 51.534 106.068L51.6068 106.093L51.6825 106.106C54.1856 106.555 56.0385 108.676 56.0385 111.392C56.0385 114.109 54.1856 116.23 51.6825 116.679Z" stroke="#3482FC" stroke-width="2"/>
<path d="M69.9991 77.5002C69.309 75.35 74.6327 104.93 75.8273 107" stroke="#3482FC" stroke-width="2" stroke-miterlimit="10" stroke-linecap="round" stroke-linejoin="round"/>
<path d="M82.4236 38.0003C81.4656 41.6826 101.639 72.2449 104 65.5001" stroke="#3482FC" stroke-width="2" stroke-miterlimit="10" stroke-linecap="round" stroke-linejoin="round"/>
<path d="M76.0004 74.0003C72.0004 73.9025 97.1707 116.098 104 116" stroke="#3482FC" stroke-width="2" stroke-miterlimit="10" stroke-linecap="round" stroke-linejoin="round"/>
<path d="M3.82731 58.6511C5.10834 58.2338 5.80928 56.8547 5.39292 55.5708C4.97655 54.287 3.60054 53.5844 2.31951 54.0017C1.03848 54.419 0.337532 55.7981 0.753898 57.082C1.17026 58.3659 2.54628 59.0684 3.82731 58.6511Z" fill="#F5F5F5"/>
<path d="M9.15142 50.6751C10.0225 50.3913 10.4992 49.4536 10.216 48.5805C9.9329 47.7075 8.9972 47.2298 8.1261 47.5136C7.255 47.7973 6.77835 48.7351 7.06149 49.6081C7.34462 50.4811 8.28032 50.9588 9.15142 50.6751Z" fill="#F5F5F5"/>
<path d="M36.6585 10.3244C37.5745 10.3244 38.3171 9.58023 38.3171 8.66222C38.3171 7.7442 37.5745 7 36.6585 7C35.7426 7 35 7.7442 35 8.66222C35 9.58023 35.7426 10.3244 36.6585 10.3244Z" fill="#F5F5F5"/>
<path d="M157.739 36.9923C159.25 35.608 159.356 33.2578 157.974 31.743C156.593 30.2282 154.248 30.1224 152.737 31.5067C151.225 32.891 151.12 35.2412 152.501 36.756C153.882 38.2708 156.227 38.3766 157.739 36.9923Z" fill="#F5F5F5"/>
<defs>
<filter id="filter0_i_1164_30732" x="13.6367" y="0.646484" width="136.224" height="140.354" filterUnits="userSpaceOnUse" color-interpolation-filters="sRGB">
<feFlood flood-opacity="0" result="BackgroundImageFix"/>
<feBlend mode="normal" in="SourceGraphic" in2="BackgroundImageFix" result="shape"/>
<feColorMatrix in="SourceAlpha" type="matrix" values="0 0 0 0 0 0 0 0 0 0 0 0 0 0 0 0 0 0 127 0" result="hardAlpha"/>
<feOffset/>
<feGaussianBlur stdDeviation="7"/>
<feComposite in2="hardAlpha" operator="arithmetic" k2="-1" k3="1"/>
<feColorMatrix type="matrix" values="0 0 0 0 0.203922 0 0 0 0 0.509804 0 0 0 0 0.988235 0 0 0 1 0"/>
<feBlend mode="normal" in2="shape" result="effect1_innerShadow_1164_30732"/>
</filter>
<linearGradient id="paint0_linear_1164_30732" x1="22.4253" y1="0.646487" x2="149.615" y2="140.626" gradientUnits="userSpaceOnUse">
<stop stop-color="#F5F5F5" stop-opacity="0"/>
<stop offset="1" stop-color="#3482FC" stop-opacity="0.42"/>
</linearGradient>
</defs>
</svg>
