<svg width="150" height="115" viewBox="0 0 150 115" fill="none" xmlns="http://www.w3.org/2000/svg">
<path d="M79.9624 12.1304C79.9624 12.1304 79.6867 12.1304 79.9624 12.1304L76.9299 10.1826L74.1731 12.1304H73.8974H73.6217C73.346 12.1304 73.346 11.8522 73.346 11.5739L74.4488 7.95653L71.6919 5.45218C71.4163 5.45218 71.4163 5.17392 71.4163 4.89566L71.6919 4.6174L75.2758 4.33913L76.3785 1.27826C76.3785 1 76.6542 1 76.9299 1C77.2056 1 77.2056 1.27826 77.2056 1.27826L78.3083 4.33913L81.8922 4.6174C82.4436 4.89566 82.4436 5.17392 82.4436 5.17392C82.4436 5.17392 82.4436 5.45218 82.1679 5.45218L79.4111 7.95653L80.2381 11.5739C80.5138 11.8522 80.2381 11.8522 79.9624 12.1304Z" stroke="#F5F5F5" stroke-linecap="round" stroke-linejoin="round"/>
<path d="M45.2256 33C48.2581 34.3913 50.7392 36.8957 52.1177 39.9565C52.3933 37.1739 54.0474 34.6696 56.2529 33" stroke="#F5F5F5" stroke-linecap="round" stroke-linejoin="round"/>
<path d="M108.633 33C105.6 34.3913 103.119 36.8957 101.741 39.9565C101.465 37.1739 99.8109 34.6696 97.6055 33" stroke="#F5F5F5" stroke-linecap="round" stroke-linejoin="round"/>
<path d="M47.1541 43.8522C50.4622 44.1304 53.4948 45.8 55.9759 48.0261C55.4246 45.2435 55.9759 42.4608 57.63 39.9565" stroke="#F5F5F5" stroke-linecap="round" stroke-linejoin="round"/>
<path d="M106.703 22.1477C104.498 24.6521 102.844 27.7129 102.568 31.0521C101.466 28.2695 98.9844 26.5999 96.2275 25.7651" stroke="#F5F5F5" stroke-linecap="round" stroke-linejoin="round"/>
<path d="M52.668 53.5912C55.9762 52.7565 59.2844 53.0347 62.3169 54.426C60.6628 52.1999 60.3871 49.1391 60.9385 46.3564" stroke="#F5F5F5" stroke-linecap="round" stroke-linejoin="round"/>
<path d="M101.188 12.4084C99.8094 15.4693 99.5337 18.8085 100.361 22.1476C98.4309 20.1998 95.6741 19.0867 92.6416 19.365" stroke="#F5F5F5" stroke-linecap="round" stroke-linejoin="round"/>
<path d="M47.1541 22.1477C49.3595 24.6521 51.0136 27.713 51.2893 31.0521C52.392 28.2695 54.8732 26.5999 57.63 25.7651" stroke="#F5F5F5" stroke-linecap="round" stroke-linejoin="round"/>
<path d="M106.703 43.8522C103.395 44.1305 100.363 45.8 97.8816 48.0261C98.433 45.2435 97.8816 42.4609 96.2275 39.9565" stroke="#F5F5F5" stroke-linecap="round" stroke-linejoin="round"/>
<path d="M52.668 12.4084C54.0464 15.4693 54.3221 19.0867 53.4951 22.1476C55.4248 20.1998 58.1817 19.0867 61.2142 19.365" stroke="#F5F5F5" stroke-linecap="round" stroke-linejoin="round"/>
<path d="M101.192 53.5912C97.8837 52.7565 94.5755 53.0347 91.543 54.426C93.1971 52.1999 93.4727 49.1391 92.9214 46.3564" stroke="#F5F5F5" stroke-linecap="round" stroke-linejoin="round"/>
<path d="M61.2178 60.8262C63.9746 58.8784 67.2828 57.7654 70.591 58.0436C68.3855 56.3741 67.0071 53.8697 66.7314 51.0871C56.8068 45.2436 53.4986 32.4436 59.0123 22.7045C60.9421 19.6436 63.4232 16.861 66.7314 14.9132C64.2503 13.8001 61.2178 13.8001 58.7366 14.9132C60.6664 12.1305 61.4935 8.51315 61.2178 5.17401C45.7796 13.8001 40.5416 33.5567 49.0878 48.861C52.1203 53.8697 55.9798 58.0436 61.2178 60.8262Z" stroke="#F5F5F5" stroke-linecap="round" stroke-linejoin="round"/>
<path d="M92.9257 60.8262C108.088 52.2002 113.602 32.4436 104.78 17.1392C101.748 12.1305 97.888 7.95662 92.9257 5.17401C92.65 8.51315 93.4771 11.8523 95.4068 14.6349C92.9257 13.5218 89.8932 13.5218 87.412 14.6349C97.3366 20.4784 100.645 33.2784 95.1312 43.0175C93.2014 46.0784 90.7202 48.861 87.412 50.8088C87.1364 53.5915 85.758 56.3741 83.5525 58.0436C86.585 57.7654 89.8932 58.6002 92.9257 60.8262Z" stroke="#F5F5F5" stroke-linecap="round" stroke-linejoin="round"/>
<path d="M70.5869 58.0435C70.5869 58.0435 79.6844 60.8261 83.8197 65" stroke="#F5F5F5" stroke-linecap="round" stroke-linejoin="round"/>
<path d="M83.2709 58.0435C83.2709 58.0435 74.1733 60.8261 70.0381 65" stroke="#F5F5F5" stroke-linecap="round" stroke-linejoin="round"/>
<path d="M73.6338 28.7982L74.5105 30.9018L76.5781 29.9502V38.5651H79.0592V26.8782H77.4382L73.6338 28.7982Z" fill="#F5F5F5"/>
<path d="M2.016 105.848C1.152 104.96 0.72 103.844 0.72 102.5C0.72 101.156 1.152 100.04 2.016 99.152C2.88 98.264 3.948 97.82 5.22 97.82C6.696 97.82 7.866 98.348 8.73 99.404C9.102 99.872 9.372 100.394 9.54 100.97H8.1C7.968 100.646 7.77 100.346 7.506 100.07C6.93 99.47 6.168 99.17 5.22 99.17C4.344 99.17 3.612 99.482 3.024 100.106C2.448 100.73 2.16 101.528 2.16 102.5C2.16 103.472 2.46 104.27 3.06 104.894C3.66 105.518 4.38 105.83 5.22 105.83C6.204 105.83 6.99 105.5 7.578 104.84C7.842 104.564 8.046 104.234 8.19 103.85H9.63C9.474 104.462 9.198 105.02 8.802 105.524C7.89 106.628 6.696 107.18 5.22 107.18C3.948 107.18 2.88 106.736 2.016 105.848ZM12.1577 105.848C11.3177 104.948 10.8977 103.832 10.8977 102.5C10.8977 101.168 11.3177 100.058 12.1577 99.17C12.9977 98.27 14.0177 97.82 15.2177 97.82C15.9737 97.82 16.6097 97.964 17.1257 98.252C17.6537 98.54 18.0377 98.852 18.2777 99.188L18.4397 99.458H18.4577V98H19.8977V107H18.4577V105.56H18.4397L18.2777 105.812C18.0617 106.136 17.6897 106.448 17.1617 106.748C16.6337 107.036 15.9857 107.18 15.2177 107.18C14.0177 107.18 12.9977 106.736 12.1577 105.848ZM13.2017 100.106C12.6257 100.73 12.3377 101.528 12.3377 102.5C12.3377 103.472 12.6257 104.27 13.2017 104.894C13.7897 105.518 14.5217 105.83 15.3977 105.83C16.2737 105.83 16.9997 105.518 17.5757 104.894C18.1637 104.27 18.4577 103.472 18.4577 102.5C18.4577 101.528 18.1637 100.73 17.5757 100.106C16.9997 99.482 16.2737 99.17 15.3977 99.17C14.5217 99.17 13.7897 99.482 13.2017 100.106ZM22.4241 107V98H23.8641V104.75L23.8461 104.93H23.8821L28.7241 98H30.3441V107H28.9041V100.25L28.9221 100.07H28.8861L24.0441 107H22.4241ZM23.7201 94.4H25.0701C25.0701 94.724 25.1841 94.988 25.4121 95.192C25.6401 95.384 25.9761 95.48 26.4201 95.48C26.8641 95.48 27.2001 95.384 27.4281 95.192C27.6561 94.988 27.7701 94.724 27.7701 94.4H29.1201C29.1201 95.06 28.8801 95.6 28.4001 96.02C27.9201 96.44 27.2601 96.65 26.4201 96.65C25.5801 96.65 24.9201 96.44 24.4401 96.02C23.9601 95.6 23.7201 95.06 23.7201 94.4ZM31.6955 99.35V98H39.4355V99.35H36.2855V107H34.8455V99.35H31.6955ZM44.2132 107L46.9132 102.41L44.3032 98H45.9232L48.0832 101.69H48.8932L51.0532 98H52.6732L50.0632 102.41L52.7632 107H51.1432L48.8932 103.04H48.0832L45.8332 107H44.2132ZM54.7336 105.848C53.8456 104.96 53.4016 103.844 53.4016 102.5C53.4016 101.156 53.8456 100.04 54.7336 99.152C55.6216 98.264 56.7376 97.82 58.0816 97.82C59.4256 97.82 60.5416 98.264 61.4296 99.152C62.3176 100.04 62.7616 101.156 62.7616 102.5C62.7616 103.844 62.3176 104.96 61.4296 105.848C60.5416 106.736 59.4256 107.18 58.0816 107.18C56.7376 107.18 55.6216 106.736 54.7336 105.848ZM55.7596 100.106C55.1476 100.73 54.8416 101.528 54.8416 102.5C54.8416 103.472 55.1476 104.27 55.7596 104.894C56.3716 105.518 57.1456 105.83 58.0816 105.83C59.0176 105.83 59.7916 105.518 60.4036 104.894C61.0156 104.27 61.3216 103.472 61.3216 102.5C61.3216 101.528 61.0156 100.73 60.4036 100.106C59.7916 99.482 59.0176 99.17 58.0816 99.17C57.1456 99.17 56.3716 99.482 55.7596 100.106ZM65.4906 105.848C64.6266 104.96 64.1946 103.844 64.1946 102.5C64.1946 101.156 64.6266 100.04 65.4906 99.152C66.3546 98.264 67.4226 97.82 68.6946 97.82C70.1706 97.82 71.3406 98.348 72.2046 99.404C72.5766 99.872 72.8466 100.394 73.0146 100.97H71.5746C71.4426 100.646 71.2446 100.346 70.9806 100.07C70.4046 99.47 69.6426 99.17 68.6946 99.17C67.8186 99.17 67.0866 99.482 66.4986 100.106C65.9226 100.73 65.6346 101.528 65.6346 102.5C65.6346 103.472 65.9346 104.27 66.5346 104.894C67.1346 105.518 67.8546 105.83 68.6946 105.83C69.6786 105.83 70.4646 105.5 71.0526 104.84C71.3166 104.564 71.5206 104.234 71.6646 103.85H73.1046C72.9486 104.462 72.6726 105.02 72.2766 105.524C71.3646 106.628 70.1706 107.18 68.6946 107.18C67.4226 107.18 66.3546 106.736 65.4906 105.848ZM73.7423 99.35V98H81.4823V99.35H78.3323V107H76.8923V99.35H73.7423ZM82.8401 107V98H84.2801V104.75L84.2621 104.93H84.2981L89.1401 98H90.7601V107H89.3201V100.25L89.3381 100.07H89.3021L84.4601 107H82.8401ZM93.2815 107V98H94.7215V101.69H99.7615V98H101.201V107H99.7615V103.04H94.7215V107H93.2815ZM103.723 107V98H109.933V99.35H105.163V107H103.723ZM109.784 106.964C109.58 106.76 109.478 106.502 109.478 106.19C109.478 105.878 109.58 105.62 109.784 105.416C109.988 105.212 110.246 105.11 110.558 105.11C110.87 105.11 111.128 105.212 111.332 105.416C111.536 105.62 111.638 105.878 111.638 106.19C111.638 106.502 111.536 106.76 111.332 106.964C111.128 107.168 110.87 107.27 110.558 107.27C110.246 107.27 109.988 107.168 109.784 106.964ZM114.463 105.848C113.599 104.96 113.167 103.844 113.167 102.5C113.167 101.156 113.599 100.04 114.463 99.152C115.327 98.264 116.395 97.82 117.667 97.82C119.143 97.82 120.313 98.348 121.177 99.404C121.549 99.872 121.819 100.394 121.987 100.97H120.547C120.415 100.646 120.217 100.346 119.953 100.07C119.377 99.47 118.615 99.17 117.667 99.17C116.791 99.17 116.059 99.482 115.471 100.106C114.895 100.73 114.607 101.528 114.607 102.5C114.607 103.472 114.907 104.27 115.507 104.894C116.107 105.518 116.827 105.83 117.667 105.83C118.651 105.83 119.437 105.5 120.025 104.84C120.289 104.564 120.493 104.234 120.637 103.85H122.077C121.921 104.462 121.645 105.02 121.249 105.524C120.337 106.628 119.143 107.18 117.667 107.18C116.395 107.18 115.327 106.736 114.463 105.848ZM124.677 105.848C123.789 104.96 123.345 103.844 123.345 102.5C123.345 101.156 123.789 100.04 124.677 99.152C125.565 98.264 126.681 97.82 128.025 97.82C129.369 97.82 130.485 98.264 131.373 99.152C132.261 100.04 132.705 101.156 132.705 102.5C132.705 103.844 132.261 104.96 131.373 105.848C130.485 106.736 129.369 107.18 128.025 107.18C126.681 107.18 125.565 106.736 124.677 105.848ZM125.703 100.106C125.091 100.73 124.785 101.528 124.785 102.5C124.785 103.472 125.091 104.27 125.703 104.894C126.315 105.518 127.089 105.83 128.025 105.83C128.961 105.83 129.735 105.518 130.347 104.894C130.959 104.27 131.265 103.472 131.265 102.5C131.265 101.528 130.959 100.73 130.347 100.106C129.735 99.482 128.961 99.17 128.025 99.17C127.089 99.17 126.315 99.482 125.703 100.106ZM134.678 107V98H136.118V99.35H136.136C136.292 99.074 136.514 98.822 136.802 98.594C137.462 98.078 138.224 97.82 139.088 97.82C139.988 97.82 140.738 98.12 141.338 98.72C141.602 98.984 141.812 99.284 141.968 99.62H142.058C142.238 99.308 142.49 99.008 142.814 98.72C143.51 98.12 144.368 97.82 145.388 97.82C146.36 97.82 147.158 98.168 147.782 98.864C148.406 99.56 148.718 100.502 148.718 101.69V107H147.278V101.78C147.278 100.94 147.08 100.298 146.684 99.854C146.3 99.398 145.778 99.17 145.118 99.17C144.398 99.17 143.768 99.446 143.228 99.998C142.688 100.55 142.418 101.204 142.418 101.96V107H140.978V101.78C140.978 100.94 140.78 100.298 140.384 99.854C140 99.398 139.478 99.17 138.818 99.17C138.098 99.17 137.468 99.446 136.928 99.998C136.388 100.55 136.118 101.204 136.118 101.96V107H134.678Z" fill="#F5F5F5"/>
</svg>
