<svg width="64" height="64" viewBox="0 0 64 64" fill="none" xmlns="http://www.w3.org/2000/svg">
<rect opacity="0.35" x="0.5" y="0.5" width="63" height="63" rx="15.5" stroke="#3482FC"/>
<rect x="5" y="5" width="54" height="54" rx="14" fill="url(#paint0_linear_940_25340)"/>
<rect x="5.5" y="5.5" width="53" height="53" rx="13.5" stroke="#3482FC" stroke-opacity="0.6"/>
<path d="M29 36.5L24.3871 41.1705C23.7437 41.822 23.422 42.1478 23.1454 42.1707C22.9055 42.1907 22.6706 42.0942 22.5139 41.9115C22.3333 41.7008 22.3333 41.243 22.3333 40.3273V37.9874C22.3333 37.1659 21.6606 36.5715 20.8478 36.4525V36.4525C18.8806 36.1643 17.3357 34.6194 17.0475 32.6522C17 32.3278 17 31.9408 17 31.1667V24.2C17 21.6798 17 20.4196 17.4905 19.457C17.9219 18.6103 18.6103 17.9219 19.457 17.4905C20.4196 17 21.6798 17 24.2 17H35.3C37.8202 17 39.0804 17 40.043 17.4905C40.8897 17.9219 41.5781 18.6103 42.0095 19.457C42.5 20.4196 42.5 21.6798 42.5 24.2V30.5M42.5 47L39.2354 44.7303C38.7765 44.4113 38.547 44.2517 38.2973 44.1386C38.0757 44.0383 37.8426 43.9652 37.6034 43.9211C37.3338 43.8714 37.0543 43.8714 36.4954 43.8714H33.8C32.1198 43.8714 31.2798 43.8714 30.638 43.5444C30.0735 43.2568 29.6146 42.7979 29.327 42.2334C29 41.5917 29 40.7516 29 39.0714V35.3C29 33.6198 29 32.7798 29.327 32.138C29.6146 31.5735 30.0735 31.1146 30.638 30.827C31.2798 30.5 32.1198 30.5 33.8 30.5H42.2C43.8802 30.5 44.7202 30.5 45.362 30.827C45.9265 31.1146 46.3854 31.5735 46.673 32.138C47 32.7798 47 33.6198 47 35.3V39.3714C47 40.7693 47 41.4682 46.7716 42.0195C46.4672 42.7546 45.8831 43.3386 45.1481 43.6431C44.5967 43.8714 43.8978 43.8714 42.5 43.8714V47Z" stroke="#3482FC" stroke-width="2" stroke-linecap="round" stroke-linejoin="round"/>
<defs>
<linearGradient id="paint0_linear_940_25340" x1="8.48387" y1="5" x2="57.2581" y2="60.3065" gradientUnits="userSpaceOnUse">
<stop stop-color="#F5F5F5" stop-opacity="0"/>
<stop offset="1" stop-color="#3482FC" stop-opacity="0.42"/>
</linearGradient>
</defs>
</svg>
