<svg width="64" height="64" viewBox="0 0 64 64" fill="none" xmlns="http://www.w3.org/2000/svg">
<rect opacity="0.35" x="0.5" y="0.5" width="63" height="63" rx="15.5" stroke="#3482FC"/>
<rect x="5" y="5" width="54" height="54" rx="14" fill="url(#paint0_linear_940_25304)"/>
<rect x="5.5" y="5.5" width="53" height="53" rx="13.5" stroke="#3482FC" stroke-opacity="0.6"/>
<path d="M26.9098 27.1405C27.9198 29.2442 29.2967 31.2159 31.0404 32.9596C32.7841 34.7033 34.7558 36.0802 36.8595 37.0902C37.0404 37.1771 37.1309 37.2205 37.2454 37.2539C37.6522 37.3725 38.1518 37.2873 38.4964 37.0406C38.5933 36.9711 38.6763 36.8882 38.8421 36.7223C39.3495 36.215 39.6032 35.9613 39.8582 35.7954C40.8202 35.17 42.0604 35.17 43.0224 35.7954C43.2774 35.9613 43.5311 36.215 44.0385 36.7223L44.3213 37.0051C45.0925 37.7763 45.4781 38.1619 45.6876 38.5761C46.1041 39.3997 46.1041 40.3724 45.6876 41.196C45.4781 41.6102 45.0925 41.9958 44.3213 42.767L44.0925 42.9958C43.3239 43.7643 42.9396 44.1486 42.4171 44.4421C41.8374 44.7678 40.9369 45.002 40.272 45C39.6727 44.9982 39.2632 44.882 38.444 44.6495C34.042 43.4 29.8882 41.0426 26.4228 37.5772C22.9574 34.1118 20.6 29.958 19.3505 25.556C19.118 24.7368 19.0018 24.3273 19 23.728C18.998 23.0631 19.2322 22.1626 19.5579 21.5829C19.8514 21.0604 20.2357 20.6761 21.0042 19.9075L21.233 19.6787C22.0042 18.9075 22.3898 18.5219 22.804 18.3124C23.6276 17.8959 24.6003 17.8959 25.4239 18.3124C25.8381 18.5219 26.2237 18.9075 26.9949 19.6787L27.2777 19.9615C27.785 20.4689 28.0387 20.7226 28.2046 20.9776C28.83 21.9396 28.83 23.1798 28.2046 24.1418C28.0387 24.3968 27.785 24.6505 27.2777 25.1579C27.1118 25.3237 27.0289 25.4067 26.9594 25.5036C26.7127 25.8482 26.6275 26.3478 26.7461 26.7546C26.7795 26.8691 26.8229 26.9596 26.9098 27.1405Z" stroke="#3482FC" stroke-width="2" stroke-linecap="round" stroke-linejoin="round"/>
<defs>
<linearGradient id="paint0_linear_940_25304" x1="8.48387" y1="5" x2="57.2581" y2="60.3065" gradientUnits="userSpaceOnUse">
<stop stop-color="#F5F5F5" stop-opacity="0"/>
<stop offset="1" stop-color="#3482FC" stop-opacity="0.42"/>
</linearGradient>
</defs>
</svg>
