<svg width="391" height="356" viewBox="0 0 391 356" fill="none" xmlns="http://www.w3.org/2000/svg">
<g clip-path="url(#clip0_1257_47411)">
<g filter="url(#filter0_f_1257_47411)">
<ellipse cx="183.182" cy="64.7292" rx="139.177" ry="126.95" transform="rotate(-124.782 183.182 64.7292)" fill="#325FFF"/>
</g>
<g filter="url(#filter1_f_1257_47411)">
<path d="M168.852 213.756C263.034 278.2 237.119 388.163 272.553 406.179C317.097 428.827 361.59 337.985 346.946 284.116C329.685 220.619 105.025 170.084 168.852 213.756Z" fill="#6FFFEE"/>
</g>
<g filter="url(#filter2_f_1257_47411)">
<path d="M283.781 287.618C303.747 316.364 328.419 319.26 349.032 304.943C392.045 275.069 231.094 10.6949 168.535 -2.81806C122.559 -12.7489 87.9545 16.6541 95.449 55.5764C103.918 99.5623 99.5675 100.21 134.298 125.083C163.276 145.836 200.54 166.164 229.873 190.713C257.328 213.691 266.046 262.084 283.781 287.618Z" fill="#5671FF" fill-opacity="0.8"/>
</g>
</g>
<defs>
<filter id="filter0_f_1257_47411" x="-49.0997" y="-171.828" width="464.564" height="473.115" filterUnits="userSpaceOnUse" color-interpolation-filters="sRGB">
<feFlood flood-opacity="0" result="BackgroundImageFix"/>
<feBlend mode="normal" in="SourceGraphic" in2="BackgroundImageFix" result="shape"/>
<feGaussianBlur stdDeviation="50.6104" result="effect1_foregroundBlur_1257_47411"/>
</filter>
<filter id="filter1_f_1257_47411" x="49.5014" y="89.3998" width="408.257" height="428.305" filterUnits="userSpaceOnUse" color-interpolation-filters="sRGB">
<feFlood flood-opacity="0" result="BackgroundImageFix"/>
<feBlend mode="normal" in="SourceGraphic" in2="BackgroundImageFix" result="shape"/>
<feGaussianBlur stdDeviation="53.9844" result="effect1_foregroundBlur_1257_47411"/>
</filter>
<filter id="filter2_f_1257_47411" x="-13.5433" y="-112.732" width="477.751" height="534.035" filterUnits="userSpaceOnUse" color-interpolation-filters="sRGB">
<feFlood flood-opacity="0" result="BackgroundImageFix"/>
<feBlend mode="normal" in="SourceGraphic" in2="BackgroundImageFix" result="shape"/>
<feGaussianBlur stdDeviation="53.9844" result="effect1_foregroundBlur_1257_47411"/>
</filter>
<clipPath id="clip0_1257_47411">
<rect width="391" height="356" fill="white"/>
</clipPath>
</defs>
</svg>
