<svg width="141" height="159" viewBox="0 0 141 159" fill="none" xmlns="http://www.w3.org/2000/svg">
<g opacity="0.3">
<g filter="url(#filter0_i_1164_32818)">
<path d="M70.5 159C109.436 159 141 127.436 141 88.5C141 49.5639 109.436 18 70.5 18C31.5639 18 0 49.5639 0 88.5C0 127.436 31.5639 159 70.5 159Z" fill="url(#paint0_linear_1164_32818)" fill-opacity="0.6"/>
</g>
<path d="M140.5 88.5C140.5 127.16 109.16 158.5 70.5 158.5C31.8401 158.5 0.5 127.16 0.5 88.5C0.5 49.8401 31.8401 18.5 70.5 18.5C109.16 18.5 140.5 49.8401 140.5 88.5Z" stroke="#3482FC" stroke-opacity="0.6"/>
</g>
<path d="M63.6397 142.904H57.4396L51.104 126.968C50.8752 126.43 50.1045 126.423 49.8668 126.958L43.241 142.904H37L45.7461 123.2C46.6242 121.22 48.4429 120.001 50.5173 120.001H50.5429C52.6275 120.016 54.4462 121.276 55.3038 123.287L63.6397 142.904Z" fill="#3482FC"/>
<path d="M74.7831 138.888L77.039 142.906H70.3033L66.2083 133.406H72.9222C75.1257 133.406 76.9189 131.668 76.9189 129.532C76.9189 127.398 75.1257 125.659 72.9222 125.659H63.4974L60.7725 120.001H72.9235C78.2813 120.001 82.6371 124.275 82.6371 129.532C82.6346 134.161 79.2514 138.034 74.7831 138.888Z" fill="#3482FC"/>
<path d="M104 142.905H95.7318L87.1365 134.747C86.0655 133.729 85.4635 132.319 85.4891 130.879C85.5146 129.433 86.1703 128.039 87.2874 127.057L95.2909 120H103.891L92.6018 130.08C92.0509 130.566 92.0356 131.414 92.5673 131.918L104 142.905Z" fill="#3482FC"/>
<path d="M25.7526 57.8011L40.2565 35.126H100.763L115.378 57.6565L70.4044 113.055L25.7526 57.8011Z" stroke="#3482FC" stroke-width="2"/>
<path d="M85.2917 57.6416L70.4357 110.811L56.5546 57.632L70.4313 35.9375L85.2917 57.6416Z" stroke="#3482FC" stroke-width="2"/>
<path d="M87.8823 56.4615H114.867L101.744 35.946L87.8823 56.4615Z" stroke="#3482FC" stroke-width="2"/>
<path d="M53.5942 56.4615H26.6099L39.7324 35.946L53.5942 56.4615Z" stroke="#3482FC" stroke-width="2"/>
<path d="M100.764 35.126L114.603 56.4615H26.6099L40.257 35.126H100.764Z" stroke="#3482FC" stroke-width="2" stroke-miterlimit="10" stroke-linecap="round" stroke-linejoin="round"/>
<path d="M41.1374 101.78L44.4742 99.1858C44.7171 99.001 44.564 98.604 44.2599 98.6301L40.0454 98.948C39.9382 98.959 39.8404 98.9156 39.7765 98.8288L37.186 95.5007C37.0011 95.2578 36.6042 95.4109 36.6302 95.715L36.9447 99.9207C36.9557 100.028 36.9123 100.126 36.8255 100.19L33.4974 102.78C33.2546 102.965 33.4077 103.362 33.7118 103.336L37.9263 103.018C38.0335 103.007 38.1313 103.05 38.1952 103.137L40.7891 106.474C40.974 106.717 41.3709 106.564 41.3449 106.26L41.027 102.045C41.0072 101.941 41.0505 101.844 41.1374 101.78Z" fill="#F5F5F5"/>
<path d="M72.7904 8.68428L77.476 7.27203C77.8154 7.1735 77.8154 6.68085 77.476 6.58232L72.7904 5.17006C72.6699 5.13722 72.5824 5.04964 72.5495 4.92921L71.1373 0.254535C71.0387 -0.0848449 70.5461 -0.0848449 70.4476 0.254535L69.0353 4.92921C69.0025 5.04964 68.9149 5.13722 68.7944 5.17006L64.1198 6.58232C63.7804 6.68085 63.7804 7.1735 64.1198 7.27203L68.8054 8.68428C68.9258 8.71712 69.0134 8.80471 69.0462 8.92513L70.4585 13.6108C70.557 13.9501 71.0497 13.9501 71.1482 13.6108L72.5605 8.92513C72.5824 8.80471 72.6699 8.71712 72.7904 8.68428Z" fill="#F5F5F5"/>
<path d="M124.088 81.2513L127.739 82.2352C128.002 82.3089 128.203 81.9856 128.021 81.7825L125.521 78.9447C125.456 78.8741 125.434 78.7809 125.461 78.6884L126.441 75.0443C126.514 74.7813 126.191 74.5804 125.988 74.763L123.155 77.2553C123.084 77.321 122.991 77.3427 122.898 77.3152L119.254 76.3358C118.991 76.262 118.79 76.5854 118.973 76.7885L121.472 79.6262C121.538 79.6969 121.56 79.7901 121.532 79.8825L120.548 83.5339C120.475 83.7968 120.798 83.9977 121.001 83.8151L123.839 81.3156C123.902 81.2455 123.996 81.2238 124.088 81.2513Z" fill="#F5F5F5"/>
<path d="M22.704 86.29L25.5507 84.002C25.7579 83.8389 25.6201 83.4981 25.3577 83.5249L21.7209 83.8587C21.6284 83.8697 21.5433 83.8336 21.4869 83.7595L19.202 80.9204C19.0388 80.7132 18.698 80.851 18.7248 81.1134L19.0556 84.7426C19.0665 84.8351 19.0304 84.9202 18.9563 84.9767L16.1173 87.2616C15.91 87.4247 16.0478 87.7655 16.3102 87.7387L19.9471 87.4049C20.0396 87.3939 20.1247 87.43 20.1811 87.5041L22.469 90.3508C22.6322 90.558 22.973 90.4202 22.9462 90.1578L22.6124 86.521C22.5938 86.4315 22.6299 86.3464 22.704 86.29Z" fill="#F5F5F5"/>
<path d="M50.5012 13.3444L52.3951 11.8222C52.533 11.7136 52.4413 11.4869 52.2667 11.5047L49.847 11.7268C49.7855 11.7341 49.7289 11.7101 49.6913 11.6608L48.1711 9.77185C48.0626 9.63397 47.8358 9.72567 47.8536 9.90023L48.0737 12.3149C48.081 12.3764 48.057 12.4331 48.0077 12.4706L46.1188 13.9908C45.9809 14.0993 46.0726 14.3261 46.2472 14.3083L48.6669 14.0862C48.7284 14.0789 48.785 14.1029 48.8226 14.1522L50.3448 16.0462C50.4533 16.184 50.6801 16.0923 50.6623 15.9178L50.4402 13.4981C50.4278 13.4386 50.4519 13.3819 50.5012 13.3444Z" fill="#F5F5F5"/>
<path d="M118.712 116.58L122.062 118.301C122.303 118.428 122.566 118.155 122.431 117.919L120.59 114.633C120.541 114.551 120.539 114.455 120.586 114.371L122.301 111.027C122.428 110.786 122.155 110.523 121.919 110.658L118.639 112.493C118.556 112.542 118.461 112.544 118.377 112.498L115.033 110.782C114.792 110.655 114.529 110.928 114.664 111.164L116.505 114.45C116.554 114.533 116.556 114.628 116.51 114.712L114.788 118.063C114.661 118.303 114.934 118.567 115.17 118.431L118.456 116.59C118.533 116.535 118.628 116.534 118.712 116.58Z" fill="#F5F5F5"/>
<path d="M99.849 100.265L102.39 101.57C102.572 101.667 102.772 101.46 102.669 101.281L101.273 98.7886C101.236 98.726 101.235 98.6538 101.27 98.5899L102.571 96.0539C102.667 95.8714 102.46 95.6717 102.281 95.7744L99.7934 97.1657C99.7308 97.203 99.6585 97.2043 99.5946 97.1693L97.0586 95.8682C96.8761 95.772 96.6765 95.979 96.7791 96.1579L98.1751 98.6499C98.2123 98.7125 98.2136 98.7848 98.1786 98.8487L96.873 101.389C96.7769 101.572 96.9838 101.771 97.1628 101.669L99.6548 100.273C99.7128 100.231 99.7851 100.23 99.849 100.265Z" fill="#F5F5F5"/>
<path d="M16.7372 111.126L19.2293 112.407C19.4084 112.501 19.6042 112.298 19.5035 112.123L18.1342 109.678C18.0976 109.617 18.0963 109.546 18.1307 109.483L19.407 106.996C19.5013 106.817 19.2983 106.621 19.1228 106.721L16.6826 108.086C16.6212 108.123 16.5503 108.124 16.4876 108.09L14 106.813C13.821 106.719 13.6252 106.922 13.7258 107.098L15.0952 109.542C15.1317 109.604 15.133 109.675 15.0987 109.737L13.818 112.229C13.7237 112.408 13.9267 112.604 14.1022 112.504L16.5467 111.134C16.6036 111.093 16.6745 111.092 16.7372 111.126Z" fill="#F5F5F5"/>
<path d="M88.3896 13.6396L90.8391 14.8984C91.015 14.9911 91.2075 14.7915 91.1086 14.619L89.7627 12.2163C89.7267 12.156 89.7255 12.0863 89.7592 12.0247L91.0137 9.57963C91.1064 9.40368 90.9069 9.2112 90.7344 9.31015L88.3359 10.6516C88.2756 10.6876 88.2059 10.6888 88.1443 10.6551L85.6992 9.40056C85.5233 9.30787 85.3308 9.50739 85.4298 9.67989L86.7757 12.0826C86.8116 12.143 86.8129 12.2126 86.7791 12.2743L85.5203 14.7237C85.4276 14.8997 85.6272 15.0922 85.7997 14.9932L88.2024 13.6473C88.2583 13.6071 88.328 13.6058 88.3896 13.6396Z" fill="#F5F5F5"/>
<defs>
<filter id="filter0_i_1164_32818" x="0" y="18" width="141" height="141" filterUnits="userSpaceOnUse" color-interpolation-filters="sRGB">
<feFlood flood-opacity="0" result="BackgroundImageFix"/>
<feBlend mode="normal" in="SourceGraphic" in2="BackgroundImageFix" result="shape"/>
<feColorMatrix in="SourceAlpha" type="matrix" values="0 0 0 0 0 0 0 0 0 0 0 0 0 0 0 0 0 0 127 0" result="hardAlpha"/>
<feOffset/>
<feGaussianBlur stdDeviation="7"/>
<feComposite in2="hardAlpha" operator="arithmetic" k2="-1" k3="1"/>
<feColorMatrix type="matrix" values="0 0 0 0 0.203922 0 0 0 0 0.509804 0 0 0 0 0.988235 0 0 0 1 0"/>
<feBlend mode="normal" in2="shape" result="effect1_innerShadow_1164_32818"/>
</filter>
<linearGradient id="paint0_linear_1164_32818" x1="9.09677" y1="18" x2="136.452" y2="162.411" gradientUnits="userSpaceOnUse">
<stop stop-color="#F5F5F5" stop-opacity="0"/>
<stop offset="1" stop-color="#3482FC" stop-opacity="0.42"/>
</linearGradient>
</defs>
</svg>
