<svg width="117" height="40" viewBox="0 0 117 40" fill="none" xmlns="http://www.w3.org/2000/svg">
<path d="M46.5201 39.9979H35.693L24.6294 12.1694C24.2298 11.2284 22.884 11.2174 22.4688 12.1517L10.8985 39.9979H0L15.2731 5.58891C16.8064 2.13188 19.9825 0.00244141 23.6049 0.00244141H23.6495C27.2898 0.028949 30.4659 2.22908 31.9635 5.74133L46.5201 39.9979Z" fill="#F5F5F5"/>
<path d="M65.9801 32.984L69.9195 39.9997H58.1572L51.0061 23.4103H62.7304C66.5783 23.4103 69.7097 20.3752 69.7097 16.6465C69.7097 12.92 66.5783 9.88265 62.7304 9.88265H46.2721L41.5137 0.00195312H62.7326C72.0889 0.00195312 79.6953 7.46604 79.6953 16.6465C79.6908 24.7291 73.7829 31.4929 65.9801 32.984Z" fill="#F5F5F5"/>
<path d="M117 39.9977H102.562L87.5521 25.7521C85.6818 23.9739 84.6306 21.5131 84.6752 18.9971C84.7198 16.4722 85.8648 14.038 87.8155 12.3238L101.792 0H116.811L97.0959 17.6032C96.1339 18.4515 96.1071 19.9315 97.0356 20.8129L117 39.9977Z" fill="#F5F5F5"/>
</svg>
