<svg width="257" height="224" viewBox="0 0 257 224" fill="none" xmlns="http://www.w3.org/2000/svg">
<g clip-path="url(#clip0_1256_44562)">
<path d="M124.021 192.084C168.219 192.084 204.052 156.251 204.052 111.895C204.052 67.5381 168.061 31.7056 124.021 31.7056C79.8218 31.7056 43.9893 67.5381 43.9893 111.895C43.9893 156.251 79.8218 192.084 124.021 192.084Z" stroke="#3482FC" stroke-width="2" stroke-miterlimit="10"/>
<g opacity="0.3">
<g filter="url(#filter0_i_1256_44562)">
<path d="M124.016 192.084C168.214 192.084 204.047 156.251 204.047 111.895C204.047 67.5381 168.057 31.7056 124.016 31.7056C79.8169 31.7056 43.9844 67.5381 43.9844 111.895C43.9844 156.251 79.8169 192.084 124.016 192.084Z" fill="url(#paint0_linear_1256_44562)" fill-opacity="0.6"/>
</g>
<path d="M203.047 111.895C203.047 155.7 167.661 191.084 124.016 191.084C80.3705 191.084 44.9844 155.7 44.9844 111.895C44.9844 68.0891 80.3705 32.7056 124.016 32.7056C167.504 32.7056 203.047 68.0904 203.047 111.895Z" stroke="#3482FC" stroke-opacity="0.6" stroke-width="2"/>
</g>
<path d="M214.808 143.984L216.817 147.713C216.959 147.984 217.377 147.899 217.401 147.594L217.788 143.376C217.795 143.268 217.854 143.179 217.95 143.13L221.67 141.123C221.941 140.981 221.855 140.563 221.551 140.538L217.342 140.15C217.234 140.143 217.145 140.084 217.096 139.988L215.089 136.268C214.947 135.997 214.529 136.082 214.504 136.387L214.118 140.605C214.111 140.713 214.052 140.802 213.955 140.851L210.227 142.86C209.956 143.002 210.041 143.42 210.346 143.445L214.564 143.831C214.67 143.829 214.759 143.888 214.808 143.984Z" fill="#3482FC"/>
<path d="M91.7088 23.349L93.5501 26.7671C93.6805 27.0153 94.0635 26.9371 94.0862 26.6577L94.4404 22.7913C94.4469 22.6925 94.5011 22.6105 94.5894 22.5659L97.9991 20.7263C98.2472 20.5959 98.1691 20.2129 97.8896 20.1902L94.0318 19.8342C93.933 19.8278 93.851 19.7736 93.8064 19.6852L91.9668 16.2756C91.8363 16.0274 91.4534 16.1056 91.4307 16.3851L91.0764 20.2514C91.07 20.3502 91.0158 20.4322 90.9274 20.4768L87.5093 22.3182C87.2611 22.4486 87.3393 22.8316 87.6187 22.8543L91.4851 23.2085C91.5822 23.2064 91.6641 23.2606 91.7088 23.349Z" fill="#3482FC"/>
<path d="M118.655 47.5873L120.642 49.7793C120.783 49.939 121.052 49.8113 121.018 49.6004L120.574 46.6759C120.561 46.6016 120.586 46.5311 120.643 46.4819L122.829 44.4986C122.989 44.3568 122.861 44.0878 122.65 44.122L119.732 44.5632C119.658 44.5765 119.587 44.5514 119.538 44.4942L117.554 42.3082C117.413 42.1484 117.144 42.2762 117.178 42.487L117.622 45.4115C117.635 45.4858 117.61 45.5563 117.553 45.6055L115.361 47.5917C115.201 47.7335 115.329 48.0025 115.54 47.9683L118.464 47.5242C118.536 47.5049 118.606 47.53 118.655 47.5873Z" fill="#3482FC"/>
<path d="M92.2021 99.2782L94.8894 100.145C95.0828 100.21 95.2444 99.9757 95.1157 99.8176L93.3549 97.6102C93.3085 97.5551 93.2957 97.4848 93.3196 97.4168L94.1829 94.7347C94.2474 94.5413 94.0136 94.3797 93.8555 94.5084L91.6516 96.264C91.5965 96.3104 91.5262 96.3232 91.4583 96.2993L88.7761 95.4361C88.5827 95.3715 88.4211 95.6053 88.5499 95.7634L90.3106 97.9709C90.357 98.026 90.3698 98.0963 90.3459 98.1642L89.4791 100.852C89.4145 101.045 89.6483 101.207 89.8064 101.078L92.0139 99.3171C92.0638 99.2671 92.1341 99.2543 92.2021 99.2782Z" fill="#3482FC"/>
<path d="M82.7473 201.439C86.3217 201.439 89.2193 198.541 89.2193 194.967C89.2193 191.393 86.3217 188.495 82.7473 188.495C79.173 188.495 76.2754 191.393 76.2754 194.967C76.2754 198.541 79.173 201.439 82.7473 201.439Z" fill="#3482FC"/>
<path d="M150.626 14.7912C153.067 14.7912 155.046 12.8123 155.046 10.3713C155.046 7.93026 153.067 5.95142 150.626 5.95142C148.185 5.95142 146.206 7.93026 146.206 10.3713C146.206 12.8123 148.185 14.7912 150.626 14.7912Z" fill="#3482FC"/>
<path d="M47.6142 59.3297C50.0552 59.3297 52.0341 57.3509 52.0341 54.9099C52.0341 52.4688 50.0552 50.49 47.6142 50.49C45.1732 50.49 43.1943 52.4688 43.1943 54.9099C43.1943 57.3509 45.1732 59.3297 47.6142 59.3297Z" fill="#3482FC"/>
<path d="M29.9937 175.85C34.5271 175.85 38.2021 172.175 38.2021 167.642C38.2021 163.108 34.5271 159.433 29.9937 159.433C25.4604 159.433 21.7854 163.108 21.7854 167.642C21.7854 172.175 25.4604 175.85 29.9937 175.85Z" fill="#3482FC"/>
<path d="M211.497 58.5645C197.037 29.7871 160.999 24.5688 121.233 79.0594C117.28 84.4767 98.8851 77.683 94.4765 73.9021C90.068 70.1212 88.1883 62.8383 92.0413 58.4652C95.5727 54.3817 102.764 55.0542 106.24 59.0926C109.788 63.1665 109.686 69.5638 106.876 74.1817C104.067 78.7996 99.5393 80.6274 93.8145 82.7108C80.8312 87.4355 70.8502 76.965 59.0923 75.9266C47.2624 74.8528 34.4473 77.0555 26.128 85.4103C20.1648 91.3422 17.2013 99.9141 17.0393 108.252C16.8773 116.591 19.4826 124.947 23.3043 132.469C29.1999 143.967 38.5356 153.933 50.2136 159.32C61.8916 164.707 76.055 165.407 87.6624 159.834C99.2699 154.261 112.007 149.584 106.24 141.019C100.357 132.28 70.9973 125.771 83.865 156.085C90.2079 164.489 89.4519 165.34 99.9497 166.027C109.908 166.718 121.384 144.013 128.636 137.283C135.887 130.552 151.861 133.169 160.999 129.157C171.965 124.343 183.051 139.599 192.299 147.194C201.548 154.788 209.579 167.52 203.575 179.428C197.54 191.398 180.038 189.595 170.729 189.403" stroke="#F5F5F5" stroke-width="2" stroke-miterlimit="10" stroke-dasharray="4 4"/>
<path d="M141.964 109.711C141.045 105.5 139.713 100.529 137.551 96.7583C136.368 94.6834 134.484 93.122 132.206 92.4278C129.704 91.6844 127.405 92.0832 124.91 92.5342C120.478 93.178 116.058 94.2536 111.719 95.6337C107.842 96.7815 103.296 97.7818 100.119 100.373C95.4999 104.22 96.2733 109.45 97.5732 115.082C98.4924 119.294 99.8244 124.265 101.986 128.035C103.734 131.046 106.952 132.902 110.266 132.775C114.638 132.691 123.479 130.54 127.747 129.287C131.43 128.192 135.557 127.195 138.718 124.934C144.005 121.234 143.427 115.952 141.964 109.711Z" fill="#3482FC" fill-opacity="0.6" stroke="#3482FC" stroke-width="2" stroke-miterlimit="10"/>
<path d="M114.758 105.63C113.272 105.158 112.627 105.875 113.035 107.397L116.623 120.788C117.101 122.182 117.893 122.405 119.042 121.227C121.888 118.181 124.707 115.034 127.553 111.988C128.578 110.734 128.333 109.821 126.846 109.35C122.859 108.135 118.746 106.845 114.758 105.63Z" fill="#3482FC" fill-opacity="0.6" stroke="#F5F5F5" stroke-width="2" stroke-miterlimit="10"/>
<path d="M173.06 117.693C190.533 123.608 209.493 114.238 215.408 96.7647C221.324 79.2912 211.954 60.331 194.48 54.4159C177.007 48.5007 158.047 57.8706 152.131 75.344C146.216 92.8175 155.586 111.778 173.06 117.693Z" fill="#3482FC" fill-opacity="0.6" stroke="#3482FC" stroke-width="2" stroke-miterlimit="10"/>
<path fill-rule="evenodd" clip-rule="evenodd" d="M178.123 68.9502L174.519 72.3511L166.784 89.42L172.867 92.1766L171.468 95.2635L174.889 96.8137L179.52 95.1913L184.464 97.4317L193.997 94.0902L200.744 79.2012L178.123 68.9502ZM192.208 91.9679L186.76 93.8758L180.678 91.1197L176.048 92.7421L177.446 89.6563L172.314 87.3307L179.227 72.0768L197.475 80.3461L192.208 91.9679ZM191.779 82.8003L188.903 89.1488L186.622 88.1153L189.499 81.7668L191.78 82.8008L191.779 82.8003ZM185.697 80.0442L182.821 86.3927L180.54 85.3592L183.417 79.0107L185.697 80.0442Z" fill="#F5F5F5"/>
<circle cx="57.9895" cy="113.743" r="27.7337" fill="#3482FC" fill-opacity="0.6" stroke="#3482FC" stroke-width="2" stroke-miterlimit="10"/>
<path d="M70.4679 104.773L62.1703 113.952L71.3496 122.25L79.6472 113.071L70.4679 104.773ZM40.6225 110.112L54.4691 113.246L45.1343 123.572L40.6225 110.112ZM61.7295 105.214C62.8298 103.997 63.4016 102.392 63.3189 100.754C63.2362 99.1147 62.5059 97.5759 61.2887 96.4756C60.0715 95.3753 58.467 94.8035 56.8282 94.8862C55.1894 94.9689 53.6506 95.6992 52.5503 96.9164C51.4499 98.1337 50.8782 99.7382 50.9609 101.377C51.0436 103.016 51.7739 104.555 52.9911 105.655C54.2083 106.755 55.8128 107.327 57.4516 107.244C59.0904 107.162 60.6292 106.431 61.7295 105.214Z" stroke="#F5F5F5" stroke-width="2" stroke-linejoin="round"/>
<path d="M49.7246 127.721L67.2014 126.84M58.0222 118.542L58.9039 136.019" stroke="#F5F5F5" stroke-width="2" stroke-linecap="round" stroke-linejoin="round"/>
<path d="M150.764 210.959L113.412 186.765C111.264 185.36 110.638 182.504 112.035 180.332L135.231 144.62C136.639 142.472 139.497 141.844 141.669 143.239L179.022 167.433C181.169 168.838 181.796 171.694 180.398 173.866L157.213 209.603C155.805 211.75 152.912 212.364 150.764 210.959Z" fill="#3482FC" fill-opacity="0.6" stroke="#3482FC" stroke-width="2" stroke-miterlimit="10"/>
<path d="M133.85 180.824C133.475 180.574 133.135 180.275 132.838 179.935C131.959 178.9 131.521 177.56 131.618 176.205C131.715 174.85 132.339 173.587 133.357 172.687L139.708 167.074C140.216 166.616 140.811 166.264 141.458 166.039C142.104 165.815 142.789 165.721 143.472 165.765C144.136 165.807 144.786 165.982 145.383 166.277C145.98 166.573 146.512 166.984 146.949 167.487C147.411 168.024 147.757 168.652 147.964 169.33C148.171 170.008 148.235 170.721 148.152 171.425L150.156 172.765C150.774 172.417 151.458 172.203 152.164 172.135C152.87 172.067 153.583 172.148 154.256 172.372C154.887 172.583 155.471 172.918 155.972 173.356C156.473 173.795 156.883 174.328 157.176 174.926C157.476 175.538 157.651 176.204 157.692 176.884C157.733 177.564 157.639 178.246 157.415 178.889L154.646 186.919C154.205 188.209 153.275 189.275 152.055 189.885C150.836 190.495 149.425 190.6 148.128 190.179C147.497 189.968 146.913 189.633 146.412 189.194C145.911 188.756 145.501 188.222 145.208 187.624C144.907 187.013 144.731 186.347 144.69 185.667C144.649 184.987 144.743 184.305 144.968 183.662L145.283 182.89L140.658 179.799L140.038 180.343C139.53 180.797 138.936 181.145 138.291 181.367C137.647 181.589 136.965 181.681 136.285 181.637C135.417 181.579 134.578 181.299 133.85 180.824ZM144.914 168.145C144.448 167.836 143.909 167.652 143.351 167.613C142.47 167.562 141.604 167.861 140.943 168.446L134.592 174.059C133.935 174.636 133.53 175.447 133.464 176.318C133.399 177.19 133.678 178.053 134.241 178.721C134.517 179.038 134.853 179.298 135.23 179.485C135.606 179.671 136.016 179.782 136.436 179.809C136.873 179.838 137.311 179.779 137.724 179.636C138.138 179.493 138.518 179.268 138.844 178.976L140.533 177.484L147.47 182.122L146.729 184.247C146.586 184.66 146.525 185.098 146.551 185.534C146.577 185.971 146.689 186.398 146.88 186.791C147.067 187.169 147.327 187.506 147.645 187.784C147.963 188.061 148.332 188.274 148.732 188.408C149.565 188.676 150.469 188.605 151.249 188.209C152.029 187.814 152.622 187.127 152.898 186.297L155.657 178.283C155.803 177.871 155.865 177.435 155.841 176.999C155.816 176.563 155.705 176.137 155.514 175.744C155.327 175.366 155.067 175.029 154.749 174.751C154.431 174.474 154.062 174.262 153.662 174.127C153.164 173.967 152.634 173.927 152.117 174.013C151.601 174.098 151.112 174.305 150.691 174.617L150.166 175.002L146.081 172.271L146.236 171.639C146.363 171.13 146.366 170.597 146.246 170.087C146.126 169.576 145.886 169.101 145.546 168.701C145.36 168.489 145.148 168.302 144.914 168.145Z" fill="#F5F5F5"/>
<path d="M140.924 174.399C140.619 174.195 140.382 173.905 140.241 173.567C140.101 173.228 140.064 172.855 140.136 172.495C140.208 172.135 140.384 171.805 140.644 171.546C140.903 171.287 141.234 171.11 141.593 171.039C141.953 170.967 142.326 171.004 142.665 171.144C143.003 171.285 143.293 171.522 143.497 171.827C143.7 172.132 143.809 172.491 143.809 172.858C143.809 173.224 143.7 173.583 143.496 173.888C143.223 174.297 142.798 174.58 142.316 174.676C141.834 174.772 141.333 174.672 140.924 174.399Z" fill="#F5F5F5"/>
<path d="M151.716 178.27C152.142 178.555 152.717 178.44 153.002 178.014C153.286 177.589 153.172 177.013 152.746 176.728C152.321 176.444 151.745 176.558 151.46 176.984C151.176 177.41 151.29 177.985 151.716 178.27Z" fill="#F5F5F5"/>
<path d="M149.657 181.353C150.083 181.638 150.659 181.523 150.943 181.098C151.228 180.672 151.113 180.096 150.688 179.812C150.262 179.527 149.686 179.641 149.402 180.067C149.117 180.493 149.232 181.069 149.657 181.353Z" fill="#F5F5F5"/>
<path d="M149.146 178.781C149.571 179.066 150.147 178.951 150.432 178.525C150.716 178.1 150.602 177.524 150.176 177.239C149.75 176.955 149.175 177.069 148.89 177.495C148.605 177.921 148.72 178.496 149.146 178.781Z" fill="#F5F5F5"/>
<path d="M152.229 180.842C152.654 181.127 153.23 181.012 153.515 180.587C153.799 180.161 153.685 179.585 153.259 179.3C152.833 179.016 152.258 179.13 151.973 179.556C151.688 179.982 151.803 180.557 152.229 180.842Z" fill="#F5F5F5"/>
</g>
<defs>
<filter id="filter0_i_1256_44562" x="43.9844" y="31.7056" width="160.062" height="160.378" filterUnits="userSpaceOnUse" color-interpolation-filters="sRGB">
<feFlood flood-opacity="0" result="BackgroundImageFix"/>
<feBlend mode="normal" in="SourceGraphic" in2="BackgroundImageFix" result="shape"/>
<feColorMatrix in="SourceAlpha" type="matrix" values="0 0 0 0 0 0 0 0 0 0 0 0 0 0 0 0 0 0 127 0" result="hardAlpha"/>
<feOffset/>
<feGaussianBlur stdDeviation="7"/>
<feComposite in2="hardAlpha" operator="arithmetic" k2="-1" k3="1"/>
<feColorMatrix type="matrix" values="0 0 0 0 0.203922 0 0 0 0 0.509804 0 0 0 0 0.988235 0 0 0 1 0"/>
<feBlend mode="normal" in2="shape" result="effect1_innerShadow_1256_44562"/>
</filter>
<linearGradient id="paint0_linear_1256_44562" x1="54.311" y1="31.7056" x2="199.204" y2="195.681" gradientUnits="userSpaceOnUse">
<stop stop-color="#F5F5F5" stop-opacity="0"/>
<stop offset="1" stop-color="#3482FC" stop-opacity="0.42"/>
</linearGradient>
<clipPath id="clip0_1256_44562">
<rect width="257" height="224" fill="white"/>
</clipPath>
</defs>
</svg>
