<svg width="154" height="155" viewBox="0 0 154 155" fill="none" xmlns="http://www.w3.org/2000/svg">
<path d="M150.271 75.9053C152.277 74.0164 152.418 70.8096 150.584 68.7427C148.751 66.6758 145.639 66.5314 143.632 68.4203C141.626 70.3091 141.486 73.5159 143.319 75.5828C145.153 77.6498 148.265 77.7942 150.271 75.9053Z" fill="#F5F5F5"/>
<path d="M19.0799 15.8974C20.7802 15.328 21.7105 13.4463 21.1579 11.6945C20.6052 9.94265 18.7789 8.9841 17.0786 9.55349C15.3783 10.1229 14.448 12.0046 15.0006 13.7564C15.5533 15.5083 17.3796 16.4668 19.0799 15.8974Z" fill="#F5F5F5"/>
<path d="M26.1457 5.01516C27.3019 4.62797 27.9346 3.34841 27.5588 2.15716C27.183 0.965921 25.9411 0.314103 24.7849 0.701286C23.6287 1.08847 22.996 2.36804 23.3718 3.55928C23.7476 4.75052 24.9896 5.40234 26.1457 5.01516Z" fill="#F5F5F5"/>
<path d="M2.56461 85.8906C3.78037 85.8906 4.76594 84.8752 4.76594 83.6226C4.76594 82.3699 3.78037 81.3545 2.56461 81.3545C1.34885 81.3545 0.363281 82.3699 0.363281 83.6226C0.363281 84.8752 1.34885 85.8906 2.56461 85.8906Z" fill="#F5F5F5"/>
<g opacity="0.3">
<g filter="url(#filter0_i_1164_32642)">
<path d="M148.224 84.8233C148.224 100.7 143.044 115.509 134.368 127.25C129.577 133.654 123.879 139.257 117.275 143.66C106.657 150.864 93.8377 155 80.1117 155C42.5596 155 12 123.647 12 84.8233C12 46.1327 42.4302 14.6465 80.1117 14.6465C93.8377 14.6465 106.528 18.7824 117.275 25.9868C123.879 30.3896 129.577 35.993 134.368 42.397C143.044 54.271 148.224 68.9468 148.224 84.8233Z" fill="url(#paint0_linear_1164_32642)" fill-opacity="0.6"/>
</g>
<path d="M116.998 143.244L116.995 143.246C106.458 150.395 93.7361 154.5 80.1117 154.5C42.8491 154.5 12.5 123.385 12.5 84.8233C12.5 46.394 42.7209 15.1465 80.1117 15.1465C93.7346 15.1465 106.328 19.2507 116.997 26.4022L116.998 26.4029C123.549 30.7699 129.205 36.3312 133.966 42.6941C142.581 54.4857 147.724 69.0581 147.724 84.8233C147.724 100.591 142.58 115.296 133.966 126.952C129.205 133.315 123.549 138.877 116.998 143.244Z" stroke="#3482FC" stroke-opacity="0.6"/>
</g>
<path d="M38 70V61H121V70H38Z" stroke="#3482FC" stroke-width="2"/>
<path d="M122.995 60H36.8935C35.4996 60 34 58.4843 34 56.303V34.697C34 32.5157 35.4996 31 36.8935 31H123.107C124.5 31 126 32.5157 126 34.697V56.2815C125.896 58.6202 124.498 60 122.995 60Z" stroke="#3482FC" stroke-width="2"/>
<mask id="path-9-inside-1_1164_32642" fill="white">
<path d="M45.8195 30H123.643C125.456 30 126.88 31.4676 126.88 33.3354V57.6171C126.88 59.4849 125.456 60.9525 123.643 60.9525H36.2373C34.4244 60.9525 33 59.4849 33 57.6171V33.3354C33 31.4676 34.4244 30 36.2373 30H38.4386"/>
</mask>
<path d="M45.8195 32H123.643V28H45.8195V32ZM123.643 32C124.295 32 124.88 32.5154 124.88 33.3354H128.88C128.88 30.4197 126.616 28 123.643 28V32ZM124.88 33.3354V57.6171H128.88V33.3354H124.88ZM124.88 57.6171C124.88 58.4371 124.295 58.9525 123.643 58.9525V62.9525C126.616 62.9525 128.88 60.5328 128.88 57.6171H124.88ZM123.643 58.9525H36.2373V62.9525H123.643V58.9525ZM36.2373 58.9525C35.5848 58.9525 35 58.4371 35 57.6171H31C31 60.5328 33.2639 62.9525 36.2373 62.9525V58.9525ZM35 57.6171V33.3354H31V57.6171H35ZM35 33.3354C35 32.5154 35.5848 32 36.2373 32V28C33.2639 28 31 30.4197 31 33.3354H35ZM36.2373 32H38.4386V28H36.2373V32Z" fill="#3482FC" mask="url(#path-9-inside-1_1164_32642)"/>
<path d="M70.8853 37.8133C71.4623 38.4077 71.4623 39.3716 70.8853 39.966C70.3083 40.5605 69.3729 40.5605 68.7959 39.966C68.2189 39.3716 68.2189 38.4077 68.7959 37.8133C69.3729 37.2188 70.3083 37.2188 70.8853 37.8133Z" stroke="#98A5B1"/>
<path d="M70.9038 43.6756C71.4807 44.27 71.4807 45.2339 70.9038 45.8284C70.3268 46.4228 69.3914 46.4228 68.8144 45.8284C68.2374 45.2339 68.2374 44.27 68.8144 43.6756C69.3914 43.0811 70.3268 43.0811 70.9038 43.6756Z" stroke="#98A5B1"/>
<path d="M70.8305 49.4436C71.4075 50.0381 71.4075 51.0019 70.8305 51.5964C70.2536 52.1909 69.3181 52.1909 68.7411 51.5964C68.1642 51.0019 68.1642 50.0381 68.7411 49.4436C69.3181 48.8491 70.2536 48.8491 70.8305 49.4436Z" stroke="#98A5B1"/>
<path d="M76.5854 40.992C77.1624 41.5864 77.1624 42.5503 76.5854 43.1448C76.0084 43.7392 75.073 43.7392 74.496 43.1448C73.9191 42.5503 73.9191 41.5864 74.496 40.992C75.073 40.3975 76.0084 40.3975 76.5854 40.992Z" stroke="#98A5B1"/>
<path d="M76.5122 46.76C77.0891 47.3545 77.0891 48.3183 76.5122 48.9128C75.9352 49.5073 74.9998 49.5073 74.4228 48.9128C73.8458 48.3183 73.8458 47.3545 74.4228 46.76C74.9998 46.1656 75.9352 46.1656 76.5122 46.76Z" stroke="#98A5B1"/>
<path d="M82.1734 37.8694C82.7504 38.4639 82.7504 39.4277 82.1734 40.0222C81.5964 40.6166 80.6609 40.6166 80.084 40.0222C79.507 39.4277 79.507 38.4639 80.084 37.8694C80.6609 37.275 81.5964 37.275 82.1734 37.8694Z" stroke="#98A5B1"/>
<path d="M82.1919 43.7322C82.7689 44.3267 82.7689 45.2905 82.1919 45.885C81.615 46.4794 80.6795 46.4794 80.1025 45.885C79.5255 45.2905 79.5255 44.3267 80.1025 43.7322C80.6795 43.1378 81.615 43.1378 82.1919 43.7322Z" stroke="#98A5B1"/>
<path d="M82.229 51.1914C82.229 52.034 81.5698 52.6914 80.7878 52.6914C80.0059 52.6914 79.3467 52.034 79.3467 51.1914C79.3467 50.3488 80.0059 49.6914 80.7878 49.6914C81.5698 49.6914 82.229 50.3488 82.229 51.1914Z" stroke="#3482FC"/>
<path d="M87.8736 41.0486C88.4506 41.6431 88.4506 42.6069 87.8736 43.2014C87.2966 43.7958 86.3611 43.7958 85.7842 43.2014C85.2072 42.6069 85.2072 41.6431 85.7842 41.0486C86.3611 40.4542 87.2966 40.4542 87.8736 41.0486Z" stroke="#98A5B1"/>
<path d="M87.8003 46.8162C88.3772 47.4107 88.3772 48.3745 87.8003 48.969C87.2233 49.5635 86.2878 49.5635 85.7109 48.969C85.1339 48.3745 85.1339 47.4107 85.7109 46.8162C86.2878 46.2217 87.2233 46.2217 87.8003 46.8162Z" stroke="#98A5B1"/>
<path d="M93.5532 37.8318C94.1302 38.4263 94.1302 39.3901 93.5532 39.9846C92.9762 40.5791 92.0408 40.5791 91.4638 39.9846C90.8868 39.3901 90.8868 38.4263 91.4638 37.8318C92.0408 37.2373 92.9762 37.2373 93.5532 37.8318Z" stroke="#98A5B1"/>
<path d="M93.5718 43.6941C94.1488 44.2886 94.1488 45.2524 93.5718 45.8469C92.9948 46.4413 92.0594 46.4413 91.4824 45.8469C90.9054 45.2524 90.9054 44.2886 91.4824 43.6941C92.0594 43.0997 92.9948 43.0997 93.5718 43.6941Z" stroke="#98A5B1"/>
<path d="M93.4985 49.4622C94.0755 50.0567 94.0755 51.0205 93.4985 51.615C92.9215 52.2094 91.9861 52.2094 91.4091 51.615C90.8321 51.0205 90.8321 50.0567 91.4091 49.4622C91.9861 48.8677 92.9215 48.8677 93.4985 49.4622Z" stroke="#98A5B1"/>
<path d="M99.2534 41.0105C99.8304 41.605 99.8304 42.5688 99.2534 43.1633C98.6764 43.7578 97.741 43.7578 97.164 43.1633C96.587 42.5688 96.587 41.605 97.164 41.0105C97.741 40.416 98.6764 40.416 99.2534 41.0105Z" stroke="#98A5B1"/>
<path d="M99.1801 46.7786C99.7571 47.3731 99.7571 48.3369 99.1801 48.9314C98.6032 49.5259 97.6677 49.5259 97.0908 48.9314C96.5138 48.3369 96.5138 47.3731 97.0908 46.7786C97.6677 46.1841 98.6032 46.1841 99.1801 46.7786Z" stroke="#98A5B1"/>
<path d="M104.933 37.7937C105.51 38.3882 105.51 39.352 104.933 39.9465C104.356 40.541 103.421 40.541 102.844 39.9465C102.267 39.352 102.267 38.3882 102.844 37.7937C103.421 37.1993 104.356 37.1993 104.933 37.7937Z" stroke="#98A5B1"/>
<path d="M104.952 43.656C105.529 44.2505 105.529 45.2143 104.952 45.8088C104.375 46.4033 103.439 46.4033 102.862 45.8088C102.285 45.2143 102.285 44.2505 102.862 43.656C103.439 43.0615 104.375 43.0615 104.952 43.656Z" stroke="#98A5B1"/>
<path d="M104.878 49.4241C105.455 50.0186 105.455 50.9824 104.878 51.5769C104.301 52.1714 103.366 52.1714 102.789 51.5769C102.212 50.9824 102.212 50.0186 102.789 49.4241C103.366 48.8296 104.301 48.8296 104.878 49.4241Z" stroke="#98A5B1"/>
<path d="M110.542 41.0672C111.119 41.6616 111.119 42.6255 110.542 43.2199C109.965 43.8144 109.029 43.8144 108.452 43.2199C107.875 42.6255 107.875 41.6616 108.452 41.0672C109.029 40.4727 109.965 40.4727 110.542 41.0672Z" stroke="#98A5B1"/>
<path d="M110.468 46.8347C111.045 47.4292 111.045 48.3931 110.468 48.9875C109.891 49.582 108.956 49.582 108.379 48.9875C107.802 48.3931 107.802 47.4292 108.379 46.8347C108.956 46.2403 109.891 46.2403 110.468 46.8347Z" stroke="#98A5B1"/>
<path d="M116.221 37.8504C116.798 38.4448 116.798 39.4087 116.221 40.0031C115.644 40.5976 114.709 40.5976 114.132 40.0031C113.555 39.4087 113.555 38.4448 114.132 37.8504C114.709 37.2559 115.644 37.2559 116.221 37.8504Z" stroke="#98A5B1"/>
<path d="M116.24 43.7127C116.817 44.3072 116.817 45.271 116.24 45.8654C115.663 46.4599 114.727 46.4599 114.15 45.8654C113.573 45.271 113.573 44.3072 114.15 43.7127C114.727 43.1182 115.663 43.1182 116.24 43.7127Z" stroke="#98A5B1"/>
<path d="M116.166 49.4807C116.743 50.0752 116.743 51.039 116.166 51.6335C115.59 52.228 114.654 52.228 114.077 51.6335C113.5 51.039 113.5 50.0752 114.077 49.4807C114.654 48.8863 115.59 48.8863 116.166 49.4807Z" stroke="#98A5B1"/>
<path d="M50.0458 52.0964L49.9701 52.11L49.8973 52.135C49.6785 52.2102 49.5649 52.2142 49.1862 52.2142C46.3863 52.2142 43.9707 49.8748 43.9707 46.8102C43.9707 43.8515 46.2835 41.4062 49.1862 41.4062C49.5649 41.4062 49.6785 41.4103 49.8973 41.4854L49.9909 41.5176L50.089 41.5308C52.5219 41.8577 54.4017 44.058 54.4017 46.8102C54.4017 49.5264 52.5489 51.6479 50.0458 52.0964Z" stroke="#3482FC" stroke-width="2"/>
<path d="M38 109V100H121V109H38Z" stroke="#3482FC" stroke-width="2"/>
<path d="M122.995 99H36.8935C35.4996 99 34 97.4843 34 95.303V73.697C34 71.5157 35.4996 70 36.8935 70H123.107C124.5 70 126 71.5157 126 73.697V95.2804C125.894 97.5082 124.481 99 122.995 99Z" stroke="#3482FC" stroke-width="2"/>
<mask id="path-37-inside-2_1164_32642" fill="white">
<path d="M45.8195 69.3575H123.643C125.456 69.3575 126.88 70.8251 126.88 72.6929V96.9746C126.88 98.8425 125.456 100.31 123.643 100.31H36.2373C34.4244 100.31 33 98.8425 33 96.9746V72.5595C33 70.6917 34.4244 69.2241 36.2373 69.2241H38.4386"/>
</mask>
<path d="M45.8195 71.3575H123.643V67.3575H45.8195V71.3575ZM123.643 71.3575C124.295 71.3575 124.88 71.873 124.88 72.6929H128.88C128.88 69.7773 126.616 67.3575 123.643 67.3575V71.3575ZM124.88 72.6929V96.9746H128.88V72.6929H124.88ZM124.88 96.9746C124.88 97.7946 124.295 98.31 123.643 98.31V102.31C126.616 102.31 128.88 99.8903 128.88 96.9746H124.88ZM123.643 98.31H36.2373V102.31H123.643V98.31ZM36.2373 98.31C35.5848 98.31 35 97.7946 35 96.9746H31C31 99.8903 33.2639 102.31 36.2373 102.31V98.31ZM35 96.9746V72.5595H31V96.9746H35ZM35 72.5595C35 71.7395 35.5848 71.2241 36.2373 71.2241V67.2241C33.2639 67.2241 31 69.6439 31 72.5595H35ZM36.2373 71.2241H38.4386V67.2241H36.2373V71.2241Z" fill="#3482FC" mask="url(#path-37-inside-2_1164_32642)"/>
<path d="M69.8305 77.7942C70.4075 78.3887 70.4075 79.3525 69.8305 79.947C69.2536 80.5415 68.3181 80.5415 67.7411 79.947C67.1642 79.3525 67.1642 78.3887 67.7411 77.7942C68.3181 77.1997 69.2536 77.1997 69.8305 77.7942Z" stroke="#98A5B1"/>
<path d="M69.8491 83.6565C70.4261 84.251 70.4261 85.2148 69.8491 85.8093C69.2721 86.4038 68.3367 86.4038 67.7597 85.8093C67.1827 85.2148 67.1827 84.251 67.7597 83.6565C68.3367 83.062 69.2721 83.062 69.8491 83.6565Z" stroke="#98A5B1"/>
<path d="M69.9673 91.2808C69.9673 92.1234 69.3081 92.7808 68.5261 92.7808C67.7442 92.7808 67.085 92.1234 67.085 91.2808C67.085 90.4382 67.7442 89.7808 68.5261 89.7808C69.3081 89.7808 69.9673 90.4382 69.9673 91.2808Z" stroke="#3482FC"/>
<path d="M75.5298 80.9729C76.1068 81.5674 76.1068 82.5312 75.5298 83.1257C74.9529 83.7202 74.0174 83.7202 73.4404 83.1257C72.8634 82.5312 72.8634 81.5674 73.4404 80.9729C74.0174 80.3785 74.9529 80.3785 75.5298 80.9729Z" stroke="#98A5B1"/>
<path d="M75.5484 86.8352C76.1254 87.4297 76.1254 88.3935 75.5484 88.988C74.9714 89.5825 74.0359 89.5825 73.459 88.988C72.882 88.3935 72.882 87.4297 73.459 86.8352C74.0359 86.2408 74.9714 86.2408 75.5484 86.8352Z" stroke="#3482FC"/>
<path d="M81.1186 77.8504C81.6956 78.4448 81.6956 79.4087 81.1186 80.0032C80.5417 80.5976 79.6062 80.5976 79.0292 80.0032C78.4523 79.4087 78.4523 78.4448 79.0292 77.8504C79.6062 77.2559 80.5417 77.2559 81.1186 77.8504Z" stroke="#98A5B1"/>
<path d="M81.1373 83.7127C81.7142 84.3072 81.7142 85.271 81.1373 85.8654C80.5603 86.4599 79.6248 86.4599 79.0478 85.8654C78.4708 85.271 78.4708 84.3072 79.0478 83.7127C79.6248 83.1182 80.5603 83.1182 81.1373 83.7127Z" stroke="#98A5B1"/>
<path d="M81.1557 89.5755C81.7327 90.1699 81.7327 91.1338 81.1557 91.7283C80.5788 92.3227 79.6433 92.3227 79.0663 91.7283C78.4894 91.1338 78.4894 90.1699 79.0663 89.5755C79.6433 88.981 80.5788 88.981 81.1557 89.5755Z" stroke="#98A5B1"/>
<path d="M86.8189 81.0296C87.3959 81.624 87.3959 82.5879 86.8189 83.1823C86.2419 83.7768 85.3064 83.7768 84.7295 83.1823C84.1525 82.5879 84.1525 81.624 84.7295 81.0296C85.3064 80.4351 86.2419 80.4351 86.8189 81.0296Z" stroke="#98A5B1"/>
<path d="M86.8374 86.8919C87.4143 87.4863 87.4143 88.4502 86.8374 89.0447C86.2604 89.6391 85.325 89.6391 84.748 89.0447C84.171 88.4502 84.171 87.4863 84.748 86.8919C85.325 86.2974 86.2604 86.2974 86.8374 86.8919Z" stroke="#98A5B1"/>
<path d="M92.4985 77.8128C93.0755 78.4072 93.0755 79.3711 92.4985 79.9656C91.9215 80.56 90.9861 80.56 90.4091 79.9656C89.8321 79.3711 89.8321 78.4072 90.4091 77.8128C90.9861 77.2183 91.9215 77.2183 92.4985 77.8128Z" stroke="#98A5B1"/>
<path d="M92.5171 83.6751C93.0941 84.2696 93.0941 85.2334 92.5171 85.8278C91.9402 86.4223 91.0047 86.4223 90.4277 85.8278C89.8507 85.2334 89.8507 84.2696 90.4277 83.6751C91.0047 83.0806 91.9402 83.0806 92.5171 83.6751Z" stroke="#98A5B1"/>
<path d="M92.5357 89.5374C93.1127 90.1319 93.1127 91.0957 92.5357 91.6901C91.9587 92.2846 91.0232 92.2846 90.4463 91.6901C89.8693 91.0957 89.8693 90.1319 90.4463 89.5374C91.0232 88.9429 91.9587 88.9429 92.5357 89.5374Z" stroke="#98A5B1"/>
<path d="M98.1988 80.9915C98.7758 81.586 98.7758 82.5498 98.1988 83.1442C97.6218 83.7387 96.6863 83.7387 96.1093 83.1442C95.5324 82.5498 95.5324 81.586 96.1093 80.9915C96.6863 80.397 97.6218 80.397 98.1988 80.9915Z" stroke="#98A5B1"/>
<path d="M98.2173 86.8538C98.7943 87.4483 98.7943 88.4121 98.2173 89.0066C97.6404 89.601 96.7049 89.601 96.1279 89.0066C95.5509 88.4121 95.5509 87.4483 96.1279 86.8538C96.7049 86.2593 97.6404 86.2593 98.2173 86.8538Z" stroke="#98A5B1"/>
<path d="M104.024 79.54C104.024 80.3826 103.365 81.04 102.583 81.04C101.801 81.04 101.142 80.3826 101.142 79.54C101.142 78.6974 101.801 78.04 102.583 78.04C103.365 78.04 104.024 78.6974 104.024 79.54Z" stroke="#3482FC"/>
<path d="M103.897 83.637C104.474 84.2315 104.474 85.1953 103.897 85.7898C103.32 86.3843 102.385 86.3843 101.808 85.7898C101.231 85.1953 101.231 84.2315 101.808 83.637C102.385 83.0425 103.32 83.0425 103.897 83.637Z" stroke="#98A5B1"/>
<path d="M103.915 89.4998C104.492 90.0943 104.492 91.0581 103.915 91.6525C103.338 92.247 102.402 92.247 101.825 91.6525C101.248 91.0581 101.248 90.0943 101.825 89.4998C102.402 88.9053 103.338 88.9053 103.915 89.4998Z" stroke="#98A5B1"/>
<path d="M109.487 81.0481C110.064 81.6426 110.064 82.6064 109.487 83.2009C108.91 83.7954 107.974 83.7954 107.397 83.2009C106.82 82.6064 106.82 81.6426 107.397 81.0481C107.974 80.4536 108.91 80.4536 109.487 81.0481Z" stroke="#98A5B1"/>
<path d="M109.505 86.9104C110.082 87.5049 110.082 88.4687 109.505 89.0632C108.928 89.6577 107.993 89.6577 107.416 89.0632C106.839 88.4687 106.839 87.5049 107.416 86.9104C107.993 86.3159 108.928 86.3159 109.505 86.9104Z" stroke="#98A5B1"/>
<path d="M115.166 77.8313C115.743 78.4258 115.743 79.3896 115.166 79.9841C114.59 80.5786 113.654 80.5786 113.077 79.9841C112.5 79.3896 112.5 78.4258 113.077 77.8313C113.654 77.2368 114.59 77.2368 115.166 77.8313Z" stroke="#98A5B1"/>
<path d="M115.185 83.6936C115.762 84.2881 115.762 85.2519 115.185 85.8464C114.608 86.4409 113.673 86.4409 113.096 85.8464C112.519 85.2519 112.519 84.2881 113.096 83.6936C113.673 83.0992 114.608 83.0992 115.185 83.6936Z" stroke="#98A5B1"/>
<path d="M115.204 89.5559C115.781 90.1504 115.781 91.1142 115.204 91.7087C114.627 92.3032 113.691 92.3032 113.114 91.7087C112.537 91.1142 112.537 90.1504 113.114 89.5559C113.691 88.9614 114.627 88.9614 115.204 89.5559Z" stroke="#98A5B1"/>
<path d="M50.0458 91.3211L49.9701 91.3346L49.8973 91.3596C49.6785 91.4348 49.5648 91.4388 49.1862 91.4388C46.3863 91.4388 43.9707 89.0994 43.9707 86.0348C43.9707 83.0761 46.2835 80.6309 49.1862 80.6309C49.5648 80.6309 49.6785 80.6349 49.8973 80.7101L49.9701 80.735L50.0458 80.7486C52.5363 81.1949 54.4017 83.4391 54.4017 86.0348C54.4017 88.751 52.5489 90.8725 50.0458 91.3211Z" stroke="#3482FC" stroke-width="2"/>
<path d="M122.995 138H36.8935C35.4718 138 34 136.521 34 134.455V113.545C34 111.479 35.4718 110 36.8935 110H123.107C124.528 110 126 111.479 126 113.545V134.432C125.897 136.653 124.524 138 122.995 138Z" stroke="#3482FC" stroke-width="2"/>
<mask id="path-64-inside-3_1164_32642" fill="white">
<path d="M45.8195 108.582H123.643C125.456 108.582 126.88 110.05 126.88 111.917V136.199C126.88 138.067 125.456 139.535 123.643 139.535H36.2373C34.4244 139.535 33 138.067 33 136.199V111.917C33 110.05 34.4244 108.582 36.2373 108.582H38.4386"/>
</mask>
<path d="M45.8195 110.582H123.643V106.582H45.8195V110.582ZM123.643 110.582C124.295 110.582 124.88 111.097 124.88 111.917H128.88C128.88 109.002 126.616 106.582 123.643 106.582V110.582ZM124.88 111.917V136.199H128.88V111.917H124.88ZM124.88 136.199C124.88 137.019 124.295 137.535 123.643 137.535V141.535C126.616 141.535 128.88 139.115 128.88 136.199H124.88ZM123.643 137.535H36.2373V141.535H123.643V137.535ZM36.2373 137.535C35.5848 137.535 35 137.019 35 136.199H31C31 139.115 33.2639 141.535 36.2373 141.535V137.535ZM35 136.199V111.917H31V136.199H35ZM35 111.917C35 111.097 35.5848 110.582 36.2373 110.582V106.582C33.2639 106.582 31 109.002 31 111.917H35ZM36.2373 110.582H38.4386V106.582H36.2373V110.582Z" fill="#3482FC" mask="url(#path-64-inside-3_1164_32642)"/>
<path d="M69.8305 116.813C70.4075 117.408 70.4075 118.372 69.8305 118.966C69.2536 119.561 68.3181 119.561 67.7411 118.966C67.1642 118.372 67.1642 117.408 67.7411 116.813C68.3181 116.219 69.2536 116.219 69.8305 116.813Z" stroke="#98A5B1"/>
<path d="M69.8491 122.676C70.4261 123.27 70.4261 124.234 69.8491 124.828C69.2721 125.423 68.3367 125.423 67.7597 124.828C67.1827 124.234 67.1827 123.27 67.7597 122.676C68.3367 122.081 69.2721 122.081 69.8491 122.676Z" stroke="#98A5B1"/>
<path d="M69.8677 128.538C70.4447 129.132 70.4447 130.096 69.8677 130.691C69.2907 131.285 68.3553 131.285 67.7783 130.691C67.2013 130.096 67.2013 129.132 67.7783 128.538C68.3553 127.943 69.2907 127.943 69.8677 128.538Z" stroke="#98A5B1"/>
<path d="M75.6333 121.775C75.6333 122.618 74.9741 123.275 74.1921 123.275C73.4102 123.275 72.751 122.618 72.751 121.775C72.751 120.933 73.4102 120.275 74.1921 120.275C74.9741 120.275 75.6333 120.933 75.6333 121.775Z" stroke="#3482FC"/>
<path d="M75.5484 125.854C76.1254 126.449 76.1254 127.413 75.5484 128.007C74.9714 128.602 74.0359 128.602 73.459 128.007C72.882 127.413 72.882 126.449 73.459 125.854C74.0359 125.26 74.9714 125.26 75.5484 125.854Z" stroke="#98A5B1"/>
<path d="M81.1186 116.87C81.6956 117.464 81.6956 118.428 81.1186 119.023C80.5417 119.617 79.6062 119.617 79.0292 119.023C78.4523 118.428 78.4523 117.464 79.0292 116.87C79.6062 116.275 80.5417 116.275 81.1186 116.87Z" stroke="#98A5B1"/>
<path d="M81.1373 122.732C81.7142 123.327 81.7142 124.291 81.1373 124.885C80.5603 125.479 79.6248 125.479 79.0478 124.885C78.4708 124.291 78.4708 123.327 79.0478 122.732C79.6248 122.138 80.5603 122.138 81.1373 122.732Z" stroke="#98A5B1"/>
<path d="M81.1557 128.595C81.7327 129.189 81.7327 130.153 81.1557 130.747C80.5788 131.342 79.6433 131.342 79.0663 130.747C78.4894 130.153 78.4894 129.189 79.0663 128.595C79.6433 128 80.5788 128 81.1557 128.595Z" stroke="#98A5B1"/>
<path d="M86.8188 120.049C87.3958 120.643 87.3958 121.607 86.8188 122.201C86.2418 122.796 85.3064 122.796 84.7294 122.201C84.1525 121.607 84.1525 120.643 84.7294 120.049C85.3064 119.454 86.2418 119.454 86.8188 120.049Z" stroke="#98A5B1"/>
<path d="M86.8374 125.911C87.4143 126.505 87.4143 127.469 86.8374 128.064C86.2604 128.658 85.325 128.658 84.748 128.064C84.171 127.469 84.171 126.505 84.748 125.911C85.325 125.316 86.2604 125.316 86.8374 125.911Z" stroke="#98A5B1"/>
<path d="M92.4986 116.832C93.0756 117.426 93.0756 118.39 92.4986 118.985C91.9216 119.579 90.9861 119.579 90.4092 118.985C89.8322 118.39 89.8322 117.426 90.4092 116.832C90.9861 116.237 91.9216 116.237 92.4986 116.832Z" stroke="#98A5B1"/>
<path d="M92.5171 122.694C93.094 123.289 93.094 124.252 92.5171 124.847C91.9401 125.441 91.0046 125.441 90.4277 124.847C89.8507 124.252 89.8507 123.289 90.4277 122.694C91.0046 122.1 91.9401 122.1 92.5171 122.694Z" stroke="#98A5B1"/>
<path d="M92.5357 128.556C93.1127 129.151 93.1127 130.115 92.5357 130.709C91.9587 131.304 91.0232 131.304 90.4463 130.709C89.8693 130.115 89.8693 129.151 90.4463 128.556C91.0232 127.962 91.9587 127.962 92.5357 128.556Z" stroke="#98A5B1"/>
<path d="M98.1988 120.011C98.7758 120.605 98.7758 121.569 98.1988 122.163C97.6218 122.758 96.6863 122.758 96.1093 122.163C95.5324 121.569 95.5324 120.605 96.1093 120.011C96.6863 119.416 97.6218 119.416 98.1988 120.011Z" stroke="#98A5B1"/>
<path d="M98.2173 125.873C98.7943 126.467 98.7943 127.431 98.2173 128.026C97.6404 128.62 96.7049 128.62 96.1279 128.026C95.5509 127.431 95.5509 126.467 96.1279 125.873C96.7049 125.278 97.6404 125.278 98.2173 125.873Z" stroke="#98A5B1"/>
<path d="M103.878 116.794C104.455 117.388 104.455 118.352 103.878 118.946C103.301 119.541 102.366 119.541 101.789 118.946C101.212 118.352 101.212 117.388 101.789 116.794C102.366 116.199 103.301 116.199 103.878 116.794Z" stroke="#98A5B1"/>
<path d="M103.897 122.656C104.474 123.251 104.474 124.214 103.897 124.809C103.32 125.403 102.385 125.403 101.808 124.809C101.231 124.214 101.231 123.251 101.808 122.656C102.385 122.062 103.32 122.062 103.897 122.656Z" stroke="#98A5B1"/>
<path d="M103.992 130.314C103.992 131.157 103.332 131.814 102.551 131.814C101.769 131.814 101.109 131.157 101.109 130.314C101.109 129.471 101.769 128.814 102.551 128.814C103.332 128.814 103.992 129.471 103.992 130.314Z" stroke="#3482FC"/>
<path d="M109.487 120.067C110.064 120.662 110.064 121.625 109.487 122.22C108.91 122.814 107.974 122.814 107.397 122.22C106.82 121.625 106.82 120.662 107.397 120.067C107.974 119.473 108.91 119.473 109.487 120.067Z" stroke="#98A5B1"/>
<path d="M109.505 125.929C110.082 126.524 110.082 127.488 109.505 128.082C108.928 128.677 107.993 128.677 107.416 128.082C106.839 127.488 106.839 126.524 107.416 125.929C107.993 125.335 108.928 125.335 109.505 125.929Z" stroke="#98A5B1"/>
<path d="M115.166 116.85C115.743 117.445 115.743 118.409 115.166 119.003C114.59 119.598 113.654 119.598 113.077 119.003C112.5 118.409 112.5 117.445 113.077 116.85C113.654 116.256 114.59 116.256 115.166 116.85Z" stroke="#98A5B1"/>
<path d="M115.185 122.713C115.762 123.307 115.762 124.271 115.185 124.865C114.608 125.46 113.673 125.46 113.096 124.865C112.519 124.271 112.519 123.307 113.096 122.713C113.673 122.118 114.608 122.118 115.185 122.713Z" stroke="#98A5B1"/>
<path d="M115.204 128.575C115.781 129.17 115.781 130.134 115.204 130.728C114.627 131.323 113.691 131.323 113.114 130.728C112.537 130.134 112.537 129.17 113.114 128.575C113.691 127.981 114.627 127.981 115.204 128.575Z" stroke="#98A5B1"/>
<path d="M50.0458 130.678L49.9701 130.692L49.8973 130.717C49.6785 130.792 49.5649 130.796 49.1862 130.796C46.3863 130.796 43.9707 128.457 43.9707 125.392C43.9707 122.434 46.2835 119.988 49.1862 119.988C49.5649 119.988 49.6785 119.992 49.8973 120.067L49.9701 120.092L50.0458 120.106C52.5489 120.555 54.4017 122.676 54.4017 125.392C54.4017 128.108 52.5489 130.23 50.0458 130.678Z" stroke="#3482FC" stroke-width="2"/>
<defs>
<filter id="filter0_i_1164_32642" x="12" y="14.6465" width="136.224" height="140.354" filterUnits="userSpaceOnUse" color-interpolation-filters="sRGB">
<feFlood flood-opacity="0" result="BackgroundImageFix"/>
<feBlend mode="normal" in="SourceGraphic" in2="BackgroundImageFix" result="shape"/>
<feColorMatrix in="SourceAlpha" type="matrix" values="0 0 0 0 0 0 0 0 0 0 0 0 0 0 0 0 0 0 127 0" result="hardAlpha"/>
<feOffset/>
<feGaussianBlur stdDeviation="7"/>
<feComposite in2="hardAlpha" operator="arithmetic" k2="-1" k3="1"/>
<feColorMatrix type="matrix" values="0 0 0 0 0.203922 0 0 0 0 0.509804 0 0 0 0 0.988235 0 0 0 1 0"/>
<feBlend mode="normal" in2="shape" result="effect1_innerShadow_1164_32642"/>
</filter>
<linearGradient id="paint0_linear_1164_32642" x1="20.7886" y1="14.6465" x2="147.978" y2="154.626" gradientUnits="userSpaceOnUse">
<stop stop-color="#F5F5F5" stop-opacity="0"/>
<stop offset="1" stop-color="#3482FC" stop-opacity="0.42"/>
</linearGradient>
</defs>
</svg>
