<svg width="64" height="64" viewBox="0 0 64 64" fill="none" xmlns="http://www.w3.org/2000/svg">
<rect opacity="0.35" x="0.5" y="0.5" width="63" height="63" rx="15.5" stroke="#3482FC"/>
<rect x="5" y="5" width="54" height="54" rx="14" fill="url(#paint0_linear_1164_33715)"/>
<rect x="5.5" y="5.5" width="53" height="53" rx="13.5" stroke="#3482FC" stroke-opacity="0.6"/>
<path d="M32 37C34.7614 37 37 34.7614 37 32C37 29.2386 34.7614 27 32 27C29.2386 27 27 29.2386 27 32C27 34.7614 29.2386 37 32 37Z" stroke="#3482FC" stroke-width="2" stroke-linecap="round" stroke-linejoin="round"/>
<path d="M41.2182 25.7112C41.5325 26.1726 41.8116 26.6569 42.0533 27.1602L45.4992 29.0731C45.919 31.0009 45.9204 32.9962 45.5035 34.9245L42.0556 36.8386C41.8131 37.3414 41.5332 37.8253 41.2183 38.2862L41.2846 42.2271C39.825 43.5544 38.0977 44.5533 36.2193 45.1564L32.8377 43.1274C32.281 43.1689 31.7219 43.1684 31.1653 43.1261L27.7857 45.154C25.9063 44.5536 24.1776 43.5571 22.7161 42.2319L22.7824 38.2889C22.4682 37.8275 22.1891 37.3431 21.9474 36.8399L18.5014 34.927C18.0817 32.9992 18.0802 31.0039 18.4972 29.0756L21.9451 27.1616C22.1875 26.6587 22.4675 26.1748 22.7824 25.7139L22.7161 21.7731C24.1757 20.4458 25.903 19.4468 27.7814 18.8438L31.163 20.8727C31.7197 20.8313 32.2788 20.8317 32.8353 20.874L36.215 18.8462C38.0944 19.4466 39.8231 20.443 41.2846 21.7682L41.2182 25.7112Z" stroke="#3482FC" stroke-width="2" stroke-linecap="round" stroke-linejoin="round"/>
<defs>
<linearGradient id="paint0_linear_1164_33715" x1="8.48387" y1="5" x2="57.2581" y2="60.3065" gradientUnits="userSpaceOnUse">
<stop stop-color="#F5F5F5" stop-opacity="0"/>
<stop offset="1" stop-color="#3482FC" stop-opacity="0.42"/>
</linearGradient>
</defs>
</svg>
