<svg width="48" height="48" viewBox="0 0 48 48" fill="none" xmlns="http://www.w3.org/2000/svg">
<rect width="48" height="48" rx="10" fill="#1E2228"/>
<path d="M20.5067 30.3323H16.8977L13.2098 21.0561C13.0766 20.7425 12.628 20.7388 12.4896 21.0503L8.63284 30.3323H5L10.091 18.8626C10.6021 17.7103 11.6608 17.0005 12.8683 17.0005H12.8832C14.0966 17.0093 15.1553 17.7427 15.6545 18.9135L20.5067 30.3323Z" fill="#F5F5F5"/>
<path d="M26.9934 27.9943L28.3065 30.3329H24.3857L22.002 24.8031H25.9101C27.1928 24.8031 28.2366 23.7914 28.2366 22.5485C28.2366 21.3063 27.1928 20.2939 25.9101 20.2939H20.424L18.8379 17.0003H25.9109C29.0296 17.0003 31.5651 19.4883 31.5651 22.5485C31.5636 25.2427 29.5943 27.4973 26.9934 27.9943Z" fill="#F5F5F5"/>
<path d="M43.9998 30.3322H39.187L34.1838 25.5837C33.5604 24.9909 33.2099 24.1707 33.2248 23.332C33.2397 22.4904 33.6214 21.679 34.2716 21.1076L38.9304 16.9996H43.9366L37.365 22.8674C37.0444 23.1501 37.0355 23.6435 37.345 23.9373L43.9998 30.3322Z" fill="#F5F5F5"/>
</svg>
