<svg width="26" height="26" viewBox="0 0 26 26" fill="none" xmlns="http://www.w3.org/2000/svg">
<path d="M12.999 0C20.1791 0 25.999 5.81994 25.999 13C25.999 20.1801 20.1791 26 12.999 26C5.81896 26 -0.000976562 20.1801 -0.000976562 13C-0.000976562 5.81994 5.81896 0 12.999 0ZM15.7225 4.5175C15.5243 4.42 15.326 4.5175 15.2773 4.71494C15.2277 4.7645 15.2277 4.81406 15.2277 4.91237V5.603L15.2358 5.6875C15.2783 5.85466 15.381 6.00022 15.5243 6.09619C19.3869 7.47744 21.3678 11.7674 19.9313 15.5642C19.1886 17.6361 17.5547 19.2132 15.5243 19.9534C15.326 20.0517 15.2277 20.1996 15.2277 20.4466V21.1372L15.2318 21.2087C15.2395 21.2867 15.2721 21.3602 15.3248 21.4183C15.3774 21.4763 15.4474 21.516 15.5243 21.5312C15.5738 21.5312 15.673 21.5312 15.7225 21.4825C16.8369 21.1345 17.8715 20.5695 18.7666 19.82C19.6618 19.0705 20.3998 18.1513 20.9382 17.1155C21.4767 16.0796 21.8049 14.9474 21.904 13.7841C22.0031 12.6209 21.8711 11.4495 21.5156 10.3374C20.6251 7.52619 18.446 5.40556 15.7225 4.51831V4.5175ZM10.4738 4.46875C10.4242 4.46875 10.3251 4.46875 10.2755 4.5175C9.16112 4.86551 8.12657 5.43053 7.23143 6.18002C6.33629 6.9295 5.59825 7.84865 5.0598 8.88455C4.52135 9.92044 4.19313 11.0526 4.09403 12.2159C3.99494 13.3791 4.12692 14.5505 4.4824 15.6626C5.3729 18.4251 7.50246 20.5457 10.2755 21.4329C10.4738 21.5312 10.672 21.4329 10.7208 21.2355C10.7703 21.1868 10.7703 21.1364 10.7703 21.0381V20.3474L10.7622 20.2824C10.7281 20.1451 10.6005 19.9883 10.4738 19.9038C6.61115 18.5226 4.63027 14.2326 6.06677 10.4358C6.8094 8.36388 8.44334 6.78681 10.4738 6.04663C10.672 5.94831 10.7703 5.80044 10.7703 5.55344V4.86281L10.7663 4.79131C10.7585 4.71329 10.7259 4.63982 10.6733 4.58174C10.6206 4.52366 10.5507 4.48405 10.4738 4.46875ZM13.346 7.033H12.6025L12.531 7.0395C12.3685 7.072 12.2499 7.21175 12.206 7.42788V8.56213L12.0378 8.58813C10.6501 8.83512 9.78071 9.79306 9.78071 10.9785C9.78071 12.6051 10.7703 13.2462 12.8503 13.4932C14.2373 13.7394 14.6825 14.0359 14.6825 14.8249C14.6825 15.613 13.9895 16.1558 13.0486 16.1558C11.7608 16.1558 11.3155 15.6138 11.1668 14.8736C11.1181 14.677 10.9686 14.5779 10.8199 14.5779H9.97815L9.91396 14.5836C9.83384 14.5965 9.76113 14.638 9.70929 14.7005C9.65745 14.7629 9.63 14.8421 9.63202 14.9232V14.9719L9.65884 15.1182C9.89446 16.2752 10.6875 17.1031 12.2564 17.3396V18.5234L12.2629 18.5949C12.2954 18.7558 12.436 18.8744 12.6529 18.9174H13.3955L13.467 18.9109C13.6295 18.8784 13.7481 18.7387 13.792 18.5234V17.3388L13.9602 17.3062C15.352 17.0121 16.2677 16.0054 16.2677 14.7249C16.2677 12.9992 15.2277 12.4077 13.1477 12.1607C11.6616 11.9633 11.3651 11.5692 11.3651 10.8786C11.3651 10.1879 11.8607 9.74431 12.8503 9.74431C13.7416 9.74431 14.2373 10.0401 14.4843 10.7802C14.51 10.8518 14.5571 10.9138 14.6191 10.9578C14.6811 11.0018 14.7552 11.0258 14.8312 11.0264H15.6234L15.6876 11.0216C15.768 11.0088 15.841 10.9672 15.893 10.9046C15.9451 10.8419 15.9725 10.7625 15.9703 10.6811V10.6324L15.9403 10.4918C15.8183 9.98677 15.5401 9.53306 15.1454 9.19522C14.7507 8.85738 14.2595 8.65262 13.7416 8.61006V7.42788L13.7351 7.35637C13.7026 7.19469 13.5621 7.07606 13.3451 7.033H13.346Z" fill="#6F6F6F"/>
</svg>
