<svg width="26" height="26" viewBox="0 0 26 26" fill="none" xmlns="http://www.w3.org/2000/svg">
<path d="M12.3334 16.5478C13.537 16.5434 16.1684 16.5337 16.1381 14.8599C16.1088 13.1483 13.5814 13.2512 12.3497 13.3021C12.2121 13.3075 12.0897 13.3129 11.99 13.314L12.0463 16.5499C12.1276 16.5478 12.2251 16.5478 12.3334 16.5478ZM12.2056 11.832C13.2098 11.8309 15.4014 11.8288 15.3754 10.3067C15.3473 8.74994 13.2423 8.84203 12.2143 8.88753C12.0983 8.89294 11.9976 8.89728 11.9131 8.89836L11.964 11.8331L12.2056 11.832Z" fill="#6F6F6F"/>
<path fill-rule="evenodd" clip-rule="evenodd" d="M9.85312 25.6108C16.819 27.3474 23.8736 23.1083 25.6102 16.1446C27.3468 9.17987 23.1066 2.12521 16.1408 0.389708C9.17929 -1.34796 2.12462 2.89221 0.389121 9.85804C-1.34746 16.8217 2.89162 23.8764 9.8542 25.6119L9.85312 25.6108ZM14.492 7.17246C16.3921 7.30679 17.9045 7.86362 18.1027 9.60129C18.25 10.8731 17.73 11.6477 16.8861 12.0962C18.2945 12.4082 19.1882 13.2261 19.0474 15.0981C18.873 17.4219 17.1537 18.0751 14.6859 18.2593L14.727 20.6968L13.258 20.7239L13.2158 18.3189C12.8355 18.3254 12.4455 18.3297 12.0415 18.3275L12.0848 20.7434L10.6158 20.7694L10.5725 18.3275L10.1575 18.3308C9.94737 18.3319 9.73504 18.333 9.52271 18.3373L7.60954 18.3698L7.87062 16.6105C7.87062 16.6105 8.95829 16.6083 8.93879 16.592C9.35479 16.5834 9.45987 16.2833 9.48262 16.0948L9.41654 12.2414L9.52162 12.2392H9.57146C9.51968 12.2333 9.46756 12.2307 9.41545 12.2316L9.36779 9.47996C9.30604 9.18312 9.1067 8.84079 8.51195 8.85162C8.5282 8.82996 7.44379 8.87004 7.44379 8.87004L7.41562 7.30137L9.44362 7.26671V7.27429C9.74804 7.26887 10.0611 7.25804 10.3785 7.24612L10.3374 4.83137L11.8064 4.80646L11.8475 7.17246C12.2397 7.15837 12.634 7.14321 13.0208 7.13671L12.9796 4.78587L14.4497 4.75987L14.492 7.17462V7.17246Z" fill="#6F6F6F"/>
</svg>
