<svg width="36" height="36" viewBox="0 0 36 36" fill="none" xmlns="http://www.w3.org/2000/svg">
<path fill-rule="evenodd" clip-rule="evenodd" d="M6 0C2.68629 0 0 2.68629 0 6V30C0 33.3137 2.68629 36 6 36H30C33.3137 36 36 33.3137 36 30V6C36 2.68629 33.3137 0 30 0H6ZM21.7179 9.00129C23.5759 9.30891 25.3529 9.846 27.0101 10.575C27.0245 10.5809 27.0367 10.5908 27.0439 10.6047C29.98 14.7452 31.4302 19.4158 30.8881 24.7928C30.886 24.8155 30.8737 24.8363 30.8542 24.8501C28.6303 26.4159 26.4761 27.3665 24.3517 27.9965C24.3179 28.0064 24.281 27.9946 24.2605 27.9669C23.7696 27.3121 23.3238 26.6216 22.9333 25.8966C22.9108 25.8541 22.9313 25.8027 22.9774 25.7858C23.6855 25.5297 24.3589 25.223 25.0066 24.86C25.0578 24.8313 25.0609 24.7611 25.0137 24.7275C24.8764 24.6295 24.7401 24.5267 24.6099 24.4238C24.5854 24.405 24.5525 24.4011 24.5249 24.4139C20.32 26.2765 15.7134 26.2765 11.4583 24.4139C11.4306 24.402 11.3978 24.406 11.3743 24.4248C11.2441 24.5277 11.1078 24.6295 10.9715 24.7275C10.9244 24.7611 10.9285 24.8313 10.9797 24.86C11.6274 25.2161 12.3007 25.5297 13.0079 25.7868C13.054 25.8036 13.0755 25.8541 13.0529 25.8966C12.6707 26.6227 12.2249 27.3131 11.7248 27.9679C11.7032 27.9946 11.6674 28.0064 11.6336 27.9965C9.51935 27.3665 7.36514 26.4159 5.14126 24.8501C5.12282 24.8363 5.10949 24.8145 5.10745 24.7918C4.65447 20.1409 5.57784 15.4316 8.94852 10.6037C8.95669 10.5908 8.96899 10.5809 8.98335 10.575C10.6415 9.84502 12.4186 9.30792 14.2756 9.00129C14.3094 8.99634 14.3432 9.01118 14.3606 9.03986C14.5902 9.42957 14.8525 9.9291 15.0298 10.3376C16.9873 10.0508 18.9754 10.0508 20.9739 10.3376C21.1511 9.93798 21.4043 9.42957 21.6328 9.03986C21.6503 9.01019 21.6841 8.99535 21.7179 9.00129ZM11.3517 19.4475C11.3517 20.8323 12.4073 21.9599 13.6884 21.9599C14.9899 21.9599 16.025 20.8323 16.025 19.4475C16.0455 18.0726 15.0001 16.9351 13.6884 16.9351C12.3868 16.9351 11.3517 18.0627 11.3517 19.4475ZM19.9911 19.4475C19.9911 20.8323 21.0466 21.9599 22.3276 21.9599C23.6394 21.9599 24.6643 20.8323 24.6643 19.4475C24.6847 18.0726 23.6394 16.9351 22.3276 16.9351C21.0261 16.9351 19.9911 18.0627 19.9911 19.4475Z" fill="#F5F5F5"/>
</svg>
