<svg width="18" height="22" viewBox="0 0 18 22" fill="none" xmlns="http://www.w3.org/2000/svg">
<path fill-rule="evenodd" clip-rule="evenodd" d="M9.95926 20.0461C9.64092 20.3618 9.32039 20.6796 9 21C8.67961 20.6796 8.35922 20.3619 8.04088 20.0462C4.38493 16.4209 1 13.0643 1 9C1 4.58172 4.58172 1 9 1C13.4183 1 17 4.58172 17 9C17 13.0643 13.6152 16.4208 9.95926 20.0461ZM9 12C10.6569 12 12 10.6569 12 9C12 7.34315 10.6569 6 9 6C7.34315 6 6 7.34315 6 9C6 10.6569 7.34315 12 9 12Z" stroke="#F5F5F5" stroke-width="2" stroke-linecap="round" stroke-linejoin="round"/>
</svg>
