<svg width="19" height="25" viewBox="0 0 19 25" fill="none" xmlns="http://www.w3.org/2000/svg">
<path fill-rule="evenodd" clip-rule="evenodd" d="M11.6855 0.193964C10.8898 0.761799 9.79587 1.84923 9.07914 2.78479C8.0245 4.16148 7.20458 5.8023 6.84597 7.25374C6.5369 8.50458 6.33092 10.3528 6.33043 11.8795C6.33018 12.4981 6.33874 12.4922 5.80919 12.24C4.85907 11.7873 4.17194 10.7376 3.77789 9.13671C3.60596 8.43823 3.49025 8.30978 3.0673 8.34787C2.74457 8.37686 1.8623 9.18397 1.40916 9.86473C0.923511 10.5943 0.518974 11.5955 0.294236 12.624C0.109982 13.4673 0.0439615 14.0555 0.011743 15.1413C-0.0136953 16.0001 -0.0036488 16.3058 0.0663311 16.8012C0.305817 18.4969 0.927767 19.9927 1.94228 21.3131C2.32841 21.8156 3.22359 22.6987 3.733 23.0796C7.15766 25.6401 11.8376 25.6401 15.2623 23.0796C15.7717 22.6987 16.6669 21.8156 17.053 21.3131C18.3074 19.6805 18.9996 17.675 18.999 15.6753C18.9985 14.1219 18.6718 12.3794 18.135 11.0676C17.5504 9.63898 16.9707 8.69015 15.3128 6.4482C14.1841 4.92206 13.8178 4.36692 13.4602 3.641C12.9768 2.65951 12.7598 1.87218 12.6867 0.834005C12.652 0.341403 12.6444 0.31543 12.4896 0.162719C12.2603 -0.063419 12.0338 -0.0546313 11.6855 0.193964ZM11.8816 2.56695C12.2266 3.84005 12.782 4.83711 14.2408 6.80215C15.8195 8.92864 16.3669 9.78032 16.9011 10.941C17.3466 11.909 17.6176 12.8239 17.7973 13.9666C17.8632 14.3858 17.885 14.8064 17.8835 15.6265C17.8813 16.833 17.8229 17.234 17.509 18.2007C16.8816 20.1329 15.4427 21.8606 13.6242 22.8653C12.887 23.2727 12.877 23.2717 13.14 22.8176C13.926 21.4602 13.9097 19.6195 13.0971 17.9742C12.9855 17.7484 12.5975 17.1248 12.2347 16.5886C11.8719 16.0524 11.5091 15.4773 11.4285 15.3106C11.2595 14.9613 11.1326 14.4747 11.1316 14.1716C11.1306 13.9062 11.0217 13.6962 10.8355 13.6013C10.5133 13.4369 10.3101 13.5381 9.67086 14.1809C8.7478 15.1092 8.18222 16.2245 7.99129 17.493C7.94873 17.7756 7.91359 18.1249 7.91319 18.2691C7.9119 18.7035 7.84202 18.7258 7.66801 18.3472C7.58477 18.1662 7.48505 17.8842 7.44634 17.7206C7.36409 17.3727 7.27263 17.2568 7.02216 17.1827C6.77109 17.1085 6.55581 17.2156 6.20536 17.589C5.66131 18.1687 5.39292 18.8972 5.29162 20.0692C5.20481 21.0738 5.40183 22.0344 5.85532 22.8176C6.11826 23.2717 6.10831 23.2727 5.3711 22.8653C3.55256 21.8606 2.11367 20.1329 1.48627 18.2007C1.15834 17.191 1.11143 16.8493 1.11271 15.48C1.11361 14.5379 1.13518 14.0986 1.2015 13.6737C1.36348 12.6354 1.60515 11.825 1.98029 11.0618C2.20948 10.5955 2.67964 9.9154 2.79812 9.87874C2.82891 9.86922 2.86934 9.92277 2.888 9.99776C3.04493 10.6284 3.67159 11.7841 4.13482 12.2971C4.82309 13.0593 5.74238 13.5108 6.66098 13.5379C6.95708 13.5465 7.04438 13.5307 7.15776 13.4478C7.37275 13.2905 7.41314 13.0958 7.41625 12.2023C7.42383 9.99044 7.66089 8.13383 8.10408 6.81436C8.66322 5.14976 9.66922 3.57256 11.1045 2.11013L11.6505 1.55382L11.7131 1.8651C11.7475 2.03631 11.8234 2.35214 11.8816 2.56695ZM10.3125 15.4396C10.4498 15.8163 10.789 16.3968 11.3073 17.1421C12.234 18.4748 12.4739 19.0343 12.616 20.195C12.7095 20.9586 12.5441 21.7619 12.1613 22.4033C12.0709 22.5547 11.8299 22.8443 11.6257 23.0467C11.0278 23.6397 10.3349 23.926 9.49764 23.926C8.66035 23.926 7.96743 23.6397 7.36953 23.0467C6.94985 22.6305 6.72482 22.2843 6.54824 21.7835C6.26663 20.9847 6.28975 19.9453 6.61153 18.9341C6.65217 18.8065 6.69854 18.8294 6.79247 19.0238C6.92773 19.3036 7.35498 19.7135 7.6594 19.8556C8.01489 20.0215 8.50084 20.0681 8.67852 19.9532C8.89925 19.8106 8.93755 19.6586 8.96947 18.7999C9.02084 17.418 9.21029 16.6651 9.71055 15.8548C9.91113 15.5299 10.1575 15.1895 10.1931 15.1881C10.2081 15.1876 10.2619 15.3007 10.3125 15.4396Z" fill="#F5F5F5"/>
</svg>
