<svg width="22" height="18" viewBox="0 0 22 18" fill="none" xmlns="http://www.w3.org/2000/svg">
<path fill-rule="evenodd" clip-rule="evenodd" d="M21.5871 1.88633C21.4372 1.5689 21.2333 1.28119 20.9849 1.03662C20.7444 0.784147 20.4629 0.576101 20.1528 0.421693C19.0396 0.043307 17.8589 -0.0826029 16.6931 0.0527393H5.30686C4.14108 -0.0826029 2.96042 0.043307 1.84718 0.421693C1.53715 0.576101 1.25563 0.784147 1.0151 1.03662C0.770252 1.28434 0.566834 1.57139 0.41294 1.88633C0.349476 2.01661 0.294612 2.15107 0.248715 2.28882L9.62051 8.88527C9.95103 9.1717 10.3196 9.40885 10.7153 9.58963C10.8879 9.6332 11.0683 9.6332 11.2409 9.58963C11.6366 9.40885 12.0052 9.1717 12.3357 8.88527L21.2805 2.49007L21.6746 2.1882L21.5871 1.88633ZM13.5072 10.8307C12.998 11.249 12.4195 11.5709 11.7992 11.781C11.2745 11.9154 10.7255 11.9154 10.2008 11.781C9.58047 11.5709 9.00203 11.249 8.49283 10.8307L0.0516446 4.77087V12.5972C-0.0808885 13.7877 0.0424081 14.9933 0.41294 16.1302C0.719329 16.7669 1.2237 17.2819 1.84718 17.5948C2.96204 17.9657 4.14267 18.0839 5.30686 17.9414H16.6931C17.8589 18.0767 19.0396 17.9508 20.1528 17.5725C20.7763 17.2596 21.2807 16.7445 21.5871 16.1078C21.9576 14.971 22.0809 13.7653 21.9484 12.5748V4.74851L13.5072 10.8307Z" fill="#F5F5F5"/>
</svg>
