<svg width="41" height="26" viewBox="0 0 41 26" fill="none" xmlns="http://www.w3.org/2000/svg">
<path d="M1.90777 4.16943e-05C0.85448 4.16943e-05 0 0.862429 0 1.92648V24.0736C0 25.1374 0.854603 26 1.90777 26H39.0922C40.1455 26 41 25.1376 41 24.0736V1.92644C41 0.862553 40.1454 0 39.0922 0H1.90773L1.90777 4.16943e-05ZM13.4441 3.12972C15.7845 3.12972 17.9338 3.95191 19.621 5.32527C18.2015 6.60784 17.1427 8.29291 16.6204 10.2029H17.4391C17.9212 8.62723 18.7971 7.22439 19.9516 6.1119C21.1061 7.22439 21.9819 8.62723 22.4641 10.2029H23.2957C22.766 8.30297 21.7058 6.62796 20.2873 5.35376C21.9777 3.96297 24.1356 3.12968 26.486 3.12968C31.9099 3.12968 36.3067 7.57005 36.3067 13.0479C36.3067 18.5257 31.9099 22.9661 26.486 22.9661C24.0965 22.9661 21.9055 22.1049 20.2027 20.6722C21.7259 19.3341 22.8488 17.5403 23.3623 15.4996H22.5615C22.1055 17.2124 21.1878 18.7357 19.9516 19.927C18.7154 18.7357 17.7989 17.2124 17.3429 15.4996H16.5806C17.0971 17.5107 18.2053 19.2794 19.7056 20.6049C18.006 22.0199 15.8235 22.8703 13.4441 22.8703C8.02021 22.8703 3.62337 18.4513 3.62337 13C3.62337 7.54872 8.02021 3.12972 13.4441 3.12972ZM25.7492 10.1019C24.5692 10.1019 23.4212 11.1437 23.4212 13.0996C23.4212 14.3967 24.0413 15.2525 25.2611 15.2525C25.606 15.2526 26.1554 15.1102 26.1554 15.1102L26.3373 13.9768C26.3373 13.9768 25.8359 14.233 25.4917 14.233C24.7666 14.233 24.4757 13.6699 24.4757 13.0647C24.4757 11.8371 25.0996 11.1615 25.7941 11.1615C26.3149 11.1615 26.7332 11.4591 26.7332 11.4591L26.8998 10.3568C26.8998 10.3568 26.2806 10.1019 25.7492 10.1019H25.7492ZM35.67 10.1977L34.6437 10.2003L34.4233 11.5639C34.4233 11.5639 34.0375 11.0347 33.4342 11.0347C32.4961 11.0347 31.7147 12.16 31.7147 13.4542C31.7147 14.2895 32.1306 15.1089 32.9832 15.1089C33.5965 15.1089 33.9364 14.6833 33.9364 14.6833L33.8916 15.0468H34.8884L35.67 10.1977ZM6.27554 10.2119L5.45812 15.0726H6.44339L7.0661 11.4074L7.15835 15.0726H7.86301L9.1776 11.4074L8.59462 15.0726H9.64139L10.4486 10.2119H8.82909L7.82074 13.1941L7.76822 10.2119H6.27558L6.27554 10.2119ZM16.5691 10.5276C16.5468 10.5501 15.9733 13.8897 15.9733 14.2964C15.9733 14.8986 16.3076 15.1676 16.778 15.1632C17.115 15.1603 17.376 15.0748 17.4967 15.039C17.5094 15.0356 17.5339 15.0287 17.5339 15.0287L17.6607 14.1593C17.5918 14.1593 17.4902 14.189 17.4006 14.189C17.0495 14.189 17.0106 14.0004 17.0329 13.8604L17.3161 12.0866H17.8504L17.9798 11.1253H17.4762L17.5787 10.5276H16.5691ZM28.4783 11.0167C27.7906 11.0167 27.2637 11.2456 27.2637 11.2456L27.1176 12.1384C27.1176 12.1384 27.5528 11.9559 28.2106 11.9559C28.584 11.9559 28.8575 11.9991 28.8575 12.313C28.8575 12.5037 28.8242 12.5744 28.8242 12.5744C28.8242 12.5744 28.529 12.5485 28.3925 12.5485C27.5252 12.5485 26.6141 12.9323 26.6141 14.0868C26.6141 14.9965 27.2122 15.2046 27.5827 15.2046C28.2903 15.2046 28.5954 14.73 28.6116 14.7285L28.5782 15.1244H29.4611L29.8557 12.2678C29.8558 11.0556 28.8334 11.0166 28.4783 11.0166V11.0167ZM11.9182 11.0218C11.228 11.0218 10.6984 11.2508 10.6984 11.2508L10.5524 12.1436C10.5524 12.1436 10.989 11.9611 11.6491 11.9611C12.0239 11.9611 12.2987 12.0044 12.2987 12.3182C12.2987 12.5088 12.2654 12.5796 12.2654 12.5796C12.2654 12.5796 11.9692 12.5537 11.8323 12.5537C10.9618 12.5537 10.0476 12.9368 10.0476 14.0907C10.0476 14.9999 10.6469 15.2085 11.0187 15.2085C11.7289 15.2085 12.0351 14.7338 12.0514 14.7324L12.0181 15.1283H12.9047L13.3006 12.2729C13.3006 11.0615 12.2745 11.0218 11.9182 11.0218V11.0218ZM15.0495 11.0218C14.3084 11.0218 13.5556 11.3239 13.5556 12.3557C13.5556 13.5248 14.81 13.4067 14.81 13.8992C14.81 14.2279 14.4599 14.255 14.1898 14.255C13.7224 14.255 13.3022 14.0919 13.3006 14.0998L13.1661 14.9925C13.1903 15 13.4506 15.1179 14.2911 15.1179C14.5167 15.1179 15.8068 15.1758 15.8068 13.819C15.8068 12.5505 14.6126 12.8019 14.6126 12.2923C14.6126 12.0386 14.8065 11.9585 15.1623 11.9585C15.3036 11.9585 15.8478 12.0038 15.8478 12.0038L15.9733 11.102C15.9733 11.1021 15.6222 11.0218 15.0496 11.0218H15.0495ZM19.6825 11.0218C18.6526 11.022 17.8901 12.1404 17.8901 13.4037C17.8901 14.8618 18.8455 15.2085 19.6595 15.2085C20.4108 15.2085 20.7421 15.039 20.7421 15.039L20.9215 14.0441C20.9215 14.0441 20.3499 14.2977 19.8337 14.2977C18.7339 14.2977 18.9266 13.471 18.9266 13.471H21.0086C21.0086 13.471 21.1432 12.8028 21.1432 12.5304C21.1432 11.8506 20.8072 11.0218 19.6826 11.0218H19.6825ZM23.4123 11.0645C22.9483 11.0645 22.6038 11.6946 22.6038 11.6946L22.696 11.1163H21.7325L21.0855 15.1089H22.1502C22.4518 13.4039 22.5068 12.0195 23.2265 12.2729C23.3524 11.613 23.4747 11.358 23.6121 11.0788C23.6121 11.0788 23.5475 11.0645 23.4122 11.0645H23.4123ZM32.0389 11.0645C31.5749 11.0645 31.2304 11.6946 31.2304 11.6946L31.3227 11.1163H30.3592L29.7121 15.1089H30.7756C31.0773 13.4039 31.1337 12.0195 31.8531 12.2729C31.9793 11.613 32.1014 11.358 32.2388 11.0788C32.2388 11.0788 32.1742 11.0645 32.0389 11.0645H32.0389ZM19.6774 11.9223C20.2623 11.9223 20.1553 12.589 20.1553 12.6429H19.0035C19.0035 12.5741 19.1125 11.9223 19.6774 11.9223H19.6774ZM33.5957 11.9999C33.9679 11.9998 34.1594 12.2538 34.1594 12.8512C34.1594 13.3933 33.8886 14.1179 33.3278 14.1179C32.9556 14.1179 32.7807 13.8075 32.7807 13.3209C32.7807 12.5252 33.1412 11.9999 33.5956 11.9999H33.5957ZM28.4796 13.3584C28.6315 13.3586 28.6629 13.3735 28.6885 13.3804C28.6848 13.3798 28.6841 13.3805 28.6987 13.383C28.7179 13.5608 28.5923 14.3947 27.985 14.3947C27.6719 14.3947 27.5917 14.1433 27.5917 13.9949C27.5917 13.7056 27.7409 13.3584 28.4796 13.3584ZM11.9195 13.3623C12.092 13.3625 12.1108 13.3819 12.1398 13.3869C12.1591 13.5646 12.033 14.3973 11.4236 14.3973C11.1093 14.3973 11.0277 14.1471 11.0277 13.9988C11.0277 13.7097 11.1778 13.3623 11.9195 13.3623Z" fill="#6F6F6F"/>
</svg>
