<svg width="64" height="64" viewBox="0 0 64 64" fill="none" xmlns="http://www.w3.org/2000/svg">
<rect opacity="0.35" x="0.5" y="0.5" width="63" height="63" rx="15.5" stroke="#3482FC"/>
<rect x="5" y="5" width="54" height="54" rx="14" fill="url(#paint0_linear_1348_20184)"/>
<rect x="5.5" y="5.5" width="53" height="53" rx="13.5" stroke="#3482FC" stroke-opacity="0.6"/>
<path d="M32 37C34.7614 37 37 34.7614 37 32C37 29.2386 34.7614 27 32 27C29.2386 27 27 29.2386 27 32C27 34.7614 29.2386 37 32 37Z" stroke="#3482FC" stroke-width="2" stroke-linecap="round" stroke-linejoin="round"/>
<path d="M41.2187 25.7115C41.5329 26.1728 41.8121 26.6572 42.0537 27.1605L45.4997 29.0734C45.9195 31.0011 45.9209 32.9965 45.504 34.9248L42.0561 36.8388C41.8136 37.3417 41.5337 37.8256 41.2188 38.2865L41.2851 42.2273C39.8255 43.5547 38.0982 44.5535 36.2198 45.1567L32.8382 43.1276C32.2815 43.1691 31.7224 43.1687 31.1658 43.1263L27.7862 45.1542C25.9068 44.5538 24.1781 43.5574 22.7166 42.2322L22.7829 38.2892C22.4687 37.8278 22.1895 37.3434 21.9479 36.8402L18.5019 34.9273C18.0822 32.9995 18.0807 31.0042 18.4977 29.0759L21.9456 27.1618C22.188 26.659 22.4679 26.1751 22.7829 25.7141L22.7166 21.7734C24.1762 20.446 25.9035 19.4471 27.7819 18.844L31.1635 20.873C31.7202 20.8315 32.2793 20.832 32.8358 20.8743L36.2155 18.8464C38.0949 19.4468 39.8236 20.4432 41.2851 21.7685L41.2187 25.7115Z" stroke="#3482FC" stroke-width="2" stroke-linecap="round" stroke-linejoin="round"/>
<defs>
<linearGradient id="paint0_linear_1348_20184" x1="8.48387" y1="5" x2="57.2581" y2="60.3065" gradientUnits="userSpaceOnUse">
<stop stop-color="#F5F5F5" stop-opacity="0"/>
<stop offset="1" stop-color="#3482FC" stop-opacity="0.42"/>
</linearGradient>
</defs>
</svg>
