<svg width="36" height="36" viewBox="0 0 36 36" fill="none" xmlns="http://www.w3.org/2000/svg">
<path fill-rule="evenodd" clip-rule="evenodd" d="M6 0C2.68629 0 0 2.68629 0 6V30C0 33.3137 2.68629 36 6 36H30C33.3137 36 36 33.3137 36 30V6C36 2.68629 33.3137 0 30 0H6ZM19.645 13.2883C17.8943 14.0165 14.3952 15.5237 9.14784 17.8099C8.29575 18.1488 7.84939 18.4803 7.80875 18.8044C7.74008 19.3522 8.42607 19.5679 9.36021 19.8616C9.48727 19.9016 9.61893 19.943 9.75391 19.9869C10.673 20.2856 11.9092 20.6351 12.5519 20.649C13.1349 20.6616 13.7856 20.4212 14.504 19.9279C19.4067 16.6184 21.9376 14.9457 22.0965 14.9096C22.2086 14.8841 22.3639 14.8522 22.4691 14.9457C22.5744 15.0393 22.5641 15.2164 22.5529 15.2639C22.4849 15.5536 19.7922 18.0571 18.3987 19.3526C17.9643 19.7565 17.6561 20.043 17.5931 20.1084C17.452 20.255 17.3082 20.3936 17.17 20.5268C16.3162 21.3499 15.6759 21.9672 17.2054 22.9751C17.9405 23.4595 18.5286 23.86 19.1154 24.2596C19.7563 24.6961 20.3954 25.1313 21.2224 25.6734C21.4331 25.8115 21.6343 25.955 21.8303 26.0947C22.5761 26.6264 23.2461 27.1041 24.0739 27.0279C24.5549 26.9836 25.0517 26.5314 25.304 25.1825C25.9003 21.9947 27.0724 15.0876 27.3433 12.2414C27.3671 11.992 27.3372 11.6729 27.3132 11.5328C27.2893 11.3927 27.2392 11.1931 27.0571 11.0453C26.8414 10.8703 26.5085 10.8334 26.3595 10.8361C25.6825 10.848 24.6438 11.2092 19.645 13.2883Z" fill="#F5F5F5"/>
</svg>
