<svg width="21" height="21" viewBox="0 0 21 21" fill="none" xmlns="http://www.w3.org/2000/svg">
<path d="M6.15221 7.10931C6.93778 8.7455 8.00868 10.279 9.3649 11.6352C10.7211 12.9914 12.2546 14.0623 13.8908 14.8479C14.0316 14.9155 14.1019 14.9493 14.191 14.9752C14.5074 15.0675 14.896 15.0012 15.164 14.8093C15.2394 14.7553 15.3039 14.6908 15.4329 14.5618C15.8275 14.1672 16.0248 13.9699 16.2232 13.8409C16.9714 13.3544 17.936 13.3544 18.6842 13.8409C18.8826 13.9699 19.0799 14.1672 19.4745 14.5618L19.6944 14.7817C20.2943 15.3816 20.5942 15.6815 20.7571 16.0036C21.0811 16.6442 21.0811 17.4007 20.7571 18.0413C20.5942 18.3635 20.2943 18.6634 19.6944 19.2632L19.5165 19.4411C18.9187 20.0389 18.6198 20.3378 18.2135 20.5661C17.7625 20.8194 17.0622 21.0015 16.545 21C16.0789 20.9986 15.7604 20.9082 15.1233 20.7274C11.6995 19.7556 8.46871 17.922 5.7734 15.2267C3.07808 12.5314 1.24454 9.30066 0.272758 5.87686C0.0919318 5.23977 0.00151798 4.92122 0.000131753 4.45513C-0.00140746 3.93794 0.180722 3.23759 0.434026 2.78666C0.662303 2.3803 0.961196 2.0814 1.55898 1.48362L1.7369 1.30569C2.33674 0.705854 2.63666 0.405934 2.95877 0.243012C3.59938 -0.0810041 4.35591 -0.0810041 4.99652 0.243012C5.31863 0.405934 5.61855 0.705853 6.21839 1.30569L6.43833 1.52564C6.83294 1.92024 7.03024 2.11754 7.15923 2.31594C7.64569 3.06415 7.6457 4.02872 7.15923 4.77692C7.03024 4.97532 6.83294 5.17262 6.43834 5.56722C6.30931 5.69625 6.2448 5.76076 6.1908 5.83617C5.99891 6.10416 5.93265 6.49272 6.02489 6.80916C6.05085 6.8982 6.08464 6.96857 6.15221 7.10931Z" fill="#F5F5F5"/>
</svg>
