<svg width="36" height="36" viewBox="0 0 36 36" fill="none" xmlns="http://www.w3.org/2000/svg">
<path fill-rule="evenodd" clip-rule="evenodd" d="M6 0C2.68629 0 0 2.68629 0 6V30C0 33.3137 2.68629 36 6 36H30C33.3137 36 36 33.3137 36 30V6C36 2.68629 33.3137 0 30 0H6ZM25.9685 12.67C26.9115 12.557 27.8085 12.307 28.6435 11.937L28.6415 11.94C28.0164 12.8749 27.2298 13.6909 26.3185 14.35C26.3275 14.55 26.3325 14.752 26.3325 14.952C26.3325 21.108 21.6475 28.206 13.0775 28.206C10.5458 28.2088 8.06698 27.4821 5.9375 26.113C6.30658 26.1564 6.67788 26.1781 7.0495 26.178C9.14739 26.181 11.1853 25.4784 12.8355 24.183C11.8634 24.1651 10.9212 23.8438 10.1409 23.2639C9.3605 22.684 8.781 21.8746 8.4835 20.949C9.18184 21.082 9.90128 21.0547 10.5875 20.869C9.53307 20.6559 8.58483 20.0846 7.90368 19.252C7.22253 18.4193 6.85043 17.3767 6.8505 16.301V16.241C7.49737 16.6005 8.22078 16.8004 8.9605 16.824C8.32266 16.398 7.79982 15.8212 7.43838 15.1447C7.07693 14.4682 6.88805 13.7129 6.8885 12.946C6.8885 12.094 7.1185 11.294 7.5185 10.604C8.68834 12.0431 10.1477 13.2202 11.8019 14.0589C13.4561 14.8975 15.2682 15.379 17.1205 15.472C16.886 14.4727 16.988 13.424 17.4107 12.4887C17.8333 11.5533 18.5529 10.7837 19.4577 10.2992C20.3626 9.81475 21.4021 9.64258 22.4148 9.80943C23.4276 9.97628 24.3569 10.4728 25.0585 11.222C26.1018 11.0171 27.1023 10.6349 28.0165 10.092C27.6694 11.1714 26.9415 12.0877 25.9685 12.67Z" fill="#F5F5F5"/>
</svg>
