<svg width="48" height="48" viewBox="0 0 48 48" fill="none" xmlns="http://www.w3.org/2000/svg">
<rect width="48" height="48" rx="10" fill="#3482FC"/>
<path fill-rule="evenodd" clip-rule="evenodd" d="M14.8191 18H11.9752C11.1625 18 11 18.3219 11 18.6776C11 19.3115 11.9635 22.4578 15.49 26.6178C17.8397 29.4597 21.1517 31 24.1645 31C25.9733 31 26.197 30.6573 26.197 30.0695V27.9216C26.197 27.2374 26.3686 27.1005 26.9408 27.1005C27.3634 27.1005 28.085 27.2779 29.7742 28.6474C31.7026 30.272 32.0198 31 33.1043 31H35.9494C36.7621 31 37.1691 30.6573 36.9338 29.9819C36.6776 29.3097 35.757 28.3332 34.5347 27.1761C33.8715 26.5171 32.8781 25.8066 32.5764 25.4508C32.1538 24.9943 32.2747 24.7917 32.5764 24.3856C32.5764 24.3856 36.0418 20.276 36.4033 18.8802C36.5853 18.3733 36.4033 18 35.5424 18H32.6986C31.9756 18 31.6414 18.3219 31.4607 18.6776C31.4607 18.6776 30.0147 21.6455 27.9654 23.5733C27.3022 24.1316 27.0006 24.3101 26.6391 24.3101C26.4583 24.3101 26.197 24.1316 26.197 23.6248V18.8802C26.197 18.2715 25.9876 18 25.3843 18H20.9137C20.4625 18 20.1907 18.2824 20.1907 18.5507C20.1907 19.1276 21.2154 19.2611 21.3207 20.8846V24.4108C21.3207 25.1848 21.1556 25.3249 20.7928 25.3249C19.8292 25.3249 17.4834 22.3428 16.0921 18.9316C15.819 18.2682 15.546 18 14.8191 18Z" fill="#F5F5F5"/>
</svg>
