<svg width="242" height="286" viewBox="0 0 242 286" fill="none" xmlns="http://www.w3.org/2000/svg">
<g clip-path="url(#clip0_1164_30725)">
<mask id="mask0_1164_30725" style="mask-type:alpha" maskUnits="userSpaceOnUse" x="0" y="0" width="242" height="402">
<g clip-path="url(#clip1_1164_30725)">
<path d="M209.339 -88.4928C221.712 -90.0318 234.112 -85.8529 243.03 -77.139L304.181 -17.3846C313.098 -8.67074 317.562 3.62966 316.309 16.0346L307.718 101.101C306.466 113.506 299.632 124.665 289.152 131.42L217.289 177.741C206.809 184.496 193.824 186.111 182.009 182.129L100.987 154.825C89.1719 150.843 79.8129 141.697 75.5593 129.977L46.3908 49.6082C42.1372 37.8881 43.4521 24.8689 49.9631 14.236L94.6121 -58.6783C101.123 -69.3112 112.122 -76.4005 124.494 -77.9395L209.339 -88.4928Z" fill="url(#paint0_linear_1164_30725)" fill-opacity="0.18"/>
<path d="M359.547 258.432C364.737 269.768 364.482 282.851 358.855 293.977L320.178 370.445C314.551 381.571 304.163 389.529 291.956 392.066L208.057 409.504C195.85 412.041 183.152 408.882 173.557 400.92L107.613 346.197C98.0182 338.235 92.5712 326.337 92.814 313.872L94.4823 228.196C94.725 215.73 100.631 204.053 110.528 196.471L178.553 144.357C188.45 136.775 201.262 134.112 213.361 137.122L296.518 157.813C308.617 160.824 318.687 169.18 323.876 180.517L359.547 258.432Z" fill="url(#paint1_linear_1164_30725)" fill-opacity="0.22"/>
<path d="M268.648 -23.4176C281.021 -24.9566 293.421 -20.7777 302.338 -12.0638L363.8 47.9938C372.717 56.7077 377.181 69.0081 375.928 81.4131L367.294 166.911C366.041 179.316 359.208 190.475 348.728 197.23L276.5 243.786C266.02 250.541 253.035 252.156 241.219 248.174L159.787 220.731C147.972 216.749 138.613 207.604 134.359 195.884L105.042 115.107C100.789 103.387 102.104 90.3677 108.615 79.7348L153.49 6.45051C160.001 -4.18241 171 -11.2718 183.373 -12.8107L268.648 -23.4176Z" fill="url(#paint2_linear_1164_30725)" fill-opacity="0.2"/>
</g>
</mask>
<g mask="url(#mask0_1164_30725)">
<rect x="19" width="223" height="286" rx="20" fill="#3482FC"/>
</g>
</g>
<defs>
<linearGradient id="paint0_linear_1164_30725" x1="228.918" y1="-90.9282" x2="136.944" y2="181.991" gradientUnits="userSpaceOnUse">
<stop stop-color="#FBFBFB"/>
<stop offset="1" stop-color="#FBFBFB" stop-opacity="0"/>
</linearGradient>
<linearGradient id="paint1_linear_1164_30725" x1="367.76" y1="276.371" x2="79.3683" y2="270.756" gradientUnits="userSpaceOnUse">
<stop stop-color="#FBFBFB"/>
<stop offset="1" stop-color="#FBFBFB" stop-opacity="0"/>
</linearGradient>
<linearGradient id="paint2_linear_1164_30725" x1="288.227" y1="-25.853" x2="195.933" y2="248.013" gradientUnits="userSpaceOnUse">
<stop stop-color="#FBFBFB"/>
<stop offset="1" stop-color="#FBFBFB" stop-opacity="0"/>
</linearGradient>
<clipPath id="clip0_1164_30725">
<rect width="242" height="286" fill="white"/>
</clipPath>
<clipPath id="clip1_1164_30725">
<rect width="242" height="402" rx="20" fill="white"/>
</clipPath>
</defs>
</svg>
